{
.appVersion = "1338";
customParameters = (
{
name = Axes;
value = (
{
Name = Weight;
Tag = wght;
},
{
Name = "Optical size";
Tag = opsz;
}
);
},
{
name = "Variable Font Family Name";
value = "Norse Pixel Italic Variable";
},
{
name = note;
value = "0/zero.ss18/one.ss18/two.ss18/three.ss18/four.ss18/five.ss18/six.ss18/seven.ss18/eight.ss18/nine.ss18\0120/zero.ss18/one.ss18/two.ss18/three.ss18/four.ss18/five.ss18/six.ss18/seven.ss18/eight.ss18/nine.ss18\012/zero.sc/zero.ss18.sc/one.ss18.sc/two.ss18.sc/three.ss18.sc/four.ss18.sc/five.ss18.sc/six.ss18.sc/seven.ss18.sc/eight.ss18.sc/nine.ss18.sc\012/zero.sc/zero.ss18.sc/one.ss18.sc/two.ss18.sc/three.ss18.sc/four.ss18.sc/five.ss18.sc/six.ss18.sc/seven.ss18.sc/eight.ss18.sc/nine.ss18.sc\012";
}
);
date = "2019-11-07 17:03:37 +0000";
designer = "Jeremy Johnson";
disablesNiceNames = 1;
familyName = "Norse Pixel Italic";
featurePrefixes = (
{
automatic = 1;
code = "languagesystem DFLT dflt;\012";
name = Languagesystems;
}
);
features = (
{
automatic = 1;
code = "feature c2sc;\012feature smcp;\012feature salt;\012feature ss01;\012feature ss02;\012feature ss03;\012feature ss04;\012feature ss05;\012feature ss15;\012feature ss16;\012feature ss17;\012feature ss18;\012feature ss19;\012feature ss20;\012feature dnom;\012";
name = aalt;
},
{
automatic = 1;
code = "sub zero.ss18 by zero.ss18.dnom;\012sub one.ss18 by one.ss18.dnom;\012sub two.ss18 by two.ss18.dnom;\012sub three.ss18 by three.ss18.dnom;\012sub four.ss18 by four.ss18.dnom;\012sub five.ss18 by five.ss18.dnom;\012sub six.ss18 by six.ss18.dnom;\012sub seven.ss18 by seven.ss18.dnom;\012sub eight.ss18 by eight.ss18.dnom;\012sub nine.ss18 by nine.ss18.dnom;\012sub zero by zero.dnom;\012sub one by one.dnom;\012sub two by two.dnom;\012sub three by three.dnom;\012sub four by four.dnom;\012sub five by five.dnom;\012sub six by six.dnom;\012sub seven by seven.dnom;\012sub eight by eight.dnom;\012sub nine by nine.dnom;\012";
name = dnom;
},
{
automatic = 1;

glyphs = (
{
color = 6;
glyphname = A;
lastChange = "2020-04-27 11:21:28 +0000";
layers = (
{
layerId = "E773EBAE-783E-4D91-931E-4E5C9CF0967C";
paths = (
{
closed = 1;
nodes = (
"33 0 LINE",
"150 209 LINE",
"148 209 LINE",
"148 213 LINE",
"152 213 LINE",
"152 211 LINE",
"441 211 LINE",
"441 213 LINE",
"445 213 LINE",
"445 209 LINE",
"443 209 LINE",
"472 0 LINE",
"543 0 LINE",
"434 700 LINE",
"365 700 LINE",
"-36 0 LINE"
);
},
{
closed = 1;
nodes = (
"180 265 LINE",
"182 265 LINE",
"382 620 LINE",
"382 624 LINE",
"386 624 LINE",
"386 620 LINE",
"436 265 LINE",
"438 265 LINE",
"438 261 LINE",
"434 261 LINE",
"434 263 LINE",
"184 263 LINE",
"184 261 LINE",
"180 261 LINE"
);
}
);
width = 619;
},
{
background = {
paths = (
{
closed = 1;
nodes = (
"320 700 LINE",
"320 624 LINE",
"323 624 LINE",
"323 620 LINE",
"449 265 LINE",
"451 265 LINE",
"451 261 LINE",
"449 261 LINE",
"468 213 LINE",
"470 213 LINE",
"470 209 LINE",
"468 209 LINE",
"540 0 LINE",
"613 0 LINE",
"355 700 LINE"
);
},
{
closed = 1;
nodes = (
"33 0 LINE",
"102 0 LINE",
"175 209 LINE",
"173 209 LINE",
"173 213 LINE",
"175 213 LINE",
"195 261 LINE",
"193 261 LINE",
"193 265 LINE",
"195 265 LINE",
"319 620 LINE",
"319 624 LINE",
"322 624 LINE",
"322 700 LINE",
"286 700 LINE"
);
},
{
closed = 1;
nodes = (
"137 211 LINE",
"173 211 LINE",
"173 213 LINE",
"177 213 LINE",
"177 211 LINE",
"466 211 LINE",
"466 213 LINE",
"470 213 LINE",
"470 211 LINE",
"500 211 LINE",
"500 263 LINE",
"451 263 LINE",
"451 261 LINE",
"447 261 LINE",
"447 263 LINE",
"197 263 LINE",
"197 261 LINE",
"193 261 LINE",
"193 263 LINE",
"137 263 LINE"
);
}
);
};
guideLines = (
{
angle = -85.1862;
position = "{408, 400}";
}
);
layerId = "C89E7CB9-06CC-4D85-8773-832B05BA201B";
paths = (
{
closed = 1;
nodes = (
"107 0 LINE",
"185 146 LINE",
"183 146 LINE",
"183 150 LINE",
"187 150 LINE",
"187 148 LINE",
"428 148 LINE",
"428 150 LINE",
"432 150 LINE",
"432 146 LINE",
"430 146 LINE",
"442 0 LINE",
"599 0 LINE",
"511 700 LINE",
"340 700 LINE",
"-47 0 LINE"
);
},
{
closed = 1;
nodes = (
"244 265 LINE",
"246 265 LINE",
"391 544 LINE",
"391 548 LINE",
"395 548 LINE",
"395 544 LINE",
"420 265 LINE",
"422 265 LINE",
"422 261 LINE",
"418 261 LINE",
"418 263 LINE",
"248 263 LINE",
"248 261 LINE",
"244 261 LINE"
);
}
);
width = 666;
}
);
rightMetricsKey = "=|";
unicode = 0041;
},
{
color = 6;
glyphname = B;
lastChange = "2020-05-11 14:45:27 +0000";
layers = (
{
layerId = "E773EBAE-783E-4D91-931E-4E5C9CF0967C";
paths = (
{
closed = 1;
nodes = (
"328 0 LINE SMOOTH",
"469 0 OFFCURVE",
"581 101 OFFCURVE",
"581 225 CURVE SMOOTH",
"581 281 OFFCURVE",
"559 337 OFFCURVE",
"504 366 CURVE",
"500 366 LINE",
"500 370 LINE",
"504 370 LINE",
"570 408 OFFCURVE",
"624 478 OFFCURVE",
"624 551 CURVE SMOOTH",
"624 630 OFFCURVE",
"561 700 OFFCURVE",
"442 700 CURVE SMOOTH",
"183 700 LINE",
"35 0 LINE"
);
},
{
closed = 1;
nodes = (
"114 57 LINE",
"172 334 LINE",
"172 338 LINE",
"176 338 LINE",
"176 336 LINE",
"380 336 LINE SMOOTH",
"471 336 OFFCURVE",
"511 282 OFFCURVE",
"511 219 CURVE SMOOTH",
"511 128 OFFCURVE",
"424 55 OFFCURVE",
"320 55 CURVE SMOOTH",
"118 55 LINE",
"118 53 LINE",
"114 53 LINE"
);
},
{
closed = 1;
nodes = (
"183 388 LINE",
"238 643 LINE",
"238 647 LINE",
"242 647 LINE",
"242 645 LINE",
"418 645 LINE SMOOTH",
"511 645 OFFCURVE",
"554 604 OFFCURVE",
"554 543 CURVE SMOOTH",
"554 455 OFFCURVE",
"466 386 OFFCURVE",
"363 386 CURVE SMOOTH",
"187 386 LINE",
"187 384 LINE",
"183 384 LINE"
);
}
);
width = 644;
},
{
background = {
paths = (
{
closed = 1;
nodes = (
"195 0 LINE",
"195 53 LINE",
"193 53 LINE",
"193 57 LINE",
"195 57 LINE",
"195 334 LINE",
"193 334 LINE",
"193 338 LINE",
"195 338 LINE",
"195 384 LINE",
"193 384 LINE",
"193 388 LINE",
"195 388 LINE",
"195 643 LINE",
"193 643 LINE",
"193 647 LINE",
"195 647 LINE",
"195 700 LINE",
"130 700 LINE",
"130 0 LINE"
);
},
{
closed = 1;
nodes = (
"562 0 OFFCURVE",
"630 104 OFFCURVE",
"630 194 CURVE SMOOTH",
"630 260 OFFCURVE",
"592 332 OFFCURVE",
"520 366 CURVE",
"516 366 LINE",
"516 370 LINE",
"490 382 OFFCURVE",
"461 386 OFFCURVE",
"427 386 CURVE SMOOTH",
"197 386 LINE",
"197 384 LINE",
"193 384 LINE",
"193 386 LINE",
"156 386 LINE",
"156 336 LINE",
"193 336 LINE",
"193 338 LINE",
"197 338 LINE",
"197 336 LINE",
"401 336 LINE SMOOTH",
"505 336 OFFCURVE",
"560 266 OFFCURVE",
"560 193 CURVE SMOOTH",
"560 127 OFFCURVE",
"509 55 OFFCURVE",
"401 55 CURVE SMOOTH",
"197 55 LINE",
"197 53 LINE",
"193 53 LINE",
"193 55 LINE",
"156 55 LINE",
"156 0 LINE",
"422 0 LINE SMOOTH"
);
},
{
closed = 1;
nodes = (
"446 336 OFFCURVE",
"484 347 OFFCURVE",
"516 366 CURVE",
"516 370 LINE",
"520 370 LINE",
"576 406 OFFCURVE",
"604 465 OFFCURVE",
"604 522 CURVE SMOOTH",
"604 612 OFFCURVE",
"534 700 OFFCURVE",
"401 700 CURVE SMOOTH",
"140 700 LINE",
"140 645 LINE",
"193 645 LINE",
"193 647 LINE",
"197 647 LINE",
"197 645 LINE",
"375 645 LINE SMOOTH",
"479 645 OFFCURVE",
"534 594 OFFCURVE",
"534 521 CURVE SMOOTH",
"534 455 OFFCURVE",
"483 386 OFFCURVE",
"375 386 CURVE SMOOTH",
"340 386 LINE",
"340 336 LINE",
"396 336 LINE SMOOTH"
);
}
);
};
layerId = "C89E7CB9-06CC-4D85-8773-832B05BA201B";
paths = (
{
closed = 1;
nodes = (
"354 0 LINE SMOOTH",
"519 0 OFFCURVE",
"643 101 OFFCURVE",
"643 238 CURVE SMOOTH",
"643 289 OFFCURVE",
"626 338 OFFCURVE",
"584 372 CURVE",
"580 372 LINE",
"580 376 LINE",
"584 376 LINE",
"636 416 OFFCURVE",
"676 467 OFFCURVE",
"676 537 CURVE SMOOTH",
"676 634 OFFCURVE",
"601 700 OFFCURVE",
"460 700 CURVE SMOOTH",
"172 700 LINE",
"24 0 LINE"
);
},
{
closed = 1;
nodes = (
"197 117 LINE",
"239 313 LINE",
"239 317 LINE",
"243 317 LINE",
"243 315 LINE",
"389 315 LINE SMOOTH",
"464 315 OFFCURVE",
"496 280 OFFCURVE",
"496 232 CURVE SMOOTH",
"496 165 OFFCURVE",
"433 115 OFFCURVE",
"347 115 CURVE SMOOTH",
"201 115 LINE",
"201 113 LINE",
"197 113 LINE"
);
},
{
closed = 1;
nodes = (
"260 416 LINE",
"296 583 LINE",
"296 587 LINE",
"300 587 LINE",
"300 585 LINE",
"422 585 LINE SMOOTH",
"479 585 OFFCURVE",
"525 569 OFFCURVE",
"525 510 CURVE SMOOTH",
"525 442 OFFCURVE",
"460 415 OFFCURVE",
"386 415 CURVE SMOOTH",
"264 415 LINE",
"264 412 LINE",
"260 412 LINE"
);
}
);
width = 694;
}
);
leftMetricsKey = "=H";
rightMetricsKey = "=O";
unicode = 0042;
},
{
color = 6;
glyphname = C;
lastChange = "2020-05-11 14:45:27 +0000";
layers = (
{
background = {
paths = (
{
closed = 1;
nodes = (
"438 -8 OFFCURVE",
"561 74 OFFCURVE",
"631 206 CURVE",
"645 178 LINE",
"543 222 LINE",
"578 233 LINE",
"520 111 OFFCURVE",
"410 49 OFFCURVE",
"314 49 CURVE SMOOTH",
"187 49 OFFCURVE",
"97 158 OFFCURVE",
"139 352 CURVE SMOOTH",
"179 543 OFFCURVE",
"315 653 OFFCURVE",
"443 653 CURVE SMOOTH",
"528 653 OFFCURVE",
"601 606 OFFCURVE",
"622 515 CURVE",
"589 519 LINE",
"704 580 LINE",
"684 550 LINE",
"653 650 OFFCURVE",
"562 708 OFFCURVE",
"455 708 CURVE SMOOTH",
"288 708 OFFCURVE",
"114 568 OFFCURVE",
"69 352 CURVE SMOOTH",
"22 135 OFFCURVE",
"127 -8 OFFCURVE",
"302 -8 CURVE SMOOTH"
);
}
);
};
guideLines = (
{
angle = 90;
position = "{658, 135}";
}
);
layerId = "E773EBAE-783E-4D91-931E-4E5C9CF0967C";
paths = (
{
closed = 1;
nodes = (
"442 -8 OFFCURVE",
"560 73 OFFCURVE",
"630 205 CURVE",
"645 176 LINE",
"543 224 LINE",
"576 233 LINE",
"518 113 OFFCURVE",
"418 47 OFFCURVE",
"314 47 CURVE SMOOTH",
"205 47 OFFCURVE",
"128 122 OFFCURVE",
"128 256 CURVE SMOOTH",
"128 452 OFFCURVE",
"256 653 OFFCURVE",
"442 653 CURVE SMOOTH",
"532 653 OFFCURVE",
"598 608 OFFCURVE",
"626 515 CURVE",
"592 529 LINE",
"702 575 LINE",
"683 548 LINE",
"653 649 OFFCURVE",
"565 708 OFFCURVE",
"451 708 CURVE SMOOTH",
"231 708 OFFCURVE",
"58 485 OFFCURVE",
"58 251 CURVE SMOOTH",
"58 92 OFFCURVE",
"155 -8 OFFCURVE",
"302 -8 CURVE SMOOTH"
);
}
);
width = 686;
},
{
background = {
paths = (
{
closed = 1;
nodes = (
"473 -12 OFFCURVE",
"596 84 OFFCURVE",
"671 224 CURVE",
"700 160 LINE",
"490 256 LINE",
"569 289 LINE",
"509 181 OFFCURVE",
"436 108 OFFCURVE",
"336 108 CURVE SMOOTH",
"216 108 OFFCURVE",
"178 215 OFFCURVE",
"207 352 CURVE SMOOTH",
"238 496 OFFCURVE",
"331 592 OFFCURVE",
"444 592 CURVE SMOOTH",
"506 592 OFFCURVE",
"564 563 OFFCURVE",
"589 476 CURVE",
"516 474 LINE",
"762 601 LINE",
"718 537 LINE",
"686 647 OFFCURVE",
"592 712 OFFCURVE",
"465 712 CURVE SMOOTH",
"278 712 OFFCURVE",
"103 568 OFFCURVE",
"57 352 CURVE SMOOTH",
"11 135 OFFCURVE",
"115 -12 OFFCURVE",
"310 -12 CURVE SMOOTH"
);
}
);
};
layerId = "C89E7CB9-06CC-4D85-8773-832B05BA201B";
paths = (
{
closed = 1;
nodes = (
"470 -12 OFFCURVE",
"596 83 OFFCURVE",
"670 222 CURVE",
"705 158 LINE",
"490 256 LINE",
"567 294 LINE",
"510 191 OFFCURVE",
"445 108 OFFCURVE",
"333 108 CURVE SMOOTH",
"246 108 OFFCURVE",
"198 163 OFFCURVE",
"198 260 CURVE SMOOTH",
"198 429 OFFCURVE",
"284 592 OFFCURVE",
"439 592 CURVE SMOOTH",
"520 592 OFFCURVE",
"569 549 OFFCURVE",
"596 470 CURVE",
"522 478 LINE",
"758 600 LINE",
"719 534 LINE",
"684 645 OFFCURVE",
"597 712 OFFCURVE",
"465 712 CURVE SMOOTH",
"227 712 OFFCURVE",
"48 497 OFFCURVE",
"48 255 CURVE SMOOTH",
"48 92 OFFCURVE",
"147 -12 OFFCURVE",
"311 -12 CURVE SMOOTH"
);
}
);
width = 706;
}
);
leftMetricsKey = "=O";
rightMetricsKey = "=|";
unicode = 0043;
},
{
color = 6;
glyphname = D;
lastChange = "2020-05-11 19:59:12 +0000";
layers = (
{
background = {
paths = (
{
closed = 1;
nodes = (
"277 0 LINE SMOOTH",
"518 0 OFFCURVE",
"661 172 OFFCURVE",
"661 400 CURVE SMOOTH",
"661 589 OFFCURVE",
"562 700 OFFCURVE",
"405 700 CURVE SMOOTH",
"183 700 LINE",
"35 0 LINE"
);
},
{
closed = 1;
nodes = (
"238 647 LINE",
"242 647 LINE",
"242 645 LINE",
"403 645 LINE SMOOTH",
"520 645 OFFCURVE",
"596 556 OFFCURVE",
"596 400 CURVE SMOOTH",
"596 207 OFFCURVE",
"470 55 OFFCURVE",
"289 55 CURVE SMOOTH",
"117 55 LINE",
"117 53 LINE",
"113 53 LINE"
);
}
);
};
layerId = "E773EBAE-783E-4D91-931E-4E5C9CF0967C";
paths = (
{
closed = 1;
nodes = (
"261 0 LINE SMOOTH",
"505 0 OFFCURVE",
"657 202 OFFCURVE",
"657 452 CURVE SMOOTH",
"657 613 OFFCURVE",
"557 700 OFFCURVE",
"404 700 CURVE SMOOTH",
"183 700 LINE",
"35 0 LINE"
);
},
{
closed = 1;
nodes = (
"113 57 LINE",
"237 643 LINE",
"237 647 LINE",
"241 647 LINE",
"241 645 LINE",
"398 645 LINE SMOOTH",
"511 645 OFFCURVE",
"591 585 OFFCURVE",
"591 446 CURVE SMOOTH",
"591 243 OFFCURVE",
"476 55 OFFCURVE",
"272 55 CURVE SMOOTH",
"117 55 LINE",
"117 53 LINE",
"113 53 LINE"
);
}
);
width = 680;
},
{
background = {
paths = (
{
closed = 1;
nodes = (
"313 0 LINE SMOOTH",
"555 0 OFFCURVE",
"721 171 OFFCURVE",
"721 400 CURVE SMOOTH",
"721 594 OFFCURVE",
"613 700 OFFCURVE",
"451 700 CURVE SMOOTH",
"172 700 LINE",
"24 0 LINE"
);
},
{
closed = 1;
nodes = (
"197 117 LINE",
"295 583 LINE",
"295 587 LINE",
"299 587 LINE",
"299 585 LINE",
"426 585 LINE SMOOTH",
"525 585 OFFCURVE",
"576 520 OFFCURVE",
"576 400 CURVE SMOOTH",
"576 253 OFFCURVE",
"473 115 OFFCURVE",
"328 115 CURVE SMOOTH",
"201 115 LINE",
"201 113 LINE",
"197 113 LINE"
);
}
);
};
layerId = "C89E7CB9-06CC-4D85-8773-832B05BA201B";
paths = (
{
closed = 1;
nodes = (
"297 0 LINE SMOOTH",
"544 0 OFFCURVE",
"715 191 OFFCURVE",
"715 437 CURVE SMOOTH",
"715 606 OFFCURVE",
"597 700 OFFCURVE",
"440 700 CURVE SMOOTH",
"172 700 LINE",
"24 0 LINE"
);
},
{
closed = 1;
nodes = (
"197 117 LINE",
"295 583 LINE",
"295 587 LINE",
"299 587 LINE",
"299 585 LINE",
"421 585 LINE SMOOTH",
"516 585 OFFCURVE",
"570 529 OFFCURVE",
"570 430 CURVE SMOOTH",
"570 269 OFFCURVE",
"479 115 OFFCURVE",
"321 115 CURVE SMOOTH",
"201 115 LINE",
"201 113 LINE",
"197 113 LINE"
);
}
);
width = 730;
}
);
leftMetricsKey = "=H";
rightMetricsKey = "=O";
unicode = 0044;
},
{
color = 6;
glyphname = E;
lastChange = "2020-05-15 09:36:18 +0000";
layers = (
{
background = {
paths = (
{
closed = 1;
nodes = (
"460 0 LINE",
"473 60 LINE",
"117 60 LINE",
"116 58 LINE",
"112 58 LINE",
"113 62 LINE",
"169 326 LINE",
"170 330 LINE",
"174 330 LINE",
"174 328 LINE",
"500 328 LINE",
"511 383 LINE",
"185 383 LINE",
"185 381 LINE",
"181 381 LINE",
"182 385 LINE",
"236 638 LINE",
"236 642 LINE",
"240 642 LINE",
"240 640 LINE",
"596 640 LINE",
"609 700 LINE",
"184 700 LINE",
"35 0 LINE"
);
}
);
};
layerId = "E773EBAE-783E-4D91-931E-4E5C9CF0967C";
paths = (
{
closed = 1;
nodes = (
"460 0 LINE",
"473 60 LINE",
"118 60 LINE",
"118 58 LINE",
"114 58 LINE",
"114 62 LINE",
"170 328 LINE",
"170 332 LINE",
"174 332 LINE",
"174 330 LINE",
"499 330 LINE",
"511 385 LINE",
"186 385 LINE",
"186 383 LINE",
"182 383 LINE",
"182 387 LINE",
"236 638 LINE",
"236 642 LINE",
"240 642 LINE",
"240 640 LINE",
"596 640 LINE",
"609 700 LINE",
"183 700 LINE",
"35 0 LINE"
);
}
);
width = 546;
},
{
background = {
paths = (
{
closed = 1;
nodes = (
"484 0 LINE",
"512 130 LINE",
"201 130 LINE",
"200 128 LINE",
"196 128 LINE",
"197 132 LINE",
"232 296 LINE",
"233 300 LINE",
"237 300 LINE",
"236 298 LINE",
"517 298 LINE",
"542 413 LINE",
"261 413 LINE",
"260 411 LINE",
"256 411 LINE",
"257 415 LINE",
"292 578 LINE",
"293 582 LINE",
"297 582 LINE",
"296 580 LINE",
"602 580 LINE",
"628 700 LINE",
"173 700 LINE",
"24 0 LINE"
);
}
);
};
layerId = "C89E7CB9-06CC-4D85-8773-832B05BA201B";
paths = (
{
closed = 1;
nodes = (
"485 0 LINE",
"512 130 LINE",
"204 130 LINE",
"204 128 LINE",
"200 128 LINE",
"200 132 LINE",
"236 303 LINE",
"236 307 LINE",
"240 307 LINE",
"240 305 LINE",
"518 305 LINE",
"543 420 LINE",
"265 420 LINE",
"265 418 LINE",
"261 418 LINE",
"261 422 LINE",
"294 578 LINE",
"294 582 LINE",
"298 582 LINE",
"298 580 LINE",
"603 580 LINE",
"628 700 LINE",
"172 700 LINE",
"24 0 LINE"
);
}
);
width = 562;
}
);
leftMetricsKey = "=H";
unicode = 0045;
},
{
color = 6;
glyphname = F;
lastChange = "2020-05-15 09:37:17 +0000";
layers = (
{
layerId = "E773EBAE-783E-4D91-931E-4E5C9CF0967C";
paths = (
{
closed = 1;
nodes = (
"101 0 LINE",
"166 306 LINE",
"166 310 LINE",
"170 310 LINE",
"170 308 LINE",
"485 308 LINE",
"495 363 LINE",
"183 363 LINE",
"183 361 LINE",
"179 361 LINE",
"179 365 LINE",
"236 638 LINE",
"236 642 LINE",
"240 642 LINE",
"240 640 LINE",
"586 640 LINE",
"599 700 LINE",
"183 700 LINE",
"35 0 LINE"
);
}
);
width = 536;
},
{
layerId = "C89E7CB9-06CC-4D85-8773-832B05BA201B";
paths = (
{
closed = 1;
nodes = (
"172 0 LINE",
"228 266 LINE",
"228 270 LINE",
"232 270 LINE",
"232 268 LINE",
"503 268 LINE",
"526 381 LINE",
"257 381 LINE",
"257 379 LINE",
"253 379 LINE",
"253 383 LINE",
"293 571 LINE",
"293 575 LINE",
"297 575 LINE",
"297 573 LINE",
"597 573 LINE",
"624 700 LINE",
"172 700 LINE",
"24 0 LINE"
);
}
);
width = 552;
}
);
leftMetricsKey = "=H";
rightMetricsKey = "=E";
unicode = 0046;
},
{
color = 6;
glyphname = G;
lastChange = "2020-05-11 14:45:27 +0000";
layers = (
{
background = {
paths = (
{
closed = 1;
nodes = (
"502 -8 OFFCURVE",
"609 100 OFFCURVE",
"654 169 CURVE",
"692 351 LINE",
"414 351 LINE",
"403 296 LINE",
"618 296 LINE",
"618 298 LINE",
"622 298 LINE",
"621 294 LINE",
"619 294 LINE",
"596 183 LINE",
"552 111 OFFCURVE",
"460 47 OFFCURVE",
"341 47 CURVE SMOOTH",
"228 47 OFFCURVE",
"132 126 OFFCURVE",
"132 267 CURVE SMOOTH",
"132 459 OFFCURVE",
"274 653 OFFCURVE",
"469 653 CURVE SMOOTH",
"571 653 OFFCURVE",
"636 595 OFFCURVE",
"660 512 CURVE",
"636 527 LINE",
"745 585 LINE",
"717 542 LINE",
"695 630 OFFCURVE",
"612 708 OFFCURVE",
"479 708 CURVE SMOOTH",
"254 708 OFFCURVE",
"62 496 OFFCURVE",
"62 259 CURVE SMOOTH",
"62 93 OFFCURVE",
"176 -8 OFFCURVE",
"329 -8 CURVE SMOOTH"
);
}
);
};
layerId = "E773EBAE-783E-4D91-931E-4E5C9CF0967C";
paths = (
{
closed = 1;
nodes = (
"494 -8 OFFCURVE",
"609 94 OFFCURVE",
"654 169 CURVE",
"692 351 LINE",
"414 351 LINE",
"403 296 LINE",
"618 296 LINE",
"618 298 LINE",
"622 298 LINE",
"621 294 LINE",
"619 294 LINE",
"596 183 LINE",
"552 111 OFFCURVE",
"450 47 OFFCURVE",
"345 47 CURVE SMOOTH",
"220 47 OFFCURVE",
"132 139 OFFCURVE",
"132 277 CURVE SMOOTH",
"132 469 OFFCURVE",
"264 653 OFFCURVE",
"459 653 CURVE SMOOTH",
"561 653 OFFCURVE",
"636 595 OFFCURVE",
"660 512 CURVE",
"636 527 LINE",
"745 585 LINE",
"717 542 LINE",
"695 630 OFFCURVE",
"602 708 OFFCURVE",
"469 708 CURVE SMOOTH",
"244 708 OFFCURVE",
"62 506 OFFCURVE",
"62 269 CURVE SMOOTH",
"62 106 OFFCURVE",
"168 -8 OFFCURVE",
"337 -8 CURVE SMOOTH"
);
}
);
width = 724;
},
{
background = {
paths = (
{
closed = 1;
nodes = (
"514 -12 OFFCURVE",
"620 79 OFFCURVE",
"676 173 CURVE",
"719 378 LINE",
"420 378 LINE",
"398 273 LINE",
"578 273 LINE",
"578 275 LINE",
"582 275 LINE",
"581 271 LINE",
"579 271 LINE",
"566 207 LINE",
"535 153 OFFCURVE",
"473 108 OFFCURVE",
"371 108 CURVE SMOOTH",
"270 108 OFFCURVE",
"204 176 OFFCURVE",
"204 293 CURVE SMOOTH",
"204 448 OFFCURVE",
"294 592 OFFCURVE",
"455 592 CURVE SMOOTH",
"562 592 OFFCURVE",
"613 554 OFFCURVE",
"631 491 CURVE",
"569 485 LINE",
"799 599 LINE",
"747 549 LINE",
"732 614 OFFCURVE",
"635 712 OFFCURVE",
"477 712 CURVE SMOOTH",
"241 712 OFFCURVE",
"59 517 OFFCURVE",
"59 283 CURVE SMOOTH",
"59 129 OFFCURVE",
"169 -12 OFFCURVE",
"350 -12 CURVE SMOOTH"
);
}
);
};
layerId = "C89E7CB9-06CC-4D85-8773-832B05BA201B";
paths = (
{
closed = 1;
nodes = (
"498 -12 OFFCURVE",
"615 71 OFFCURVE",
"672 169 CURVE",
"717 378 LINE",
"424 378 LINE",
"401 268 LINE",
"564 268 LINE",
"564 270 LINE",
"568 270 LINE",
"567 266 LINE",
"565 266 LINE",
"552 203 LINE",
"515 157 OFFCURVE",
"450 108 OFFCURVE",
"360 108 CURVE SMOOTH",
"261 108 OFFCURVE",
"197 173 OFFCURVE",
"197 281 CURVE SMOOTH",
"197 439 OFFCURVE",
"294 592 OFFCURVE",
"453 592 CURVE SMOOTH",
"533 592 OFFCURVE",
"595 555 OFFCURVE",
"615 491 CURVE",
"566 485 LINE",
"792 608 LINE",
"744 548 LINE",
"729 613 OFFCURVE",
"644 712 OFFCURVE",
"479 712 CURVE SMOOTH",
"240 712 OFFCURVE",
"50 504 OFFCURVE",
"50 267 CURVE SMOOTH",
"50 97 OFFCURVE",
"166 -12 OFFCURVE",
"334 -12 CURVE SMOOTH"
);
}
);
width = 734;
}
);
leftMetricsKey = "=O";
rightMetricsKey = "=O";
unicode = 0047;
},
{
color = 7;
glyphname = G.ss16;
lastChange = "2020-05-11 14:45:27 +0000";
layers = (
{
background = {
components = (
{
name = C;
transform = "{1, 0, 0, 1, 11, 0}";
}
);
};
layerId = "E773EBAE-783E-4D91-931E-4E5C9CF0967C";
paths = (
{
closed = 1;
nodes = (
"598 282 LINE",
"598 284 LINE",
"602 284 LINE",
"601 280 LINE",
"599 280 LINE",
"571 151 OFFCURVE",
"438 47 OFFCURVE",
"317 47 CURVE SMOOTH",
"216 47 OFFCURVE",
"129 131 OFFCURVE",
"129 255 CURVE SMOOTH",
"129 448 OFFCURVE",
"255 653 OFFCURVE",
"445 653 CURVE SMOOTH",
"546 653 OFFCURVE",
"621 594 OFFCURVE",
"632 482 CURVE",
"595 524 LINE",
"728 572 LINE",
"693 503 LINE",
"674 625 OFFCURVE",
"591 708 OFFCURVE",
"457 708 CURVE SMOOTH",
"225 708 OFFCURVE",
"59 487 OFFCURVE",
"59 248 CURVE SMOOTH",
"59 103 OFFCURVE",
"165 -8 OFFCURVE",
"305 -8 CURVE SMOOTH",
"422 -8 OFFCURVE",
"517 55 OFFCURVE",
"561 109 CURVE",
"562 113 LINE",
"566 113 LINE",
"565 109 LINE",
"550 0 LINE",
"595 0 LINE",
"666 337 LINE",
"404 337 LINE",
"393 282 LINE"
);
}
);
width = 701;
},
{
background = {
components = (
{
name = C;
transform = "{1, 0, 0, 1, 11, 0}";
}
);
};
layerId = "C89E7CB9-06CC-4D85-8773-832B05BA201B";
paths = (
{
closed = 1;
nodes = (
"536 246 LINE",
"536 248 LINE",
"540 248 LINE",
"540 244 LINE",
"538 244 LINE",
"501 155 OFFCURVE",
"426 112 OFFCURVE",
"344 112 CURVE SMOOTH",
"260 112 OFFCURVE",
"199 178 OFFCURVE",
"199 268 CURVE SMOOTH",
"199 432 OFFCURVE",
"288 596 OFFCURVE",
"446 596 CURVE SMOOTH",
"538 596 OFFCURVE",
"591 545 OFFCURVE",
"602 451 CURVE",
"536 464 LINE",
"777 582 LINE",
"730 518 LINE",
"707 640 OFFCURVE",
"613 716 OFFCURVE",
"472 716 CURVE SMOOTH",
"233 716 OFFCURVE",
"49 501 OFFCURVE",
"49 261 CURVE SMOOTH",
"49 107 OFFCURVE",
"163 -8 OFFCURVE",
"318 -8 CURVE SMOOTH",
"390 -8 OFFCURVE",
"455 16 OFFCURVE",
"511 54 CURVE",
"512 58 LINE",
"516 58 LINE",
"515 54 LINE",
"517 0 LINE",
"611 0 LINE",
"686 356 LINE",
"412 356 LINE",
"389 246 LINE"
);
}
);
width = 708;
}
);
leftMetricsKey = "=O";
rightMetricsKey = "=O";
},
{
color = 6;
glyphname = H;
lastChange = "2020-05-15 09:33:45 +0000";
layers = (
{
background = {
components = (
{
name = m;
transform = "{1, 0, 0, 1, -65, 0}";
}
);
};
layerId = "E773EBAE-783E-4D91-931E-4E5C9CF0967C";
paths = (
{
closed = 1;
nodes = (
"101 0 LINE",
"170 326 LINE",
"170 330 LINE",
"174 330 LINE",
"174 328 LINE",
"555 328 LINE",
"555 330 LINE",
"559 330 LINE",
"559 326 LINE",
"491 0 LINE",
"557 0 LINE",
"705 700 LINE",
"639 700 LINE",
"572 385 LINE",
"572 381 LINE",
"568 381 LINE",
"568 383 LINE",
"187 383 LINE",
"187 381 LINE",
"183 381 LINE",
"183 385 LINE",
"249 700 LINE",
"183 700 LINE",
"35 0 LINE"
);
}
);
width = 703;
},
{
layerId = "C89E7CB9-06CC-4D85-8773-832B05BA201B";
paths = (
{
closed = 1;
nodes = (
"172 0 LINE",
"234 292 LINE",
"234 296 LINE",
"238 296 LINE",
"238 294 LINE",
"509 294 LINE",
"509 296 LINE",
"513 296 LINE",
"513 292 LINE",
"452 0 LINE",
"600 0 LINE",
"748 700 LINE",
"600 700 LINE",
"540 416 LINE",
"540 412 LINE",
"536 412 LINE",
"536 414 LINE",
"264 414 LINE",
"264 412 LINE",
"260 412 LINE",
"260 416 LINE",
"320 700 LINE",
"172 700 LINE",
"24 0 LINE"
);
}
);
width = 737;
}
);
rightMetricsKey = "=|";
unicode = 0048;
},
{
color = 3;
glyphname = Hbar;
lastChange = "2020-05-28 11:52:12 +0000";
layers = (
{
background = {
components = (
{
name = H;
transform = "{1, 0, 0, 1, -2, 0}";
}
);
};
layerId = "E773EBAE-783E-4D91-931E-4E5C9CF0967C";
paths = (
{
closed = 1;
nodes = (
"678 578 LINE",
"678 582 LINE",
"703 700 LINE",
"637 700 LINE",
"612 582 LINE",
"612 578 LINE",
"608 578 LINE",
"608 580 LINE",
"226 580 LINE",
"226 578 LINE",
"222 578 LINE",
"222 582 LINE",
"247 700 LINE",
"181 700 LINE",
"156 582 LINE",
"156 578 LINE",
"152 578 LINE",
"152 580 LINE",
"94 580 LINE",
"82 525 LINE",
"140 525 LINE",
"140 527 LINE",
"144 527 LINE",
"144 523 LINE",
"33 0 LINE",
"99 0 LINE",
"168 326 LINE",
"168 330 LINE",
"172 330 LINE",
"172 328 LINE",
"553 328 LINE",
"553 330 LINE",
"557 330 LINE",
"557 326 LINE",
"489 0 LINE",
"555 0 LINE",
"665 523 LINE",
"665 527 LINE",
"669 527 LINE",
"669 525 LINE",
"728 525 LINE",
"740 580 LINE",
"682 580 LINE",
"682 578 LINE"
);
},
{
closed = 1;
nodes = (
"600 523 LINE",
"570 385 LINE",
"570 381 LINE",
"566 381 LINE",
"566 383 LINE",
"185 383 LINE",
"185 381 LINE",
"181 381 LINE",
"181 385 LINE",
"210 523 LINE",
"210 527 LINE",
"214 527 LINE",
"214 525 LINE",
"596 525 LINE",
"596 527 LINE",
"600 527 LINE"
);
}
);
width = 699;
},
{
background = {
components = (
{
name = H;
transform = "{1, 0, 0, 1, -2, 0}";
}
);
};
layerId = "C89E7CB9-06CC-4D85-8773-832B05BA201B";
paths = (
{
closed = 1;
nodes = (
"730 623 LINE",
"730 627 LINE",
"746 700 LINE",
"598 700 LINE",
"583 627 LINE",
"583 623 LINE",
"579 623 LINE",
"579 625 LINE",
"306 625 LINE",
"306 623 LINE",
"302 623 LINE",
"302 627 LINE",
"318 700 LINE",
"170 700 LINE",
"155 627 LINE",
"155 623 LINE",
"151 623 LINE",
"151 625 LINE",
"93 625 LINE",
"72 525 LINE",
"129 525 LINE",
"129 527 LINE",
"133 527 LINE",
"133 523 LINE",
"22 0 LINE",
"169 0 LINE",
"232 292 LINE",
"232 296 LINE",
"236 296 LINE",
"236 294 LINE",
"507 294 LINE",
"507 296 LINE",
"511 296 LINE",
"511 292 LINE",
"450 0 LINE",
"598 0 LINE",
"708 523 LINE",
"708 527 LINE",
"712 527 LINE",
"712 525 LINE",
"768 525 LINE",
"789 625 LINE",
"734 625 LINE",
"734 623 LINE"
);
},
{
closed = 1;
nodes = (
"561 523 LINE",
"538 416 LINE",
"538 412 LINE",
"534 412 LINE",
"534 414 LINE",
"262 414 LINE",
"262 412 LINE",
"258 412 LINE",
"258 416 LINE",
"281 524 LINE",
"281 527 LINE",
"285 527 LINE",
"285 525 LINE",
"557 525 LINE",
"557 527 LINE",
"561 527 LINE"
);
}
);
width = 730;
}
);
rightMetricsKey = "=|";
unicode = 0126;
},
{
color = 6;
glyphname = I;
lastChange = "2020-04-27 12:31:39 +0000";
layers = (
{
background = {
paths = (
{
closed = 1;
nodes = (
"109 735 LINE",
"109 123 LINE SMOOTH",
"109 36 OFFCURVE",
"147 -3 OFFCURVE",
"233 -3 CURVE SMOOTH",
"247 -3 OFFCURVE",
"266 -1 OFFCURVE",
"276 2 CURVE",
"276 56 LINE",
"270 55 OFFCURVE",
"253 54 OFFCURVE",
"245 54 CURVE SMOOTH",
"192 54 OFFCURVE",
"173 76 OFFCURVE",
"173 138 CURVE SMOOTH",
"173 735 LINE"
);
}
);
};
layerId = "E773EBAE-783E-4D91-931E-4E5C9CF0967C";
paths = (
{
closed = 1;
nodes = (
"101 0 LINE",
"249 700 LINE",
"183 700 LINE",
"35 0 LINE"
);
}
);
width = 247;
},
{
layerId = "C89E7CB9-06CC-4D85-8773-832B05BA201B";
paths = (
{
closed = 1;
nodes = (
"174 0 LINE",
"322 708 LINE",
"174 708 LINE",
"26 0 LINE"
);
}
);
width = 311;
}
);
leftMetricsKey = "=H";
rightMetricsKey = "=|";
unicode = 0049;
},
{
color = 6;
glyphname = J;
lastChange = "2020-05-15 09:38:59 +0000";
layers = (
{
background = {
paths = (
{
closed = 1;
nodes = (
"-86 5 LINE",
"-56 -4 OFFCURVE",
"-13 -9 OFFCURVE",
"6 -9 CURVE SMOOTH",
"174 -9 OFFCURVE",
"271 68 OFFCURVE",
"306 234 CURVE SMOOTH",
"405 700 LINE",
"340 700 LINE",
"239 224 LINE SMOOTH",
"213 102 OFFCURVE",
"131 56 OFFCURVE",
"19 56 CURVE SMOOTH",
"0 56 OFFCURVE",
"-46 60 OFFCURVE",
"-79 74 CURVE",
"2 84 LINE",
"-22 -33 LINE"
);
}
);
};
layerId = "E773EBAE-783E-4D91-931E-4E5C9CF0967C";
paths = (
{
closed = 1;
nodes = (
"-86 7 LINE",
"-67 0 OFFCURVE",
"-34 -8 OFFCURVE",
"9 -8 CURVE SMOOTH",
"168 -8 OFFCURVE",
"270 65 OFFCURVE",
"306 234 CURVE SMOOTH",
"405 700 LINE",
"339 700 LINE",
"237 224 LINE SMOOTH",
"210 98 OFFCURVE",
"131 57 OFFCURVE",
"24 57 CURVE SMOOTH",
"-9 57 OFFCURVE",
"-49 61 OFFCURVE",
"-75 73 CURVE",
"-18 86 LINE",
"-42 -33 LINE"
);
}
);
width = 402;
},
{
background = {
paths = (
{
closed = 1;
nodes = (
"-89 13 LINE",
"-40 -10 OFFCURVE",
"-14 -17 OFFCURVE",
"41 -17 CURVE SMOOTH",
"221 -17 OFFCURVE",
"342 76 OFFCURVE",
"378 244 CURVE SMOOTH",
"475 700 LINE",
"330 700 LINE",
"232 239 LINE SMOOTH",
"214 154 OFFCURVE",
"137 118 OFFCURVE",
"69 118 CURVE SMOOTH",
"41 118 OFFCURVE",
"-10 118 OFFCURVE",
"-77 154 CURVE",
"5 150 LINE",
"-41 -68 LINE"
);
}
);
};
layerId = "C89E7CB9-06CC-4D85-8773-832B05BA201B";
paths = (
{
closed = 1;
nodes = (
"-118 14 LINE",
"-61 -14 OFFCURVE",
"13 -17 OFFCURVE",
"41 -17 CURVE SMOOTH",
"208 -17 OFFCURVE",
"341 72 OFFCURVE",
"377 240 CURVE SMOOTH",
"475 700 LINE",
"326 700 LINE",
"229 240 LINE SMOOTH",
"211 154 OFFCURVE",
"152 123 OFFCURVE",
"58 123 CURVE SMOOTH",
"21 123 OFFCURVE",
"-46 129 OFFCURVE",
"-91 148 CURVE",
"-14 155 LINE",
"-61 -68 LINE"
);
}
);
width = 463;
}
);
rightMetricsKey = "=H";
unicode = 004A;
},
{
color = 6;
glyphname = K;
lastChange = "2020-05-13 10:03:01 +0000";
layers = (
{
background = {
paths = (
{
closed = 1;
nodes = (
"100 0 LINE",
"150 237 LINE",
"150 241 LINE",
"154 241 LINE",
"300 367 LINE",
"300 371 LINE",
"304 371 LINE",
"304 367 LINE",
"487 0 LINE",
"566 0 LINE",
"356 412 LINE",
"353 412 LINE",
"353 416 LINE",
"357 416 LINE",
"685 700 LINE",
"599 700 LINE",
"175 329 LINE",
"175 327 LINE",
"171 327 LINE",
"171 331 LINE",
"249 700 LINE",
"183 700 LINE",
"34 0 LINE"
);
}
);
};
layerId = "E773EBAE-783E-4D91-931E-4E5C9CF0967C";
paths = (
{
closed = 1;
nodes = (
"100 0 LINE",
"151 238 LINE",
"151 242 LINE",
"155 242 LINE",
"303 370 LINE",
"303 374 LINE",
"307 374 LINE",
"307 370 LINE",
"492 0 LINE",
"566 0 LINE",
"354 410 LINE",
"351 410 LINE",
"351 414 LINE",
"355 414 LINE",
"685 700 LINE",
"600 700 LINE",
"176 333 LINE",
"176 331 LINE",
"172 331 LINE",
"172 335 LINE",
"249 700 LINE",
"183 700 LINE",
"34 0 LINE"
);
}
);
width = 632;
},
{
background = {
paths = (
{
closed = 1;
nodes = (
"169 0 LINE",
"209 189 LINE",
"210 193 LINE",
"214 193 LINE",
"339 306 LINE",
"340 310 LINE",
"344 310 LINE",
"343 307 LINE",
"484 0 LINE",
"654 0 LINE",
"457 409 LINE",
"454 409 LINE",
"455 413 LINE",
"459 413 LINE",
"779 700 LINE",
"604 700 LINE",
"254 381 LINE",
"254 379 LINE",
"250 379 LINE",
"250 383 LINE",
"318 700 LINE",
"173 700 LINE",
"24 0 LINE"
);
}
);
};
layerId = "C89E7CB9-06CC-4D85-8773-832B05BA201B";
paths = (
{
closed = 1;
nodes = (
"172 0 LINE",
"213 192 LINE",
"213 196 LINE",
"217 196 LINE",
"341 308 LINE",
"341 311 LINE",
"345 311 LINE",
"345 309 LINE",
"487 0 LINE",
"654 0 LINE",
"453 406 LINE",
"451 406 LINE",
"451 410 LINE",
"455 410 LINE",
"779 700 LINE",
"584 700 LINE",
"261 398 LINE",
"261 396 LINE",
"257 396 LINE",
"257 400 LINE",
"320 700 LINE",
"172 700 LINE",
"24 0 LINE"
);
}
);
width = 711;
}
);
leftMetricsKey = "=H";
unicode = 004B;
},
{
color = 6;
glyphname = L;
lastChange = "2020-04-27 15:38:15 +0000";
layers = (
{
layerId = "E773EBAE-783E-4D91-931E-4E5C9CF0967C";
paths = (
{
closed = 1;
nodes = (
"461 0 LINE",
"474 60 LINE",
"119 60 LINE",
"119 58 LINE",
"115 58 LINE",
"115 62 LINE",
"249 700 LINE",
"183 700 LINE",
"35 0 LINE"
);
}
);
width = 537;
},
{
layerId = "C89E7CB9-06CC-4D85-8773-832B05BA201B";
paths = (
{
closed = 1;
nodes = (
"487 0 LINE",
"514 125 LINE",
"203 125 LINE",
"203 123 LINE",
"199 123 LINE",
"199 127 LINE",
"320 700 LINE",
"172 700 LINE",
"24 0 LINE"
);
}
);
width = 554;
}
);
leftMetricsKey = "=H";
unicode = 004C;
},
{
color = 6;
glyphname = M;
lastChange = "2020-05-21 12:03:39 +0000";
layers = (
{
layerId = "E773EBAE-783E-4D91-931E-4E5C9CF0967C";
paths = (
{
closed = 1;
nodes = (
"95 0 LINE",
"221 592 LINE",
"221 596 LINE",
"225 596 LINE",
"225 592 LINE",
"336 0 LINE",
"402 0 LINE",
"765 591 LINE",
"765 595 LINE",
"769 595 LINE",
"769 591 LINE",
"644 0 LINE",
"705 0 LINE",
"853 700 LINE",
"766 700 LINE",
"385 74 LINE",
"385 70 LINE",
"381 70 LINE",
"381 74 LINE",
"270 700 LINE",
"183 700 LINE",
"34 0 LINE"
);
}
);
width = 851;
},
{
background = {
paths = (
{
closed = 1;
nodes = (
"167 0 LINE",
"261 444 LINE",
"261 448 LINE",
"265 448 LINE",
"265 444 LINE",
"333 0 LINE",
"463 0 LINE",
"721 444 LINE",
"721 448 LINE",
"725 448 LINE",
"725 444 LINE",
"630 0 LINE",
"769 0 LINE",
"917 700 LINE",
"751 700 LINE",
"432 147 LINE",
"432 143 LINE",
"428 143 LINE",
"428 147 LINE",
"345 700 LINE",
"177 700 LINE",
"29 0 LINE"
);
}
);
};
layerId = "C89E7CB9-06CC-4D85-8773-832B05BA201B";
paths = (
{
closed = 1;
nodes = (
"162 0 LINE",
"256 447 LINE",
"256 451 LINE",
"260 451 LINE",
"260 447 LINE",
"334 0 LINE",
"464 0 LINE",
"727 449 LINE",
"727 453 LINE",
"731 453 LINE",
"731 449 LINE",
"635 0 LINE",
"774 0 LINE",
"922 700 LINE",
"759 700 LINE",
"431 141 LINE",
"431 137 LINE",
"427 137 LINE",
"427 141 LINE",
"334 700 LINE",
"172 700 LINE",
"24 0 LINE"
);
}
);
width = 911;
}
);
leftMetricsKey = "=H";
rightMetricsKey = "=|";
unicode = 004D;
},
{
color = 6;
glyphname = N;
lastChange = "2020-04-27 16:21:01 +0000";
layers = (
{
background = {
components = (
{
name = m;
transform = "{1, 0, 0, 1, -69, 0}";
}
);
};
layerId = "E773EBAE-783E-4D91-931E-4E5C9CF0967C";
paths = (
{
closed = 1;
nodes = (
"98 0 LINE",
"224 596 LINE",
"224 600 LINE",
"228 600 LINE",
"228 598 LINE",
"489 0 LINE",
"549 0 LINE",
"697 700 LINE",
"634 700 LINE",
"508 104 LINE",
"508 100 LINE",
"504 100 LINE",
"504 102 LINE",
"243 700 LINE",
"183 700 LINE",
"35 0 LINE"
);
}
);
width = 695;
},
{
layerId = "C89E7CB9-06CC-4D85-8773-832B05BA201B";
paths = (
{
closed = 1;
nodes = (
"167 0 LINE",
"267 475 LINE",
"267 479 LINE",
"271 479 LINE",
"271 477 LINE",
"477 0 LINE",
"604 0 LINE",
"752 700 LINE",
"609 700 LINE",
"509 227 LINE",
"509 223 LINE",
"505 223 LINE",
"505 225 LINE",
"300 700 LINE",
"172 700 LINE",
"24 0 LINE"
);
}
);
width = 741;
}
);
leftMetricsKey = "=H";
rightMetricsKey = "=|";
unicode = 004E;
},
{
color = 6;
glyphname = O;
lastChange = "2020-05-13 11:33:20 +0000";
layers = (
{
background = {
paths = (
{
closed = 1;
nodes = (
"530 -8 OFFCURVE",
"694 205 OFFCURVE",
"694 435 CURVE SMOOTH",
"694 602 OFFCURVE",
"606 708 OFFCURVE",
"453 708 CURVE SMOOTH",
"228 708 OFFCURVE",
"62 501 OFFCURVE",
"62 267 CURVE SMOOTH",
"62 101 OFFCURVE",
"140 -8 OFFCURVE",
"301 -8 CURVE SMOOTH"
);
},
{
closed = 1;
nodes = (
"191 47 OFFCURVE",
"132 134 OFFCURVE",
"132 267 CURVE SMOOTH",
"132 455 OFFCURVE",
"256 653 OFFCURVE",
"439 653 CURVE SMOOTH",
"549 653 OFFCURVE",
"624 571 OFFCURVE",
"624 435 CURVE SMOOTH",
"624 246 OFFCURVE",
"486 47 OFFCURVE",
"308 47 CURVE SMOOTH"
);
}
);
};
layerId = "E773EBAE-783E-4D91-931E-4E5C9CF0967C";
paths = (
{
closed = 1;
nodes = (
"527 -8 OFFCURVE",
"690 216 OFFCURVE",
"690 454 CURVE SMOOTH",
"690 611 OFFCURVE",
"603 708 OFFCURVE",
"449 708 CURVE SMOOTH",
"216 708 OFFCURVE",
"58 484 OFFCURVE",
"58 244 CURVE SMOOTH",
"58 89 OFFCURVE",
"145 -8 OFFCURVE",
"297 -8 CURVE SMOOTH"
);
},
{
closed = 1;
nodes = (
"196 47 OFFCURVE",
"128 121 OFFCURVE",
"128 255 CURVE SMOOTH",
"128 448 OFFCURVE",
"248 653 OFFCURVE",
"437 653 CURVE SMOOTH",
"548 653 OFFCURVE",
"620 580 OFFCURVE",
"620 447 CURVE SMOOTH",
"620 256 OFFCURVE",
"492 47 OFFCURVE",
"306 47 CURVE SMOOTH"
);
}
);
width = 711;
},
{
background = {
paths = (
{
closed = 1;
nodes = (
"509 -12 OFFCURVE",
"674 135 OFFCURVE",
"720 352 CURVE SMOOTH",
"766 568 OFFCURVE",
"662 712 OFFCURVE",
"467 712 CURVE SMOOTH",
"271 712 OFFCURVE",
"106 568 OFFCURVE",
"60 352 CURVE SMOOTH",
"14 135 OFFCURVE",
"118 -12 OFFCURVE",
"313 -12 CURVE SMOOTH"
);
},
{
closed = 1;
nodes = (
"220 108 OFFCURVE",
"177 197 OFFCURVE",
"210 352 CURVE SMOOTH",
"243 505 OFFCURVE",
"320 592 OFFCURVE",
"441 592 CURVE SMOOTH",
"560 592 OFFCURVE",
"603 506 OFFCURVE",
"570 352 CURVE SMOOTH",
"537 197 OFFCURVE",
"459 108 OFFCURVE",
"339 108 CURVE SMOOTH"
);
}
);
};
layerId = "C89E7CB9-06CC-4D85-8773-832B05BA201B";
paths = (
{
closed = 1;
nodes = (
"549 -12 OFFCURVE",
"729 203 OFFCURVE",
"729 446 CURVE SMOOTH",
"729 609 OFFCURVE",
"630 712 OFFCURVE",
"465 712 CURVE SMOOTH",
"228 712 OFFCURVE",
"48 498 OFFCURVE",
"48 256 CURVE SMOOTH",
"48 93 OFFCURVE",
"148 -12 OFFCURVE",
"313 -12 CURVE SMOOTH"
);
},
{
closed = 1;
nodes = (
"245 108 OFFCURVE",
"198 163 OFFCURVE",
"198 263 CURVE SMOOTH",
"198 431 OFFCURVE",
"284 593 OFFCURVE",
"439 593 CURVE SMOOTH",
"532 593 OFFCURVE",
"579 539 OFFCURVE",
"579 443 CURVE SMOOTH",
"579 275 OFFCURVE",
"494 108 OFFCURVE",
"335 108 CURVE SMOOTH"
);
}
);
width = 742;
}
);
rightMetricsKey = "=|";
unicode = 004F;
},
{
color = 6;
glyphname = P;
lastChange = "2020-05-11 14:45:27 +0000";
layers = (
{
background = {
paths = (
{
closed = 1;
nodes = (
"565 700 LINE",
"565 385 LINE",
"567 385 LINE",
"567 381 LINE",
"565 381 LINE",
"565 330 LINE",
"567 330 LINE",
"567 326 LINE",
"565 326 LINE",
"565 0 LINE",
"630 0 LINE",
"630 700 LINE"
);
},
{
closed = 1;
nodes = (
"110 0 LINE",
"195 0 LINE",
"195 264 LINE",
"193 264 LINE",
"193 268 LINE",
"195 268 LINE",
"195 339 LINE",
"193 339 LINE",
"193 343 LINE",
"195 343 LINE",
"195 623 LINE",
"193 623 LINE",
"193 627 LINE",
"195 627 LINE",
"195 700 LINE",
"110 700 LINE"
);
},
{
closed = 1;
nodes = (
"136 700 LINE",
"136 625 LINE",
"193 625 LINE",
"193 627 LINE",
"197 627 LINE",
"197 625 LINE",
"340 625 LINE SMOOTH",
"430 625 OFFCURVE",
"485 578 OFFCURVE",
"485 478 CURVE SMOOTH",
"485 396 OFFCURVE",
"430 341 OFFCURVE",
"345 341 CURVE SMOOTH",
"197 341 LINE",
"197 339 LINE",
"193 339 LINE",
"193 341 LINE",
"136 341 LINE",
"136 266 LINE",
"193 266 LINE",
"193 268 LINE",
"197 268 LINE",
"197 266 LINE",
"365 266 LINE SMOOTH",
"483 266 OFFCURVE",
"575 352 OFFCURVE",
"575 478 CURVE SMOOTH",
"575 616 OFFCURVE",
"483 700 OFFCURVE",
"360 700 CURVE SMOOTH"
);
}
);
};
guideLines = (
{
angle = 90;
position = "{338, -9}";
}
);
layerId = "E773EBAE-783E-4D91-931E-4E5C9CF0967C";
paths = (
{
closed = 1;
nodes = (
"101 0 LINE",
"159 274 LINE",
"159 278 LINE",
"163 278 LINE",
"163 276 LINE",
"356 276 LINE SMOOTH",
"487 276 OFFCURVE",
"607 382 OFFCURVE",
"607 511 CURVE SMOOTH",
"607 603 OFFCURVE",
"546 700 OFFCURVE",
"421 700 CURVE SMOOTH",
"183 700 LINE",
"35 0 LINE"
);
},
{
closed = 1;
nodes = (
"172 333 LINE",
"237 643 LINE",
"237 647 LINE",
"241 647 LINE",
"241 645 LINE",
"408 645 LINE SMOOTH",
"501 645 OFFCURVE",
"537 575 OFFCURVE",
"537 510 CURVE SMOOTH",
"537 409 OFFCURVE",
"452 331 OFFCURVE",
"342 331 CURVE SMOOTH",
"176 331 LINE",
"176 329 LINE",
"172 329 LINE"
);
}
);
width = 609;
},
{
layerId = "C89E7CB9-06CC-4D85-8773-832B05BA201B";
paths = (
{
closed = 1;
nodes = (
"172 0 LINE",
"217 214 LINE",
"217 218 LINE",
"221 218 LINE",
"221 216 LINE",
"369 216 LINE SMOOTH",
"527 216 OFFCURVE",
"668 336 OFFCURVE",
"668 486 CURVE SMOOTH",
"668 597 OFFCURVE",
"589 700 OFFCURVE",
"452 700 CURVE SMOOTH",
"172 700 LINE",
"24 0 LINE"
);
},
{
closed = 1;
nodes = (
"243 333 LINE",
"294 578 LINE",
"294 582 LINE",
"298 582 LINE",
"298 580 LINE",
"410 580 LINE SMOOTH",
"484 580 OFFCURVE",
"518 535 OFFCURVE",
"518 479 CURVE SMOOTH",
"518 399 OFFCURVE",
"447 331 OFFCURVE",
"357 331 CURVE SMOOTH",
"247 331 LINE",
"247 329 LINE",
"243 329 LINE"
);
}
);
width = 667;
}
);
leftMetricsKey = "=H";
rightMetricsKey = "=O";
unicode = 0050;
},
{
color = 6;
glyphname = Q;
lastChange = "2020-05-11 14:45:27 +0000";
layers = (
{
background = {
components = (
{
name = O;
transform = "{1, 0, 0, 1, 10, 0}";
}
);
};
layerId = "E773EBAE-783E-4D91-931E-4E5C9CF0967C";
paths = (
{
closed = 1;
nodes = (
"513 -37 LINE",
"518 -58 LINE",
"488 -71 OFFCURVE",
"427 -79 OFFCURVE",
"384 -79 CURVE SMOOTH",
"340 -79 OFFCURVE",
"324 -65 OFFCURVE",
"324 -34 CURVE SMOOTH",
"324 -27 OFFCURVE",
"327 -14 OFFCURVE",
"328 -10 CURVE",
"326 -10 LINE",
"326 -6 LINE",
"529 7 OFFCURVE",
"690 216 OFFCURVE",
"690 455 CURVE SMOOTH",
"690 611 OFFCURVE",
"603 708 OFFCURVE",
"450 708 CURVE SMOOTH",
"216 708 OFFCURVE",
"58 484 OFFCURVE",
"58 244 CURVE SMOOTH",
"58 89 OFFCURVE",
"145 2 OFFCURVE",
"269 -6 CURVE",
"269 -10 LINE",
"266 -10 LINE",
"261 -23 OFFCURVE",
"256 -46 OFFCURVE",
"256 -58 CURVE SMOOTH",
"256 -116 OFFCURVE",
"308 -142 OFFCURVE",
"366 -142 CURVE SMOOTH",
"427 -142 OFFCURVE",
"476 -129 OFFCURVE",
"507 -114 CURVE",
"489 -145 LINE"
);
},
{
closed = 1;
nodes = (
"196 47 OFFCURVE",
"128 121 OFFCURVE",
"128 256 CURVE SMOOTH",
"128 448 OFFCURVE",
"248 653 OFFCURVE",
"438 653 CURVE SMOOTH",
"548 653 OFFCURVE",
"620 580 OFFCURVE",
"620 451 CURVE SMOOTH",
"620 256 OFFCURVE",
"492 47 OFFCURVE",
"306 47 CURVE SMOOTH"
);
}
);
width = 711;
},
{
background = {
components = (
{
name = O;
transform = "{1, 0, 0, 1, 11, 0}";
}
);
};
layerId = "C89E7CB9-06CC-4D85-8773-832B05BA201B";
paths = (
{
closed = 1;
nodes = (
"592 23 LINE",
"612 -20 LINE",
"565 -44 OFFCURVE",
"492 -60 OFFCURVE",
"437 -60 CURVE SMOOTH",
"402 -60 OFFCURVE",
"381 -52 OFFCURVE",
"374 -33 CURVE SMOOTH",
"371 -27 OFFCURVE",
"370 -21 OFFCURVE",
"370 -12 CURVE",
"368 -12 LINE",
"368 -8 LINE",
"557 20 OFFCURVE",
"730 204 OFFCURVE",
"730 445 CURVE SMOOTH",
"730 610 OFFCURVE",
"630 712 OFFCURVE",
"466 712 CURVE SMOOTH",
"228 712 OFFCURVE",
"49 495 OFFCURVE",
"49 258 CURVE SMOOTH",
"49 93 OFFCURVE",
"142 11 OFFCURVE",
"258 -8 CURVE",
"258 -12 LINE",
"255 -12 LINE",
"252 -21 OFFCURVE",
"248 -37 OFFCURVE",
"248 -54 CURVE SMOOTH",
"248 -134 OFFCURVE",
"309 -174 OFFCURVE",
"386 -174 CURVE SMOOTH",
"456 -174 OFFCURVE",
"524 -156 OFFCURVE",
"593 -122 CURVE",
"542 -196 LINE"
);
},
{
closed = 1;
nodes = (
"245 108 OFFCURVE",
"199 163 OFFCURVE",
"199 263 CURVE SMOOTH",
"199 431 OFFCURVE",
"285 593 OFFCURVE",
"441 593 CURVE SMOOTH",
"533 593 OFFCURVE",
"580 539 OFFCURVE",
"580 442 CURVE SMOOTH",
"580 275 OFFCURVE",
"494 108 OFFCURVE",
"335 108 CURVE SMOOTH"
);
}
);
width = 743;
}
);
leftMetricsKey = "=O";
rightMetricsKey = "=|";
unicode = 0051;
},
{
color = 7;
glyphname = Q.ss05;
lastChange = "2020-05-11 14:45:27 +0000";
layers = (
{
background = {
components = (
{
name = O;
transform = "{1, 0, 0, 1, 10, 0}";
}
);
};
layerId = "E773EBAE-783E-4D91-931E-4E5C9CF0967C";
paths = (
{
closed = 1;
nodes = (
"556 -79 LINE",
"473 38 LINE",
"470 38 LINE",
"470 42 LINE",
"473 42 LINE",
"540 74 OFFCURVE",
"690 216 OFFCURVE",
"690 454 CURVE SMOOTH",
"690 617 OFFCURVE",
"603 708 OFFCURVE",
"448 708 CURVE SMOOTH",
"216 708 OFFCURVE",
"58 484 OFFCURVE",
"58 244 CURVE SMOOTH",
"58 89 OFFCURVE",
"145 -8 OFFCURVE",
"297 -8 CURVE SMOOTH",
"341 -8 OFFCURVE",
"377 0 OFFCURVE",
"409 13 CURVE",
"409 15 LINE",
"413 15 LINE",
"413 11 LINE",
"476 -79 LINE"
);
},
{
closed = 1;
nodes = (
"196 47 OFFCURVE",
"128 121 OFFCURVE",
"128 255 CURVE SMOOTH",
"128 448 OFFCURVE",
"248 653 OFFCURVE",
"437 653 CURVE SMOOTH",
"548 653 OFFCURVE",
"620 581 OFFCURVE",
"620 447 CURVE SMOOTH",
"620 256 OFFCURVE",
"506 121 OFFCURVE",
"439 87 CURVE",
"439 85 LINE",
"435 85 LINE",
"435 89 LINE",
"374 178 LINE",
"300 178 LINE",
"379 62 LINE",
"383 62 LINE",
"383 58 LINE",
"379 58 LINE",
"360 52 OFFCURVE",
"335 47 OFFCURVE",
"306 47 CURVE SMOOTH"
);
}
);
width = 711;
},
{
background = {
components = (
{
name = O;
transform = "{1, 0, 0, 1, 10, 0}";
}
);
};
layerId = "C89E7CB9-06CC-4D85-8773-832B05BA201B";
paths = (
{
closed = 1;
nodes = (
"638 -77 LINE",
"542 62 LINE",
"539 62 LINE",
"539 66 LINE",
"542 66 LINE",
"653 146 OFFCURVE",
"731 288 OFFCURVE",
"731 435 CURVE SMOOTH",
"731 610 OFFCURVE",
"627 712 OFFCURVE",
"466 712 CURVE SMOOTH",
"234 712 OFFCURVE",
"51 506 OFFCURVE",
"51 270 CURVE SMOOTH",
"51 99 OFFCURVE",
"143 -12 OFFCURVE",
"312 -12 CURVE SMOOTH",
"350 -12 OFFCURVE",
"387 -5 OFFCURVE",
"423 6 CURVE",
"423 8 LINE",
"427 8 LINE",
"427 4 LINE",
"472 -77 LINE"
);
},
{
closed = 1;
nodes = (
"248 108 OFFCURVE",
"201 162 OFFCURVE",
"201 275 CURVE SMOOTH",
"201 434 OFFCURVE",
"286 592 OFFCURVE",
"440 592 CURVE SMOOTH",
"531 592 OFFCURVE",
"581 539 OFFCURVE",
"581 427 CURVE SMOOTH",
"581 329 OFFCURVE",
"540 217 OFFCURVE",
"476 161 CURVE",
"476 157 LINE",
"472 157 LINE",
"472 161 LINE",
"427 231 LINE",
"292 231 LINE",
"363 112 LINE",
"367 112 LINE",
"367 108 LINE",
"363 108 LINE",
"357 108 OFFCURVE",
"347 108 OFFCURVE",
"338 108 CURVE SMOOTH"
);
}
);
width = 751;
}
);
leftMetricsKey = "=O";
rightMetricsKey = "=|";
},
{
color = 6;
glyphname = R;
lastChange = "2020-05-21 16:31:28 +0000";
layers = (
{
background = {
paths = (
{
closed = 1;
nodes = (
"160 280 LINE",
"160 282 LINE",
"164 282 LINE",
"164 280 LINE",
"372 280 LINE",
"372 282 LINE",
"376 282 LINE",
"376 280 LINE",
"436 290 LINE",
"436 293 LINE",
"440 293 LINE",
"440 291 LINE",
"538 323 OFFCURVE",
"613 420 OFFCURVE",
"613 524 CURVE SMOOTH",
"613 615 OFFCURVE",
"562 700 OFFCURVE",
"439 700 CURVE SMOOTH",
"198 700 LINE",
"188 645 LINE",
"225 645 LINE",
"225 647 LINE",
"229 647 LINE",
"229 645 LINE",
"408 645 LINE SMOOTH",
"501 645 OFFCURVE",
"542 584 OFFCURVE",
"542 519 CURVE SMOOTH",
"542 418 OFFCURVE",
"463 335 OFFCURVE",
"353 335 CURVE SMOOTH",
"174 335 LINE",
"173 333 LINE",
"169 333 LINE",
"170 335 LINE",
"133 335 LINE",
"123 280 LINE"
);
},
{
closed = 1;
nodes = (
"113 0 LINE",
"162 278 LINE",
"160 278 LINE",
"160 282 LINE",
"162 282 LINE",
"171 333 LINE",
"169 333 LINE",
"170 337 LINE",
"172 337 LINE",
"227 643 LINE",
"225 643 LINE",
"225 647 LINE",
"227 647 LINE",
"237 700 LINE",
"172 700 LINE",
"48 0 LINE"
);
},
{
closed = 1;
nodes = (
"553 0 LINE",
"438 289 LINE",
"436 289 LINE",
"436 293 LINE",
"438 293 LINE",
"427 324 LINE",
"370 293 LINE",
"374 282 LINE",
"376 282 LINE",
"376 278 LINE",
"374 278 LINE",
"478 0 LINE"
);
}
);
};
layerId = "E773EBAE-783E-4D91-931E-4E5C9CF0967C";
paths = (
{
closed = 1;
nodes = (
"101 0 LINE",
"162 288 LINE",
"162 292 LINE",
"166 292 LINE",
"166 290 LINE",
"370 290 LINE",
"374 290 LINE",
"374 286 LINE",
"472 1 LINE",
"542 1 LINE",
"435 293 LINE",
"433 293 LINE",
"433 297 LINE",
"437 297 LINE",
"537 329 OFFCURVE",
"618 415 OFFCURVE",
"618 525 CURVE SMOOTH",
"618 615 OFFCURVE",
"563 700 OFFCURVE",
"440 700 CURVE SMOOTH",
"183 700 LINE",
"35 0 LINE"
);
},
{
closed = 1;
nodes = (
"175 347 LINE",
"237 643 LINE",
"237 647 LINE",
"241 647 LINE",
"241 645 LINE",
"419 645 LINE SMOOTH",
"512 645 OFFCURVE",
"548 584 OFFCURVE",
"548 520 CURVE SMOOTH",
"548 422 OFFCURVE",
"466 345 OFFCURVE",
"356 345 CURVE SMOOTH",
"179 345 LINE",
"179 343 LINE",
"175 343 LINE"
);
}
);
width = 628;
},
{
background = {
paths = (
{
closed = 1;
nodes = (
"172 0 LINE",
"222 234 LINE",
"222 238 LINE",
"226 238 LINE",
"226 236 LINE",
"367 236 LINE",
"371 236 LINE",
"371 232 LINE",
"441 0 LINE",
"589 0 LINE",
"505 254 LINE",
"503 254 LINE",
"503 258 LINE",
"507 258 LINE",
"605 302 OFFCURVE",
"677 387 OFFCURVE",
"677 501 CURVE SMOOTH",
"677 608 OFFCURVE",
"599 700 OFFCURVE",
"462 700 CURVE SMOOTH",
"172 700 LINE",
"24 0 LINE"
);
},
{
closed = 1;
nodes = (
"247 353 LINE",
"294 578 LINE",
"294 582 LINE",
"298 582 LINE",
"298 580 LINE",
"420 580 LINE SMOOTH",
"493 580 OFFCURVE",
"528 541 OFFCURVE",
"528 489 CURVE SMOOTH",
"528 406 OFFCURVE",
"463 351 OFFCURVE",
"371 351 CURVE SMOOTH",
"251 351 LINE",
"251 349 LINE",
"247 349 LINE"
);
}
);
};
layerId = "C89E7CB9-06CC-4D85-8773-832B05BA201B";
paths = (
{
closed = 1;
nodes = (
"172 0 LINE",
"222 234 LINE",
"222 238 LINE",
"226 238 LINE",
"226 236 LINE",
"366 236 LINE",
"370 236 LINE",
"370 232 LINE",
"438 0 LINE",
"591 0 LINE",
"505 254 LINE",
"503 254 LINE",
"503 258 LINE",
"507 258 LINE",
"605 302 OFFCURVE",
"677 387 OFFCURVE",
"677 496 CURVE SMOOTH",
"677 608 OFFCURVE",
"599 700 OFFCURVE",
"462 700 CURVE SMOOTH",
"172 700 LINE",
"24 0 LINE"
);
},
{
closed = 1;
nodes = (
"247 353 LINE",
"294 578 LINE",
"294 582 LINE",
"298 582 LINE",
"298 580 LINE",
"420 580 LINE SMOOTH",
"493 580 OFFCURVE",
"528 541 OFFCURVE",
"528 484 CURVE SMOOTH",
"528 406 OFFCURVE",
"463 351 OFFCURVE",
"371 351 CURVE SMOOTH",
"251 351 LINE",
"251 349 LINE",
"247 349 LINE"
);
}
);
width = 668;
}
);
leftMetricsKey = "=H";
unicode = 0052;
},
{
color = 7;
glyphname = R.ss17;
lastChange = "2020-04-30 08:36:29 +0000";
layers = (
{
background = {
components = (
{
name = R;
}
);
};
layerId = "E773EBAE-783E-4D91-931E-4E5C9CF0967C";
paths = (
{
closed = 1;
nodes = (
"568 -4 OFFCURVE",
"605 21 OFFCURVE",
"618 62 CURVE",
"618 19 LINE",
"592 97 LINE",
"614 94 LINE",
"597 68 OFFCURVE",
"574 51 OFFCURVE",
"552 51 CURVE SMOOTH",
"534 51 OFFCURVE",
"517 63 OFFCURVE",
"507 91 CURVE SMOOTH",
"435 293 LINE",
"433 293 LINE",
"433 297 LINE",
"437 297 LINE",
"537 329 OFFCURVE",
"618 415 OFFCURVE",
"618 525 CURVE SMOOTH",
"618 615 OFFCURVE",
"563 700 OFFCURVE",
"440 700 CURVE SMOOTH",
"183 700 LINE",
"35 0 LINE",
"101 0 LINE",
"162 288 LINE",
"162 292 LINE",
"166 292 LINE",
"166 290 LINE",
"370 290 LINE",
"374 290 LINE",
"374 286 LINE",
"455 58 LINE SMOOTH",
"470 15 OFFCURVE",
"500 -4 OFFCURVE",
"531 -4 CURVE SMOOTH"
);
},
{
closed = 1;
nodes = (
"175 347 LINE",
"237 643 LINE",
"237 647 LINE",
"241 647 LINE",
"241 645 LINE",
"419 645 LINE SMOOTH",
"512 645 OFFCURVE",
"548 584 OFFCURVE",
"548 520 CURVE SMOOTH",
"548 422 OFFCURVE",
"466 345 OFFCURVE",
"356 345 CURVE SMOOTH",
"179 345 LINE",
"179 343 LINE",
"175 343 LINE"
);
}
);
width = 647;
},
{
background = {
components = (
{
name = R;
}
);
};
layerId = "C89E7CB9-06CC-4D85-8773-832B05BA201B";
paths = (
{
closed = 1;
nodes = (
"591 -13 OFFCURVE",
"656 32 OFFCURVE",
"668 114 CURVE",
"683 25 LINE",
"613 173 LINE",
"675 166 LINE",
"649 129 OFFCURVE",
"611 107 OFFCURVE",
"581 107 CURVE SMOOTH",
"557 107 OFFCURVE",
"546 132 OFFCURVE",
"536 159 CURVE SMOOTH",
"500 254 LINE",
"498 254 LINE",
"498 258 LINE",
"502 258 LINE",
"604 297 OFFCURVE",
"677 387 OFFCURVE",
"677 496 CURVE SMOOTH",
"677 608 OFFCURVE",
"599 700 OFFCURVE",
"462 700 CURVE SMOOTH",
"172 700 LINE",
"24 0 LINE",
"172 0 LINE",
"222 234 LINE",
"222 238 LINE",
"226 238 LINE",
"226 236 LINE",
"367 236 LINE",
"371 236 LINE",
"371 232 LINE",
"427 65 LINE SMOOTH",
"445 12 OFFCURVE",
"485 -13 OFFCURVE",
"529 -13 CURVE SMOOTH"
);
},
{
closed = 1;
nodes = (
"247 353 LINE",
"294 577 LINE",
"294 582 LINE",
"298 582 LINE",
"298 580 LINE",
"420 580 LINE SMOOTH",
"493 580 OFFCURVE",
"528 541 OFFCURVE",
"528 484 CURVE SMOOTH",
"528 406 OFFCURVE",
"463 351 OFFCURVE",
"371 351 CURVE SMOOTH",
"251 351 LINE",
"251 349 LINE",
"247 349 LINE"
);
}
);
width = 688;
}
);
leftMetricsKey = "=H";
rightMetricsKey = "=-10";
},
{
color = 6;
glyphname = S;
lastChange = "2020-05-15 09:44:29 +0000";
layers = (
{
background = {
paths = (
{
closed = 1;
nodes = (
"1412 -8 OFFCURVE",
"1555 77 OFFCURVE",
"1555 216 CURVE SMOOTH",
"1555 314 OFFCURVE",
"1489 352 OFFCURVE",
"1386 381 CURVE SMOOTH",
"1297 406 LINE SMOOTH",
"1229 425 OFFCURVE",
"1183 450 OFFCURVE",
"1183 513 CURVE SMOOTH",
"1183 591 OFFCURVE",
"1266 648 OFFCURVE",
"1377 648 CURVE SMOOTH",
"1484 648 OFFCURVE",
"1539 594 OFFCURVE",
"1561 520 CURVE",
"1512 545 LINE",
"1626 611 LINE",
"1615 558 LINE",
"1586 641 OFFCURVE",
"1511 708 OFFCURVE",
"1387 708 CURVE SMOOTH",
"1246 708 OFFCURVE",
"1118 624 OFFCURVE",
"1118 499 CURVE SMOOTH",
"1118 416 OFFCURVE",
"1184 370 OFFCURVE",
"1280 343 CURVE SMOOTH",
"1365 319 LINE SMOOTH",
"1441 298 OFFCURVE",
"1485 271 OFFCURVE",
"1485 208 CURVE SMOOTH",
"1485 106 OFFCURVE",
"1375 52 OFFCURVE",
"1273 52 CURVE SMOOTH",
"1164 52 OFFCURVE",
"1088 118 OFFCURVE",
"1067 190 CURVE",
"1111 185 LINE",
"989 116 LINE",
"1011 163 LINE",
"1040 71 OFFCURVE",
"1124 -8 OFFCURVE",
"1263 -8 CURVE SMOOTH"
);
},
{
closed = 1;
nodes = (
"418 -8 OFFCURVE",
"559 84 OFFCURVE",
"559 231 CURVE SMOOTH",
"559 312 OFFCURVE",
"496 355 OFFCURVE",
"402 381 CURVE SMOOTH",
"312 406 LINE SMOOTH",
"248 424 OFFCURVE",
"204 450 OFFCURVE",
"204 502 CURVE SMOOTH",
"204 592 OFFCURVE",
"295 648 OFFCURVE",
"401 648 CURVE SMOOTH",
"506 648 OFFCURVE",
"562 594 OFFCURVE",
"582 520 CURVE",
"533 546 LINE",
"653 611 LINE",
"638 558 LINE",
"614 641 OFFCURVE",
"537 708 OFFCURVE",
"414 708 CURVE SMOOTH",
"271 708 OFFCURVE",
"138 618 OFFCURVE",
"138 487 CURVE SMOOTH",
"138 411 OFFCURVE",
"200 367 OFFCURVE",
"292 342 CURVE SMOOTH",
"385 317 LINE SMOOTH",
"450 300 OFFCURVE",
"489 270 OFFCURVE",
"489 219 CURVE SMOOTH",
"489 117 OFFCURVE",
"388 52 OFFCURVE",
"277 52 CURVE SMOOTH",
"168 52 OFFCURVE",
"90 121 OFFCURVE",
"73 193 CURVE",
"116 185 LINE",
"-13 116 LINE",
"13 163 LINE",
"37 71 OFFCURVE",
"124 -8 OFFCURVE",
"263 -8 CURVE SMOOTH"
);
}
);
};
guideLines = (
{
angle = 270;
position = "{311, 677}";
}
);
layerId = "E773EBAE-783E-4D91-931E-4E5C9CF0967C";
paths = (
{
closed = 1;
nodes = (
"426 -8 OFFCURVE",
"559 88 OFFCURVE",
"559 225 CURVE SMOOTH",
"559 316 OFFCURVE",
"496 355 OFFCURVE",
"402 381 CURVE SMOOTH",
"312 406 LINE SMOOTH",
"248 424 OFFCURVE",
"204 447 OFFCURVE",
"204 505 CURVE SMOOTH",
"204 589 OFFCURVE",
"290 648 OFFCURVE",
"396 648 CURVE SMOOTH",
"501 648 OFFCURVE",
"562 594 OFFCURVE",
"582 520 CURVE",
"533 546 LINE",
"653 611 LINE",
"638 558 LINE",
"614 641 OFFCURVE",
"530 708 OFFCURVE",
"407 708 CURVE SMOOTH",
"264 708 OFFCURVE",
"138 618 OFFCURVE",
"138 495 CURVE SMOOTH",
"138 411 OFFCURVE",
"200 367 OFFCURVE",
"292 342 CURVE SMOOTH",
"385 317 LINE SMOOTH",
"450 300 OFFCURVE",
"489 275 OFFCURVE",
"489 216 CURVE SMOOTH",
"489 120 OFFCURVE",
"391 52 OFFCURVE",
"280 52 CURVE SMOOTH",
"171 52 OFFCURVE",
"90 121 OFFCURVE",
"73 193 CURVE",
"116 185 LINE",
"-13 116 LINE",
"13 163 LINE",
"37 71 OFFCURVE",
"132 -8 OFFCURVE",
"271 -8 CURVE SMOOTH"
);
}
);
width = 622;
},
{
background = {
paths = (
{
closed = 1;
nodes = (
"1151 -12 OFFCURVE",
"1291 75 OFFCURVE",
"1291 217 CURVE SMOOTH",
"1291 326 OFFCURVE",
"1203 375 OFFCURVE",
"1113 402 CURVE SMOOTH",
"1029 427 LINE SMOOTH",
"956 449 OFFCURVE",
"932 472 OFFCURVE",
"932 508 CURVE SMOOTH",
"932 559 OFFCURVE",
"977 592 OFFCURVE",
"1063 592 CURVE SMOOTH",
"1153 592 OFFCURVE",
"1223 540 OFFCURVE",
"1244 482 CURVE",
"1170 482 LINE",
"1402 604 LINE",
"1353 535 LINE",
"1341 584 OFFCURVE",
"1254 712 OFFCURVE",
"1078 712 CURVE SMOOTH",
"918 712 OFFCURVE",
"793 619 OFFCURVE",
"793 493 CURVE SMOOTH",
"793 401 OFFCURVE",
"846 340 OFFCURVE",
"945 310 CURVE SMOOTH",
"1055 277 LINE SMOOTH",
"1125 256 OFFCURVE",
"1150 243 OFFCURVE",
"1150 197 CURVE SMOOTH",
"1150 142 OFFCURVE",
"1066 108 OFFCURVE",
"998 108 CURVE SMOOTH",
"917 108 OFFCURVE",
"854 150 OFFCURVE",
"808 240 CURVE",
"861 223 LINE",
"669 113 LINE",
"697 165 LINE",
"759 49 OFFCURVE",
"839 -12 OFFCURVE",
"986 -12 CURVE SMOOTH"
);
},
{
closed = 1;
nodes = (
"444 -12 OFFCURVE",
"596 90 OFFCURVE",
"596 241 CURVE SMOOTH",
"596 321 OFFCURVE",
"538 376 OFFCURVE",
"442 401 CURVE SMOOTH",
"325 432 LINE SMOOTH",
"295 440 OFFCURVE",
"242 461 OFFCURVE",
"242 504 CURVE SMOOTH",
"242 559 OFFCURVE",
"308 592 OFFCURVE",
"383 592 CURVE SMOOTH",
"477 592 OFFCURVE",
"529 547 OFFCURVE",
"542 482 CURVE",
"477 489 LINE",
"695 609 LINE",
"660 535 LINE",
"648 597 OFFCURVE",
"587 712 OFFCURVE",
"409 712 CURVE SMOOTH",
"250 712 OFFCURVE",
"104 610 OFFCURVE",
"104 470 CURVE SMOOTH",
"104 394 OFFCURVE",
"161 339 OFFCURVE",
"258 311 CURVE SMOOTH",
"391 273 LINE SMOOTH",
"413 267 OFFCURVE",
"453 250 OFFCURVE",
"453 211 CURVE SMOOTH",
"453 146 OFFCURVE",
"377 108 OFFCURVE",
"293 108 CURVE SMOOTH",
"206 108 OFFCURVE",
"146 150 OFFCURVE",
"119 247 CURVE",
"188 238 LINE",
"-42 109 LINE",
"2 164 LINE",
"52 45 OFFCURVE",
"146 -12 OFFCURVE",
"278 -12 CURVE SMOOTH"
);
}
);
};
guideLines = (
{
angle = 270;
position = "{310, 652}";
}
);
layerId = "C89E7CB9-06CC-4D85-8773-832B05BA201B";
paths = (
{
closed = 1;
nodes = (
"459 -12 OFFCURVE",
"596 93 OFFCURVE",
"596 235 CURVE SMOOTH",
"596 324 OFFCURVE",
"538 376 OFFCURVE",
"442 401 CURVE SMOOTH",
"325 432 LINE SMOOTH",
"295 440 OFFCURVE",
"242 458 OFFCURVE",
"242 506 CURVE SMOOTH",
"242 557 OFFCURVE",
"301 592 OFFCURVE",
"379 592 CURVE SMOOTH",
"470 592 OFFCURVE",
"529 547 OFFCURVE",
"542 482 CURVE",
"477 489 LINE",
"695 609 LINE",
"660 535 LINE",
"648 597 OFFCURVE",
"576 712 OFFCURVE",
"398 712 CURVE SMOOTH",
"239 712 OFFCURVE",
"104 609 OFFCURVE",
"104 478 CURVE SMOOTH",
"104 393 OFFCURVE",
"161 339 OFFCURVE",
"258 311 CURVE SMOOTH",
"391 273 LINE SMOOTH",
"413 267 OFFCURVE",
"453 252 OFFCURVE",
"453 206 CURVE SMOOTH",
"453 147 OFFCURVE",
"387 108 OFFCURVE",
"303 108 CURVE SMOOTH",
"216 108 OFFCURVE",
"146 150 OFFCURVE",
"119 247 CURVE",
"188 238 LINE",
"-42 109 LINE",
"2 164 LINE",
"52 45 OFFCURVE",
"161 -12 OFFCURVE",
"293 -12 CURVE SMOOTH"
);
}
);
width = 648;
}
);
rightMetricsKey = "=|";
unicode = 0053;
},
{
color = 6;
glyphname = T;
lastChange = "2020-04-27 16:58:53 +0000";
layers = (
{
background = {
paths = (
{
closed = 1;
nodes = (
"64 328 LINE",
"101 328 LINE",
"101 330 LINE",
"105 330 LINE",
"105 328 LINE",
"491 328 LINE",
"491 330 LINE",
"495 330 LINE",
"495 328 LINE",
"528 328 LINE",
"528 383 LINE",
"495 383 LINE",
"495 381 LINE",
"491 381 LINE",
"491 383 LINE",
"105 383 LINE",
"105 381 LINE",
"101 381 LINE",
"101 383 LINE",
"64 383 LINE"
);
},
{
closed = 1;
nodes = (
"38 0 LINE",
"103 0 LINE",
"103 326 LINE",
"101 326 LINE",
"101 330 LINE",
"103 330 LINE",
"103 381 LINE",
"101 381 LINE",
"101 385 LINE",
"103 385 LINE",
"103 700 LINE",
"38 700 LINE"
);
},
{
closed = 1;
nodes = (
"493 700 LINE",
"493 385 LINE",
"495 385 LINE",
"495 381 LINE",
"493 381 LINE",
"493 330 LINE",
"495 330 LINE",
"495 326 LINE",
"493 326 LINE",
"493 0 LINE",
"558 0 LINE",
"558 700 LINE"
);
}
);
};
layerId = "E773EBAE-783E-4D91-931E-4E5C9CF0967C";
paths = (
{
closed = 1;
nodes = (
"258 0 LINE",
"393 638 LINE",
"391 638 LINE",
"391 642 LINE",
"395 642 LINE",
"395 640 LINE",
"620 640 LINE",
"633 700 LINE",
"113 700 LINE",
"100 640 LINE",
"325 640 LINE",
"325 642 LINE",
"329 642 LINE",
"329 638 LINE",
"327 638 LINE",
"192 0 LINE"
);
}
);
width = 560;
},
{
background = {
paths = (
{
closed = 1;
nodes = (
"129 296 LINE",
"166 296 LINE",
"166 298 LINE",
"170 298 LINE",
"170 296 LINE",
"466 296 LINE",
"466 298 LINE",
"470 298 LINE",
"470 296 LINE",
"513 296 LINE",
"513 411 LINE",
"470 411 LINE",
"470 409 LINE",
"466 409 LINE",
"466 411 LINE",
"170 411 LINE",
"170 409 LINE",
"166 409 LINE",
"166 411 LINE",
"129 411 LINE"
);
},
{
closed = 1;
nodes = (
"23 0 LINE",
"168 0 LINE",
"168 294 LINE",
"166 294 LINE",
"166 298 LINE",
"168 298 LINE",
"168 409 LINE",
"166 409 LINE",
"166 413 LINE",
"168 413 LINE",
"168 700 LINE",
"23 700 LINE"
);
},
{
closed = 1;
nodes = (
"468 700 LINE",
"468 413 LINE",
"470 413 LINE",
"470 409 LINE",
"468 409 LINE",
"468 298 LINE",
"470 298 LINE",
"470 294 LINE",
"468 294 LINE",
"468 0 LINE",
"613 0 LINE",
"613 700 LINE"
);
}
);
};
layerId = "C89E7CB9-06CC-4D85-8773-832B05BA201B";
paths = (
{
closed = 1;
nodes = (
"316 0 LINE",
"439 583 LINE",
"437 583 LINE",
"437 587 LINE",
"441 587 LINE",
"441 585 LINE",
"652 585 LINE",
"677 700 LINE",
"102 700 LINE",
"77 585 LINE",
"289 585 LINE",
"289 587 LINE",
"293 587 LINE",
"293 583 LINE",
"291 583 LINE",
"168 0 LINE"
);
}
);
width = 595;
}
);
rightMetricsKey = "=|";
unicode = 0054;
},
{
color = 6;
glyphname = U;
lastChange = "2020-05-15 09:45:38 +0000";
layers = (
{
background = {
paths = (
{
closed = 1;
nodes = (
"103 0 LINE",
"168 0 LINE",
"168 700 LINE",
"103 700 LINE"
);
},
{
closed = 1;
nodes = (
"558 700 LINE",
"558 0 LINE",
"623 0 LINE",
"623 700 LINE"
);
}
);
};
layerId = "E773EBAE-783E-4D91-931E-4E5C9CF0967C";
paths = (
{
closed = 1;
nodes = (
"467 -5 OFFCURVE",
"574 100 OFFCURVE",
"605 246 CURVE SMOOTH",
"701 700 LINE",
"635 700 LINE",
"539 246 LINE SMOOTH",
"515 131 OFFCURVE",
"428 50 OFFCURVE",
"306 50 CURVE SMOOTH",
"186 50 OFFCURVE",
"129 132 OFFCURVE",
"153 246 CURVE SMOOTH",
"249 700 LINE",
"183 700 LINE",
"87 246 LINE SMOOTH",
"55 94 OFFCURVE",
"146 -5 OFFCURVE",
"304 -5 CURVE SMOOTH"
);
}
);
width = 699;
},
{
background = {
paths = (
{
closed = 1;
nodes = (
"92 0 LINE",
"237 0 LINE",
"237 700 LINE",
"92 700 LINE"
);
},
{
closed = 1;
nodes = (
"537 700 LINE",
"537 0 LINE",
"682 0 LINE",
"682 700 LINE"
);
}
);
};
layerId = "C89E7CB9-06CC-4D85-8773-832B05BA201B";
paths = (
{
closed = 1;
nodes = (
"488 -5 OFFCURVE",
"623 100 OFFCURVE",
"654 246 CURVE SMOOTH",
"750 700 LINE",
"602 700 LINE",
"506 246 LINE SMOOTH",
"489 165 OFFCURVE",
"435 120 OFFCURVE",
"337 120 CURVE SMOOTH",
"245 120 OFFCURVE",
"205 158 OFFCURVE",
"224 246 CURVE SMOOTH",
"320 700 LINE",
"172 700 LINE",
"76 246 LINE SMOOTH",
"46 103 OFFCURVE",
"160 -5 OFFCURVE",
"325 -5 CURVE SMOOTH"
);
}
);
width = 739;
}
);
leftMetricsKey = "=H";
rightMetricsKey = "=|";
unicode = 0055;
},
{
color = 6;
glyphname = V;
lastChange = "2020-04-27 16:58:58 +0000";
layers = (
{
background = {
paths = (
{
closed = 1;
nodes = (
"282 0 LINE",
"471 525 LINE",
"402 525 LINE",
"243 68 LINE",
"243 64 LINE",
"240 64 LINE",
"240 0 LINE"
);
},
{
closed = 1;
nodes = (
"242 0 LINE",
"242 64 LINE",
"239 64 LINE",
"239 68 LINE",
"80 525 LINE",
"11 525 LINE",
"200 0 LINE"
);
},
{
closed = 1;
nodes = (
"107 328 LINE",
"144 328 LINE",
"144 330 LINE",
"148 330 LINE",
"148 328 LINE",
"534 328 LINE",
"534 330 LINE",
"538 330 LINE",
"538 328 LINE",
"571 328 LINE",
"571 383 LINE",
"538 383 LINE",
"538 381 LINE",
"534 381 LINE",
"534 383 LINE",
"148 383 LINE",
"148 381 LINE",
"144 381 LINE",
"144 383 LINE",
"107 383 LINE"
);
},
{
closed = 1;
nodes = (
"81 0 LINE",
"146 0 LINE",
"146 326 LINE",
"144 326 LINE",
"144 330 LINE",
"146 330 LINE",
"146 381 LINE",
"144 381 LINE",
"144 385 LINE",
"146 385 LINE",
"146 700 LINE",
"81 700 LINE"
);
},
{
closed = 1;
nodes = (
"536 700 LINE",
"536 385 LINE",
"538 385 LINE",
"538 381 LINE",
"536 381 LINE",
"536 330 LINE",
"538 330 LINE",
"538 326 LINE",
"536 326 LINE",
"536 0 LINE",
"601 0 LINE",
"601 700 LINE"
);
}
);
};
layerId = "E773EBAE-783E-4D91-931E-4E5C9CF0967C";
paths = (
{
closed = 1;
nodes = (
"301 0 LINE",
"703 700 LINE",
"634 700 LINE",
"281 75 LINE",
"281 71 LINE",
"277 71 LINE",
"277 75 LINE",
"194 700 LINE",
"123 700 LINE",
"228 0 LINE"
);
}
);
width = 640;
},
{
background = {
guideLines = (
{
angle = 90;
position = "{353, 712}";
}
);
paths = (
{
closed = 1;
nodes = (
"164 296 LINE",
"201 296 LINE",
"201 298 LINE",
"205 298 LINE",
"205 296 LINE",
"501 296 LINE",
"501 298 LINE",
"505 298 LINE",
"505 296 LINE",
"548 296 LINE",
"548 411 LINE",
"505 411 LINE",
"505 409 LINE",
"501 409 LINE",
"501 411 LINE",
"205 411 LINE",
"205 409 LINE",
"201 409 LINE",
"201 411 LINE",
"164 411 LINE"
);
},
{
closed = 1;
nodes = (
"58 0 LINE",
"203 0 LINE",
"203 294 LINE",
"201 294 LINE",
"201 298 LINE",
"203 298 LINE",
"203 409 LINE",
"201 409 LINE",
"201 413 LINE",
"203 413 LINE",
"203 700 LINE",
"58 700 LINE"
);
},
{
closed = 1;
nodes = (
"503 700 LINE",
"503 413 LINE",
"505 413 LINE",
"505 409 LINE",
"503 409 LINE",
"503 298 LINE",
"505 298 LINE",
"505 294 LINE",
"503 294 LINE",
"503 0 LINE",
"648 0 LINE",
"648 700 LINE"
);
}
);
};
guideLines = (
{
angle = 90;
position = "{353, 712}";
}
);
layerId = "C89E7CB9-06CC-4D85-8773-832B05BA201B";
paths = (
{
closed = 1;
nodes = (
"377 0 LINE",
"752 700 LINE",
"599 700 LINE",
"315 149 LINE",
"315 145 LINE",
"311 145 LINE",
"311 149 LINE",
"258 700 LINE",
"112 700 LINE",
"193 0 LINE"
);
}
);
width = 680;
}
);
rightMetricsKey = "=|";
unicode = 0056;
},
{
color = 6;
glyphname = W;
lastChange = "2020-05-21 12:14:42 +0000";
layers = (
{
layerId = "E773EBAE-783E-4D91-931E-4E5C9CF0967C";
paths = (
{
closed = 1;
nodes = (
"250 0 LINE",
"542 587 LINE",
"542 591 LINE",
"546 591 LINE",
"546 587 LINE",
"593 0 LINE",
"675 0 LINE",
"1013 700 LINE",
"941 700 LINE",
"650 75 LINE",
"650 71 LINE",
"646 71 LINE",
"646 75 LINE",
"603 700 LINE",
"531 700 LINE",
"225 75 LINE",
"225 71 LINE",
"221 71 LINE",
"221 75 LINE",
"193 700 LINE",
"123 700 LINE",
"166 0 LINE"
);
}
);
width = 950;
},
{
background = {
paths = (
{
closed = 1;
nodes = (
"301 0 LINE",
"301 81 LINE",
"298 81 LINE",
"298 85 LINE",
"141 700 LINE",
"68 700 LINE",
"259 0 LINE"
);
},
{
closed = 1;
nodes = (
"512 584 LINE",
"512 588 LINE",
"515 588 LINE",
"547 700 LINE",
"479 700 LINE",
"302 85 LINE",
"302 81 LINE",
"299 81 LINE",
"299 0 LINE",
"338 0 LINE"
);
},
{
closed = 1;
nodes = (
"958 700 LINE",
"885 700 LINE",
"728 85 LINE",
"728 81 LINE",
"725 81 LINE",
"725 0 LINE",
"767 0 LINE"
);
},
{
closed = 1;
nodes = (
"727 0 LINE",
"727 81 LINE",
"724 81 LINE",
"724 85 LINE",
"547 700 LINE",
"479 700 LINE",
"513 588 LINE",
"516 588 LINE",
"516 584 LINE",
"688 0 LINE"
);
}
);
};
layerId = "C89E7CB9-06CC-4D85-8773-832B05BA201B";
paths = (
{
closed = 1;
nodes = (
"331 0 LINE",
"539 471 LINE",
"539 475 LINE",
"543 475 LINE",
"543 471 LINE",
"571 0 LINE",
"742 0 LINE",
"1067 700 LINE",
"912 700 LINE",
"683 156 LINE",
"683 152 LINE",
"679 152 LINE",
"679 156 LINE",
"656 700 LINE",
"513 700 LINE",
"279 156 LINE",
"279 152 LINE",
"275 152 LINE",
"275 156 LINE",
"257 700 LINE",
"112 700 LINE",
"158 0 LINE"
);
}
);
width = 995;
}
);
rightMetricsKey = "=|";
unicode = 0057;
},
{
color = 6;
glyphname = X;
lastChange = "2020-05-13 20:24:29 +0000";
layers = (
{
background = {
paths = (
{
closed = 1;
nodes = (
"47 0 LINE",
"325 296 LINE",
"325 300 LINE",
"329 300 LINE",
"329 296 LINE",
"475 0 LINE",
"548 0 LINE",
"371 351 LINE",
"367 351 LINE",
"367 355 LINE",
"371 355 LINE",
"694 700 LINE",
"612 700 LINE",
"342 411 LINE",
"342 407 LINE",
"338 407 LINE",
"338 411 LINE",
"205 700 LINE",
"133 700 LINE",
"296 356 LINE",
"300 356 LINE",
"300 352 LINE",
"296 352 LINE",
"-35 0 LINE"
);
}
);
};
guideLines = (
{
position = "{606, 91}";
}
);
layerId = "E773EBAE-783E-4D91-931E-4E5C9CF0967C";
paths = (
{
closed = 1;
nodes = (
"77 0 LINE",
"321 303 LINE",
"321 307 LINE",
"325 307 LINE",
"325 303 LINE",
"477 0 LINE",
"554 0 LINE",
"371 356 LINE",
"368 356 LINE",
"368 360 LINE",
"372 360 LINE",
"649 700 LINE",
"571 700 LINE",
"344 412 LINE",
"344 408 LINE",
"340 408 LINE",
"340 412 LINE",
"197 700 LINE",
"123 700 LINE",
"295 359 LINE",
"298 359 LINE",
"298 355 LINE",
"294 355 LINE",
"2 0 LINE"
);
}
);
width = 640;
},
{
background = {
paths = (
{
closed = 1;
nodes = (
"172 0 LINE",
"353 237 LINE",
"354 241 LINE",
"358 241 LINE",
"357 237 LINE",
"476 0 LINE",
"645 0 LINE",
"458 350 LINE",
"455 350 LINE",
"455 354 LINE",
"459 354 LINE",
"751 700 LINE",
"580 700 LINE",
"392 459 LINE",
"392 455 LINE",
"388 455 LINE",
"388 459 LINE",
"273 700 LINE",
"114 700 LINE",
"288 359 LINE",
"291 359 LINE",
"291 355 LINE",
"287 355 LINE",
"4 0 LINE"
);
}
);
};
guideLines = (
{
position = "{695, 350}";
}
);
layerId = "C89E7CB9-06CC-4D85-8773-832B05BA201B";
paths = (
{
closed = 1;
nodes = (
"170 0 LINE",
"358 237 LINE",
"358 241 LINE",
"362 241 LINE",
"362 237 LINE",
"476 0 LINE",
"647 0 LINE",
"459 350 LINE",
"456 350 LINE",
"456 354 LINE",
"460 354 LINE",
"751 700 LINE",
"578 700 LINE",
"392 459 LINE",
"392 455 LINE",
"388 455 LINE",
"388 459 LINE",
"270 700 LINE",
"112 700 LINE",
"287 359 LINE",
"290 359 LINE",
"290 355 LINE",
"286 355 LINE",
"3 0 LINE"
);
}
);
width = 724;
}
);
rightMetricsKey = "=|";
unicode = 0058;
},
{
color = 6;
glyphname = Y;
lastChange = "2020-05-10 10:04:16 +0000";
layers = (
{
background = {
paths = (
{
closed = 1;
nodes = (
"78 328 LINE",
"115 328 LINE",
"115 330 LINE",
"119 330 LINE",
"119 328 LINE",
"505 328 LINE",
"505 330 LINE",
"509 330 LINE",
"509 328 LINE",
"542 328 LINE",
"542 383 LINE",
"509 383 LINE",
"509 381 LINE",
"505 381 LINE",
"505 383 LINE",
"119 383 LINE",
"119 381 LINE",
"115 381 LINE",
"115 383 LINE",
"78 383 LINE"
);
},
{
closed = 1;
nodes = (
"52 0 LINE",
"117 0 LINE",
"117 326 LINE",
"115 326 LINE",
"115 330 LINE",
"117 330 LINE",
"117 381 LINE",
"115 381 LINE",
"115 385 LINE",
"117 385 LINE",
"117 700 LINE",
"52 700 LINE"
);
},
{
closed = 1;
nodes = (
"507 700 LINE",
"507 385 LINE",
"509 385 LINE",
"509 381 LINE",
"507 381 LINE",
"507 330 LINE",
"509 330 LINE",
"509 326 LINE",
"507 326 LINE",
"507 0 LINE",
"572 0 LINE",
"572 700 LINE"
);
},
{
closed = 1;
nodes = (
"267 359 LINE",
"271 359 LINE",
"273 355 LINE",
"367 355 LINE",
"367 359 LINE",
"371 359 LINE",
"590 700 LINE",
"494 700 LINE",
"324 433 LINE",
"324 429 LINE",
"320 429 LINE",
"320 433 LINE",
"154 700 LINE",
"46 700 LINE"
);
},
{
closed = 1;
nodes = (
"137 0 LINE",
"315 281 LINE",
"315 285 LINE",
"319 285 LINE",
"319 281 LINE",
"499 0 LINE",
"607 0 LINE",
"371 355 LINE",
"367 355 LINE",
"367 359 LINE",
"271 359 LINE",
"271 355 LINE",
"267 355 LINE",
"42 0 LINE"
);
}
);
};
guideLines = (
{
position = "{591, 350}";
},
{
angle = 90;
position = "{323, 374}";
}
);
layerId = "E773EBAE-783E-4D91-931E-4E5C9CF0967C";
paths = (
{
closed = 1;
nodes = (
"281 0 LINE",
"346 303 LINE",
"683 700 LINE",
"610 700 LINE",
"326 357 LINE",
"326 353 LINE",
"322 353 LINE",
"322 357 LINE",
"184 700 LINE",
"113 700 LINE",
"280 302 LINE",
"215 0 LINE"
);
}
);
width = 610;
},
{
background = {
paths = (
{
closed = 1;
nodes = (
"294 280 LINE",
"395 280 LINE",
"647 701 LINE",
"531 701 LINE",
"348 390 LINE",
"348 386 LINE",
"344 386 LINE",
"344 390 LINE",
"165 701 LINE",
"37 701 LINE"
);
},
{
closed = 1;
nodes = (
"291 0 LINE",
"396 0 LINE",
"396 290 LINE",
"291 290 LINE"
);
},
{
closed = 1;
nodes = (
"168 294 LINE",
"205 294 LINE",
"205 296 LINE",
"209 296 LINE",
"209 294 LINE",
"485 294 LINE",
"485 296 LINE",
"489 296 LINE",
"489 294 LINE",
"532 294 LINE",
"532 414 LINE",
"489 414 LINE",
"489 412 LINE",
"485 412 LINE",
"485 414 LINE",
"209 414 LINE",
"209 412 LINE",
"205 412 LINE",
"205 414 LINE",
"168 414 LINE"
);
},
{
closed = 1;
nodes = (
"62 0 LINE",
"207 0 LINE",
"207 292 LINE",
"205 292 LINE",
"205 296 LINE",
"207 296 LINE",
"207 412 LINE",
"205 412 LINE",
"205 416 LINE",
"207 416 LINE",
"207 700 LINE",
"62 700 LINE"
);
},
{
closed = 1;
nodes = (
"487 700 LINE",
"487 416 LINE",
"489 416 LINE",
"489 412 LINE",
"487 412 LINE",
"487 296 LINE",
"489 296 LINE",
"489 292 LINE",
"487 292 LINE",
"487 0 LINE",
"632 0 LINE",
"632 700 LINE"
);
}
);
};
guideLines = (
{
angle = 90;
position = "{342, 350}";
},
{
position = "{657, 350}";
}
);
layerId = "C89E7CB9-06CC-4D85-8773-832B05BA201B";
paths = (
{
closed = 1;
nodes = (
"361 0 LINE",
"419 275 LINE",
"762 700 LINE",
"595 700 LINE",
"366 409 LINE",
"366 405 LINE",
"362 405 LINE",
"362 409 LINE",
"258 700 LINE",
"102 700 LINE",
"270 276 LINE",
"212 0 LINE"
);
}
);
width = 680;
}
);
rightMetricsKey = "=|";
unicode = 0059;
},
{
color = 6;
glyphname = Z;
lastChange = "2020-05-15 09:51:10 +0000";
layers = (
{
background = {
components = (
{
name = H;
transform = "{1, 0, 0, 1, -50, 0}";
}
);
};
layerId = "E773EBAE-783E-4D91-931E-4E5C9CF0967C";
paths = (
{
closed = 1;
nodes = (
"474 0 LINE",
"487 58 LINE",
"71 58 LINE",
"71 56 LINE",
"67 56 LINE",
"67 60 LINE",
"69 60 LINE",
"592 655 LINE",
"602 700 LINE",
"129 700 LINE",
"117 645 LINE",
"513 645 LINE",
"513 647 LINE",
"517 647 LINE",
"517 643 LINE",
"515 643 LINE",
"-16 48 LINE",
"-26 0 LINE"
);
}
);
width = 560;
},
{
background = {
paths = (
{
closed = 1;
nodes = (
"136 296 LINE",
"173 296 LINE",
"173 298 LINE",
"177 298 LINE",
"177 296 LINE",
"473 296 LINE",
"473 298 LINE",
"477 298 LINE",
"477 296 LINE",
"520 296 LINE",
"520 411 LINE",
"477 411 LINE",
"477 409 LINE",
"473 409 LINE",
"473 411 LINE",
"177 411 LINE",
"177 409 LINE",
"173 409 LINE",
"173 411 LINE",
"136 411 LINE"
);
},
{
closed = 1;
nodes = (
"30 0 LINE",
"175 0 LINE",
"175 294 LINE",
"173 294 LINE",
"173 298 LINE",
"175 298 LINE",
"175 409 LINE",
"173 409 LINE",
"173 413 LINE",
"175 413 LINE",
"175 700 LINE",
"30 700 LINE"
);
},
{
closed = 1;
nodes = (
"475 700 LINE",
"475 413 LINE",
"477 413 LINE",
"477 409 LINE",
"475 409 LINE",
"475 298 LINE",
"477 298 LINE",
"477 294 LINE",
"475 294 LINE",
"475 0 LINE",
"620 0 LINE",
"620 700 LINE"
);
}
);
};
layerId = "C89E7CB9-06CC-4D85-8773-832B05BA201B";
paths = (
{
closed = 1;
nodes = (
"526 0 LINE",
"556 135 LINE",
"201 135 LINE",
"201 133 LINE",
"197 133 LINE",
"197 137 LINE",
"199 137 LINE",
"622 600 LINE",
"644 700 LINE",
"132 700 LINE",
"107 580 LINE",
"424 580 LINE",
"424 582 LINE",
"428 582 LINE",
"428 578 LINE",
"425 578 LINE",
"-1 120 LINE",
"-26 0 LINE"
);
}
);
width = 614;
}
);
rightMetricsKey = "=|";
unicode = 005A;
},
{
color = 6;
glyphname = a;
lastChange = "2020-05-21 16:30:50 +0000";
layers = (
{
background = {
components = (
{
name = a.ss17;
transform = "{1, 0, 0, 1, 10, 0}";
}
);
};
layerId = "E773EBAE-783E-4D91-931E-4E5C9CF0967C";
paths = (
{
closed = 1;
nodes = (
"332 -8 OFFCURVE",
"412 52 OFFCURVE",
"427 103 CURVE",
"427 105 LINE",
"431 105 LINE",
"431 101 LINE",
"408 1 LINE",
"470 1 LINE",
"581 525 LINE",
"520 525 LINE",
"494 408 LINE",
"494 404 LINE",
"490 404 LINE",
"490 406 LINE",
"490 451 OFFCURVE",
"448 533 OFFCURVE",
"335 533 CURVE SMOOTH",
"176 533 OFFCURVE",
"45 372 OFFCURVE",
"45 207 CURVE SMOOTH",
"45 71 OFFCURVE",
"134 -8 OFFCURVE",
"240 -8 CURVE SMOOTH"
);
},
{
closed = 1;
nodes = (
"166 52 OFFCURVE",
"110 117 OFFCURVE",
"110 216 CURVE SMOOTH",
"110 348 OFFCURVE",
"209 473 OFFCURVE",
"335 473 CURVE SMOOTH",
"438 473 OFFCURVE",
"491 390 OFFCURVE",
"470 289 CURVE SMOOTH",
"458 230 LINE SMOOTH",
"435 118 OFFCURVE",
"339 52 OFFCURVE",
"252 52 CURVE SMOOTH"
);
}
);
width = 606;
},
{
background = {
components = (
{
name = a.ss17;
transform = "{1, 0, 0, 1, 10, 0}";
}
);
};
layerId = "C89E7CB9-06CC-4D85-8773-832B05BA201B";
paths = (
{
closed = 1;
nodes = (
"333 -8 OFFCURVE",
"399 87 OFFCURVE",
"406 104 CURVE",
"406 106 LINE",
"410 106 LINE",
"410 102 LINE",
"388 0 LINE",
"517 0 LINE",
"628 525 LINE",
"495 525 LINE",
"474 434 LINE",
"474 430 LINE",
"470 430 LINE",
"470 432 LINE",
"463 460 OFFCURVE",
"437 537 OFFCURVE",
"320 537 CURVE SMOOTH",
"153 537 OFFCURVE",
"36 384 OFFCURVE",
"36 209 CURVE SMOOTH",
"36 79 OFFCURVE",
"97 -8 OFFCURVE",
"213 -8 CURVE SMOOTH"
);
},
{
closed = 1;
nodes = (
"220 107 OFFCURVE",
"180 156 OFFCURVE",
"180 231 CURVE SMOOTH",
"180 332 OFFCURVE",
"250 420 OFFCURVE",
"342 420 CURVE SMOOTH",
"416 420 OFFCURVE",
"459 363 OFFCURVE",
"440 271 CURVE SMOOTH",
"433 238 LINE SMOOTH",
"417 164 OFFCURVE",
"345 107 OFFCURVE",
"280 107 CURVE SMOOTH"
);
}
);
width = 644;
}
);
leftMetricsKey = "=o";
rightMetricsKey = "=I-10";
unicode = 0061;
},
{
color = 7;
glyphname = a.ss01;
lastChange = "2020-05-27 15:50:27 +0000";
layers = (
{
background = {
paths = (
{
closed = 1;
nodes = (
"287 -8 OFFCURVE",
"351 44 OFFCURVE",
"366 78 CURVE",
"366 80 LINE",
"370 80 LINE",
"363 0 LINE",
"414 0 LINE",
"489 358 LINE SMOOTH",
"513 471 OFFCURVE",
"440 533 OFFCURVE",
"326 533 CURVE SMOOTH",
"254 533 OFFCURVE",
"164 500 OFFCURVE",
"116 430 CURVE",
"105 460 LINE",
"190 402 LINE",
"157 405 LINE",
"191 455 OFFCURVE",
"263 478 OFFCURVE",
"314 478 CURVE SMOOTH",
"397 478 OFFCURVE",
"447 445 OFFCURVE",
"431 373 CURVE SMOOTH",
"421 328 LINE",
"417 328 LINE",
"417 330 LINE",
"289 330 LINE SMOOTH",
"153 330 OFFCURVE",
"38 260 OFFCURVE",
"38 134 CURVE SMOOTH",
"38 44 OFFCURVE",
"113 -8 OFFCURVE",
"200 -8 CURVE SMOOTH"
);
},
{
closed = 1;
nodes = (
"132 51 OFFCURVE",
"103 107 OFFCURVE",
"103 148 CURVE SMOOTH",
"103 231 OFFCURVE",
"183 275 OFFCURVE",
"277 275 CURVE SMOOTH",
"407 275 LINE",
"407 277 LINE",
"411 277 LINE",
"398 218 LINE SMOOTH",
"375 113 OFFCURVE",
"304 51 OFFCURVE",
"216 51 CURVE SMOOTH"
);
}
);
};
layerId = "E773EBAE-783E-4D91-931E-4E5C9CF0967C";
paths = (
{
closed = 1;
nodes = (
"287 -8 OFFCURVE",
"351 44 OFFCURVE",
"366 78 CURVE",
"366 80 LINE",
"370 80 LINE",
"363 0 LINE",
"414 0 LINE",
"489 358 LINE SMOOTH",
"513 471 OFFCURVE",
"438 533 OFFCURVE",
"330 533 CURVE SMOOTH",
"252 533 OFFCURVE",
"164 500 OFFCURVE",
"116 430 CURVE",
"105 460 LINE",
"190 402 LINE",
"161 398 LINE",
"195 448 OFFCURVE",
"257 478 OFFCURVE",
"325 478 CURVE SMOOTH",
"397 478 OFFCURVE",
"447 445 OFFCURVE",
"431 373 CURVE SMOOTH",
"421 328 LINE",
"417 328 LINE",
"417 330 LINE",
"289 330 LINE SMOOTH",
"153 330 OFFCURVE",
"38 258 OFFCURVE",
"38 138 CURVE SMOOTH",
"38 42 OFFCURVE",
"113 -8 OFFCURVE",
"200 -8 CURVE SMOOTH"
);
},
{
closed = 1;
nodes = (
"133 51 OFFCURVE",
"103 105 OFFCURVE",
"103 152 CURVE SMOOTH",
"103 229 OFFCURVE",
"183 275 OFFCURVE",
"277 275 CURVE SMOOTH",
"407 275 LINE",
"407 277 LINE",
"411 277 LINE",
"398 218 LINE SMOOTH",
"375 113 OFFCURVE",
"305 51 OFFCURVE",
"216 51 CURVE SMOOTH"
);
}
);
width = 560;
},
{
background = {
paths = (
{
closed = 1;
nodes = (
"264 -8 OFFCURVE",
"328 38 OFFCURVE",
"345 76 CURVE",
"345 78 LINE",
"349 78 LINE",
"341 0 LINE",
"462 0 LINE",
"538 356 LINE SMOOTH",
"561 463 OFFCURVE",
"472 538 OFFCURVE",
"347 538 CURVE SMOOTH",
"254 538 OFFCURVE",
"151 507 OFFCURVE",
"84 418 CURVE",
"65 480 LINE",
"226 353 LINE",
"155 358 LINE",
"192 410 OFFCURVE",
"252 433 OFFCURVE",
"309 433 CURVE SMOOTH",
"364 433 OFFCURVE",
"417 410 OFFCURVE",
"408 369 CURVE SMOOTH",
"400 334 LINE",
"396 334 LINE",
"396 336 LINE",
"294 336 LINE SMOOTH",
"157 336 OFFCURVE",
"27 270 OFFCURVE",
"27 139 CURVE SMOOTH",
"27 49 OFFCURVE",
"92 -8 OFFCURVE",
"182 -8 CURVE SMOOTH"
);
},
{
closed = 1;
nodes = (
"186 94 OFFCURVE",
"166 118 OFFCURVE",
"166 154 CURVE SMOOTH",
"166 211 OFFCURVE",
"223 241 OFFCURVE",
"283 241 CURVE SMOOTH",
"377 241 LINE",
"377 243 LINE",
"381 243 LINE",
"376 219 LINE SMOOTH",
"354 114 OFFCURVE",
"281 94 OFFCURVE",
"234 94 CURVE SMOOTH"
);
}
);
};
guideLines = (
{
position = "{791, 536}";
}
);
layerId = "C89E7CB9-06CC-4D85-8773-832B05BA201B";
paths = (
{
closed = 1;
nodes = (
"264 -8 OFFCURVE",
"328 38 OFFCURVE",
"345 76 CURVE",
"345 78 LINE",
"349 78 LINE",
"341 0 LINE",
"462 0 LINE",
"538 356 LINE SMOOTH",
"561 463 OFFCURVE",
"473 538 OFFCURVE",
"341 538 CURVE SMOOTH",
"255 538 OFFCURVE",
"151 507 OFFCURVE",
"84 418 CURVE",
"65 480 LINE",
"226 353 LINE",
"160 353 LINE",
"197 405 OFFCURVE",
"252 433 OFFCURVE",
"313 433 CURVE SMOOTH",
"369 433 OFFCURVE",
"417 410 OFFCURVE",
"408 369 CURVE SMOOTH",
"400 334 LINE",
"396 334 LINE",
"396 336 LINE",
"294 336 LINE SMOOTH",
"157 336 OFFCURVE",
"27 270 OFFCURVE",
"27 140 CURVE SMOOTH",
"27 49 OFFCURVE",
"91 -8 OFFCURVE",
"182 -8 CURVE SMOOTH"
);
},
{
closed = 1;
nodes = (
"188 94 OFFCURVE",
"166 119 OFFCURVE",
"166 154 CURVE SMOOTH",
"166 211 OFFCURVE",
"223 241 OFFCURVE",
"283 241 CURVE SMOOTH",
"377 241 LINE",
"377 243 LINE",
"381 243 LINE",
"376 219 LINE SMOOTH",
"354 114 OFFCURVE",
"281 94 OFFCURVE",
"237 94 CURVE SMOOTH"
);
}
);
width = 599;
}
);
leftMetricsKey = "=o+10";
rightMetricsKey = "=I";
},
{
color = 7;
glyphname = a.ss15;
lastChange = "2020-05-27 15:46:32 +0000";
layers = (
{
background = {
paths = (
{
closed = 1;
nodes = (
"277 -8 OFFCURVE",
"341 44 OFFCURVE",
"356 78 CURVE",
"356 80 LINE",
"360 80 LINE",
"353 0 LINE",
"404 0 LINE",
"479 358 LINE SMOOTH",
"503 471 OFFCURVE",
"428 533 OFFCURVE",
"320 533 CURVE SMOOTH",
"242 533 OFFCURVE",
"154 500 OFFCURVE",
"106 430 CURVE",
"95 460 LINE",
"180 402 LINE",
"151 398 LINE",
"185 448 OFFCURVE",
"247 478 OFFCURVE",
"315 478 CURVE SMOOTH",
"387 478 OFFCURVE",
"437 445 OFFCURVE",
"421 373 CURVE SMOOTH",
"411 328 LINE",
"407 328 LINE",
"407 330 LINE",
"279 330 LINE SMOOTH",
"143 330 OFFCURVE",
"28 258 OFFCURVE",
"28 138 CURVE SMOOTH",
"28 42 OFFCURVE",
"103 -8 OFFCURVE",
"190 -8 CURVE SMOOTH"
);
},
{
closed = 1;
nodes = (
"123 51 OFFCURVE",
"93 105 OFFCURVE",
"93 152 CURVE SMOOTH",
"93 229 OFFCURVE",
"173 275 OFFCURVE",
"267 275 CURVE SMOOTH",
"397 275 LINE",
"397 277 LINE",
"401 277 LINE",
"388 218 LINE SMOOTH",
"365 113 OFFCURVE",
"295 51 OFFCURVE",
"206 51 CURVE SMOOTH"
);
}
);
};
layerId = "E773EBAE-783E-4D91-931E-4E5C9CF0967C";
paths = (
{
closed = 1;
nodes = (
"504 78 LINE",
"512 54 LINE",
"501 52 OFFCURVE",
"469 48 OFFCURVE",
"454 48 CURVE SMOOTH",
"433 48 OFFCURVE",
"422 63 OFFCURVE",
"422 77 CURVE SMOOTH",
"422 87 OFFCURVE",
"424 99 OFFCURVE",
"425 104 CURVE",
"479 358 LINE SMOOTH",
"503 471 OFFCURVE",
"428 533 OFFCURVE",
"320 533 CURVE SMOOTH",
"242 533 OFFCURVE",
"154 500 OFFCURVE",
"106 430 CURVE",
"95 460 LINE",
"180 402 LINE",
"151 398 LINE",
"185 448 OFFCURVE",
"247 478 OFFCURVE",
"315 478 CURVE SMOOTH",
"387 478 OFFCURVE",
"437 445 OFFCURVE",
"421 373 CURVE SMOOTH",
"411 328 LINE",
"407 328 LINE",
"407 330 LINE",
"279 330 LINE SMOOTH",
"143 330 OFFCURVE",
"28 258 OFFCURVE",
"28 138 CURVE SMOOTH",
"28 42 OFFCURVE",
"103 -8 OFFCURVE",
"190 -8 CURVE SMOOTH",
"278 -8 OFFCURVE",
"341 44 OFFCURVE",
"355 78 CURVE",
"355 80 LINE",
"359 80 LINE",
"359 64 LINE SMOOTH",
"359 18 OFFCURVE",
"389 -8 OFFCURVE",
"431 -8 CURVE SMOOTH",
"453 -8 OFFCURVE",
"478 -1 OFFCURVE",
"504 14 CURVE",
"482 -20 LINE"
);
},
{
closed = 1;
nodes = (
"123 49 OFFCURVE",
"93 105 OFFCURVE",
"93 152 CURVE SMOOTH",
"93 229 OFFCURVE",
"173 275 OFFCURVE",
"267 275 CURVE SMOOTH",
"397 275 LINE",
"397 277 LINE",
"401 277 LINE",
"388 218 LINE SMOOTH",
"365 113 OFFCURVE",
"295 49 OFFCURVE",
"206 49 CURVE SMOOTH"
);
}
);
width = 573;
},
{
background = {
paths = (
{
closed = 1;
nodes = (
"254 -8 OFFCURVE",
"318 38 OFFCURVE",
"335 76 CURVE",
"335 78 LINE",
"339 78 LINE",
"331 0 LINE",
"452 0 LINE",
"528 356 LINE SMOOTH",
"551 463 OFFCURVE",
"463 538 OFFCURVE",
"331 538 CURVE SMOOTH",
"245 538 OFFCURVE",
"141 507 OFFCURVE",
"74 418 CURVE",
"55 480 LINE",
"216 353 LINE",
"150 353 LINE",
"187 405 OFFCURVE",
"242 433 OFFCURVE",
"303 433 CURVE SMOOTH",
"359 433 OFFCURVE",
"407 410 OFFCURVE",
"398 369 CURVE SMOOTH",
"390 334 LINE",
"386 334 LINE",
"386 336 LINE",
"284 336 LINE SMOOTH",
"147 336 OFFCURVE",
"17 270 OFFCURVE",
"17 140 CURVE SMOOTH",
"17 49 OFFCURVE",
"81 -8 OFFCURVE",
"172 -8 CURVE SMOOTH"
);
},
{
closed = 1;
nodes = (
"178 94 OFFCURVE",
"156 119 OFFCURVE",
"156 154 CURVE SMOOTH",
"156 211 OFFCURVE",
"213 241 OFFCURVE",
"273 241 CURVE SMOOTH",
"367 241 LINE",
"367 243 LINE",
"371 243 LINE",
"366 219 LINE SMOOTH",
"344 114 OFFCURVE",
"271 94 OFFCURVE",
"227 94 CURVE SMOOTH"
);
}
);
};
guideLines = (
{
position = "{781, 536}";
}
);
layerId = "C89E7CB9-06CC-4D85-8773-832B05BA201B";
paths = (
{
closed = 1;
nodes = (
"570 111 LINE",
"622 106 LINE",
"587 94 OFFCURVE",
"551 85 OFFCURVE",
"528 85 CURVE SMOOTH",
"500 85 OFFCURVE",
"484 98 OFFCURVE",
"484 131 CURVE SMOOTH",
"484 150 OFFCURVE",
"488 169 OFFCURVE",
"490 177 CURVE",
"528 356 LINE SMOOTH",
"551 463 OFFCURVE",
"463 538 OFFCURVE",
"331 538 CURVE SMOOTH",
"245 538 OFFCURVE",
"141 507 OFFCURVE",
"74 418 CURVE",
"52 482 LINE",
"216 353 LINE",
"150 353 LINE",
"187 405 OFFCURVE",
"241 433 OFFCURVE",
"303 433 CURVE SMOOTH",
"359 433 OFFCURVE",
"407 410 OFFCURVE",
"398 369 CURVE SMOOTH",
"390 334 LINE",
"386 334 LINE",
"386 336 LINE",
"284 336 LINE SMOOTH",
"147 336 OFFCURVE",
"17 269 OFFCURVE",
"17 141 CURVE SMOOTH",
"17 49 OFFCURVE",
"81 -8 OFFCURVE",
"172 -8 CURVE SMOOTH",
"253 -8 OFFCURVE",
"322 37 OFFCURVE",
"344 85 CURVE",
"344 89 LINE",
"348 89 LINE",
"348 82 LINE SMOOTH",
"348 19 OFFCURVE",
"403 -8 OFFCURVE",
"455 -8 CURVE SMOOTH",
"499 -8 OFFCURVE",
"550 11 OFFCURVE",
"580 52 CURVE",
"539 -34 LINE"
);
},
{
closed = 1;
nodes = (
"178 94 OFFCURVE",
"156 119 OFFCURVE",
"156 154 CURVE SMOOTH",
"156 210 OFFCURVE",
"213 241 OFFCURVE",
"273 241 CURVE SMOOTH",
"367 241 LINE",
"367 243 LINE",
"371 243 LINE",
"366 219 LINE SMOOTH",
"344 114 OFFCURVE",
"271 94 OFFCURVE",
"227 94 CURVE SMOOTH"
);
}
);
width = 623;
}
);
leftMetricsKey = "=o";
rightMetricsKey = "=o-20";
},
{
color = 7;
glyphname = a.ss17;
lastChange = "2020-05-15 09:14:37 +0000";
layers = (
{
background = {
paths = (
{
closed = 1;
nodes = (
"570 70 LINE",
"580 56 LINE",
"566 51 OFFCURVE",
"537 48 OFFCURVE",
"522 48 CURVE SMOOTH",
"501 48 OFFCURVE",
"490 63 OFFCURVE",
"490 77 CURVE SMOOTH",
"490 84 OFFCURVE",
"491 93 OFFCURVE",
"493 104 CURVE SMOOTH",
"580 525 LINE",
"519 525 LINE",
"494 404 LINE",
"490 404 LINE",
"490 406 LINE SMOOTH",
"490 451 OFFCURVE",
"444 533 OFFCURVE",
"339 533 CURVE SMOOTH",
"172 533 OFFCURVE",
"45 371 OFFCURVE",
"45 201 CURVE SMOOTH",
"45 73 OFFCURVE",
"138 -8 OFFCURVE",
"233 -8 CURVE SMOOTH",
"336 -8 OFFCURVE",
"413 52 OFFCURVE",
"429 105 CURVE",
"432 105 LINE",
"430 93 OFFCURVE",
"427 76 OFFCURVE",
"427 64 CURVE SMOOTH",
"427 21 OFFCURVE",
"460 -6 OFFCURVE",
"500 -6 CURVE SMOOTH",
"526 -6 OFFCURVE",
"559 4 OFFCURVE",
"575 16 CURVE",
"551 -18 LINE"
);
},
{
closed = 1;
nodes = (
"167 52 OFFCURVE",
"110 118 OFFCURVE",
"110 211 CURVE SMOOTH",
"110 350 OFFCURVE",
"207 473 OFFCURVE",
"339 473 CURVE SMOOTH",
"436 473 OFFCURVE",
"491 390 OFFCURVE",
"470 289 CURVE SMOOTH",
"458 230 LINE SMOOTH",
"435 118 OFFCURVE",
"340 52 OFFCURVE",
"251 52 CURVE SMOOTH"
);
}
);
};
layerId = "E773EBAE-783E-4D91-931E-4E5C9CF0967C";
paths = (
{
closed = 1;
nodes = (
"570 70 LINE",
"580 56 LINE",
"566 51 OFFCURVE",
"537 48 OFFCURVE",
"522 48 CURVE SMOOTH",
"501 48 OFFCURVE",
"490 63 OFFCURVE",
"490 77 CURVE SMOOTH",
"490 84 OFFCURVE",
"491 93 OFFCURVE",
"493 104 CURVE SMOOTH",
"580 525 LINE",
"519 525 LINE",
"494 408 LINE",
"494 404 LINE",
"490 404 LINE",
"490 406 LINE",
"490 451 OFFCURVE",
"447 533 OFFCURVE",
"335 533 CURVE SMOOTH",
"175 533 OFFCURVE",
"45 369 OFFCURVE",
"45 207 CURVE SMOOTH",
"45 71 OFFCURVE",
"134 -8 OFFCURVE",
"240 -8 CURVE SMOOTH",
"332 -8 OFFCURVE",
"413 52 OFFCURVE",
"429 105 CURVE",
"432 105 LINE",
"430 93 OFFCURVE",
"427 76 OFFCURVE",
"427 64 CURVE SMOOTH",
"427 18 OFFCURVE",
"461 -6 OFFCURVE",
"503 -6 CURVE SMOOTH",
"526 -6 OFFCURVE",
"551 1 OFFCURVE",
"573 16 CURVE",
"551 -18 LINE"
);
},
{
closed = 1;
nodes = (
"166 52 OFFCURVE",
"110 116 OFFCURVE",
"110 216 CURVE SMOOTH",
"110 348 OFFCURVE",
"209 473 OFFCURVE",
"335 473 CURVE SMOOTH",
"438 473 OFFCURVE",
"491 390 OFFCURVE",
"470 289 CURVE SMOOTH",
"458 230 LINE SMOOTH",
"435 118 OFFCURVE",
"339 52 OFFCURVE",
"252 52 CURVE SMOOTH"
);
}
);
width = 641;
},
{
background = {
paths = (
{
closed = 1;
nodes = (
"636 113 LINE",
"686 111 LINE",
"644 91 OFFCURVE",
"614 86 OFFCURVE",
"587 86 CURVE SMOOTH",
"559 86 OFFCURVE",
"547 102 OFFCURVE",
"547 131 CURVE SMOOTH",
"547 150 OFFCURVE",
"550 164 OFFCURVE",
"553 177 CURVE SMOOTH",
"628 525 LINE",
"495 525 LINE",
"475 430 LINE",
"471 430 LINE",
"471 432 LINE",
"464 460 OFFCURVE",
"435 537 OFFCURVE",
"324 537 CURVE SMOOTH",
"152 537 OFFCURVE",
"36 386 OFFCURVE",
"36 204 CURVE SMOOTH",
"36 79 OFFCURVE",
"103 -8 OFFCURVE",
"207 -8 CURVE SMOOTH",
"340 -8 OFFCURVE",
"401 88 OFFCURVE",
"409 106 CURVE",
"413 106 LINE",
"413 104 OFFCURVE",
"413 104 OFFCURVE",
"413 99 CURVE SMOOTH",
"413 32 OFFCURVE",
"456 -8 OFFCURVE",
"518 -8 CURVE SMOOTH",
"561 -8 OFFCURVE",
"613 11 OFFCURVE",
"642 51 CURVE",
"604 -24 LINE"
);
},
{
closed = 1;
nodes = (
"220 107 OFFCURVE",
"180 157 OFFCURVE",
"180 229 CURVE SMOOTH",
"180 333 OFFCURVE",
"246 420 OFFCURVE",
"347 420 CURVE SMOOTH",
"410 420 OFFCURVE",
"459 363 OFFCURVE",
"440 271 CURVE SMOOTH",
"433 238 LINE SMOOTH",
"417 164 OFFCURVE",
"348 107 OFFCURVE",
"281 107 CURVE SMOOTH"
);
}
);
};
layerId = "C89E7CB9-06CC-4D85-8773-832B05BA201B";
paths = (
{
closed = 1;
nodes = (
"636 113 LINE",
"686 111 LINE",
"644 91 OFFCURVE",
"614 86 OFFCURVE",
"587 86 CURVE SMOOTH",
"559 86 OFFCURVE",
"547 102 OFFCURVE",
"547 131 CURVE SMOOTH",
"547 150 OFFCURVE",
"550 164 OFFCURVE",
"553 177 CURVE SMOOTH",
"628 525 LINE",
"495 525 LINE",
"475 434 LINE",
"475 430 LINE",
"471 430 LINE",
"471 432 LINE",
"464 460 OFFCURVE",
"437 537 OFFCURVE",
"320 537 CURVE SMOOTH",
"154 537 OFFCURVE",
"36 386 OFFCURVE",
"36 209 CURVE SMOOTH",
"36 79 OFFCURVE",
"98 -8 OFFCURVE",
"214 -8 CURVE SMOOTH",
"335 -8 OFFCURVE",
"401 88 OFFCURVE",
"409 106 CURVE",
"413 106 LINE",
"413 104 OFFCURVE",
"413 104 OFFCURVE",
"413 99 CURVE SMOOTH",
"413 32 OFFCURVE",
"456 -8 OFFCURVE",
"518 -8 CURVE SMOOTH",
"561 -8 OFFCURVE",
"613 11 OFFCURVE",
"642 51 CURVE",
"604 -24 LINE"
);
},
{
closed = 1;
nodes = (
"220 107 OFFCURVE",
"180 156 OFFCURVE",
"180 231 CURVE SMOOTH",
"180 332 OFFCURVE",
"251 420 OFFCURVE",
"342 420 CURVE SMOOTH",
"415 420 OFFCURVE",
"459 363 OFFCURVE",
"440 271 CURVE SMOOTH",
"433 238 LINE SMOOTH",
"417 164 OFFCURVE",
"347 107 OFFCURVE",
"281 107 CURVE SMOOTH"
);
}
);
width = 689;
}
);
leftMetricsKey = "=o";
rightMetricsKey = "=o-20";
},
{
color = 3;
glyphname = ae;
lastChange = "2020-05-27 15:56:55 +0000";
layers = (
{
background = {
components = (
{
name = e;
transform = "{1, 0, 0, 1, 352, 0}";
},
{
name = a.ss01;
transform = "{1, 0, 0, 1, 8, 0}";
}
);
};
layerId = "E773EBAE-783E-4D91-931E-4E5C9CF0967C";
paths = (
{
closed = 1;
nodes = (
"315 -8 OFFCURVE",
"388 67 OFFCURVE",
"412 116 CURVE",
"412 120 LINE",
"416 120 LINE",
"416 116 LINE",
"436 67 OFFCURVE",
"483 -8 OFFCURVE",
"605 -8 CURVE SMOOTH",
"711 -8 OFFCURVE",
"781 51 OFFCURVE",
"821 98 CURVE",
"780 134 LINE",
"744 94 OFFCURVE",
"694 47 OFFCURVE",
"607 47 CURVE SMOOTH",
"487 47 OFFCURVE",
"441 138 OFFCURVE",
"464 250 CURVE",
"464 254 LINE",
"468 254 LINE",
"468 252 LINE",
"888 252 LINE",
"854 234 LINE",
"868 268 OFFCURVE",
"878 313 OFFCURVE",
"878 347 CURVE SMOOTH",
"878 451 OFFCURVE",
"810 533 OFFCURVE",
"692 533 CURVE SMOOTH",
"610 533 OFFCURVE",
"527 493 OFFCURVE",
"487 434 CURVE",
"487 430 LINE",
"483 430 LINE",
"483 434 LINE",
"467 503 OFFCURVE",
"404 533 OFFCURVE",
"330 533 CURVE SMOOTH",
"257 533 OFFCURVE",
"175 505 OFFCURVE",
"125 445 CURVE",
"172 414 LINE",
"207 454 OFFCURVE",
"262 478 OFFCURVE",
"322 478 CURVE SMOOTH",
"395 478 OFFCURVE",
"445 446 OFFCURVE",
"429 373 CURVE SMOOTH",
"415 311 LINE",
"415 307 LINE",
"411 307 LINE",
"411 309 LINE",
"282 309 LINE SMOOTH",
"148 309 OFFCURVE",
"36 242 OFFCURVE",
"36 133 CURVE SMOOTH",
"36 40 OFFCURVE",
"119 -8 OFFCURVE",
"206 -8 CURVE SMOOTH"
);
},
{
closed = 1;
nodes = (
"140 49 OFFCURVE",
"101 88 OFFCURVE",
"101 140 CURVE SMOOTH",
"101 210 OFFCURVE",
"172 254 OFFCURVE",
"270 254 CURVE SMOOTH",
"399 254 LINE",
"399 256 LINE",
"403 256 LINE",
"403 252 LINE",
"396 218 LINE SMOOTH",
"375 115 OFFCURVE",
"306 49 OFFCURVE",
"212 49 CURVE SMOOTH"
);
},
{
closed = 1;
nodes = (
"479 308 LINE",
"497 393 OFFCURVE",
"578 478 OFFCURVE",
"686 478 CURVE SMOOTH",
"794 478 OFFCURVE",
"831 392 OFFCURVE",
"813 309 CURVE",
"813 304 LINE",
"809 304 LINE",
"809 307 LINE",
"483 307 LINE",
"483 304 LINE",
"479 304 LINE"
);
}
);
width = 915;
},
{
background = {
components = (
{
name = a.ss01;
transform = "{1, 0, 0, 1, -3, 0}";
},
{
name = e;
transform = "{1, 0, 0, 1, 342, 0}";
}
);
};
layerId = "C89E7CB9-06CC-4D85-8773-832B05BA201B";
paths = (
{
closed = 1;
nodes = (
"290 -13 OFFCURVE",
"363 21 OFFCURVE",
"407 82 CURVE",
"407 86 LINE",
"411 86 LINE",
"411 82 LINE",
"447 27 OFFCURVE",
"506 -12 OFFCURVE",
"598 -12 CURVE SMOOTH",
"716 -12 OFFCURVE",
"803 51 OFFCURVE",
"850 104 CURVE",
"768 175 LINE",
"730 138 OFFCURVE",
"681 103 OFFCURVE",
"618 103 CURVE SMOOTH",
"533 103 OFFCURVE",
"494 167 OFFCURVE",
"506 227 CURVE",
"506 231 LINE",
"510 231 LINE",
"510 229 LINE",
"928 229 LINE",
"852 190 LINE",
"878 233 OFFCURVE",
"894 288 OFFCURVE",
"894 337 CURVE SMOOTH",
"894 449 OFFCURVE",
"815 537 OFFCURVE",
"686 537 CURVE SMOOTH",
"607 537 OFFCURVE",
"543 504 OFFCURVE",
"509 474 CURVE",
"509 470 LINE",
"505 470 LINE",
"505 474 LINE",
"474 516 OFFCURVE",
"402 538 OFFCURVE",
"338 538 CURVE SMOOTH",
"261 538 OFFCURVE",
"171 514 OFFCURVE",
"105 446 CURVE",
"184 384 LINE",
"219 416 OFFCURVE",
"262 433 OFFCURVE",
"310 433 CURVE SMOOTH",
"366 433 OFFCURVE",
"414 410 OFFCURVE",
"405 369 CURVE SMOOTH",
"394 320 LINE",
"394 316 LINE",
"390 316 LINE",
"390 318 LINE",
"286 318 LINE SMOOTH",
"152 318 OFFCURVE",
"25 255 OFFCURVE",
"25 133 CURVE SMOOTH",
"25 40 OFFCURVE",
"102 -13 OFFCURVE",
"199 -13 CURVE SMOOTH"
);
},
{
closed = 1;
nodes = (
"183 94 OFFCURVE",
"162 122 OFFCURVE",
"162 154 CURVE SMOOTH",
"162 205 OFFCURVE",
"217 228 OFFCURVE",
"278 228 CURVE SMOOTH",
"370 228 LINE",
"370 230 LINE",
"374 230 LINE",
"374 226 LINE",
"373 219 LINE SMOOTH",
"357 105 OFFCURVE",
"268 94 OFFCURVE",
"233 94 CURVE SMOOTH"
);
},
{
closed = 1;
nodes = (
"524 321 LINE",
"535 370 OFFCURVE",
"594 432 OFFCURVE",
"673 432 CURVE SMOOTH",
"741 432 OFFCURVE",
"784 385 OFFCURVE",
"773 321 CURVE",
"773 317 LINE",
"769 317 LINE",
"769 319 LINE",
"528 319 LINE",
"528 317 LINE",
"524 317 LINE"
);
}
);
width = 925;
}
);
leftMetricsKey = "=a.ss01";
rightMetricsKey = "=e";
unicode = 00E6;
},
{
color = 6;
glyphname = b;
lastChange = "2020-05-15 09:20:25 +0000";
layers = (
{
background = {
paths = (
{
closed = 1;
nodes = (
"443 -14 OFFCURVE",
"570 163 OFFCURVE",
"570 338 CURVE SMOOTH",
"570 458 OFFCURVE",
"502 534 OFFCURVE",
"392 534 CURVE SMOOTH",
"307 534 OFFCURVE",
"239 487 OFFCURVE",
"190 428 CURVE",
"190 426 LINE",
"186 426 LINE",
"251 735 LINE",
"190 735 LINE",
"35 0 LINE",
"86 0 LINE",
"118 104 LINE",
"118 108 LINE",
"122 108 LINE",
"122 106 LINE",
"136 46 OFFCURVE",
"190 -14 OFFCURVE",
"278 -14 CURVE SMOOTH"
);
},
{
closed = 1;
nodes = (
"182 53 OFFCURVE",
"122 138 OFFCURVE",
"149 253 CURVE SMOOTH",
"156 283 LINE SMOOTH",
"171 347 OFFCURVE",
"255 474 OFFCURVE",
"376 474 CURVE SMOOTH",
"459 474 OFFCURVE",
"505 419 OFFCURVE",
"505 327 CURVE SMOOTH",
"505 189 OFFCURVE",
"410 53 OFFCURVE",
"277 53 CURVE SMOOTH"
);
}
);
};
layerId = "E773EBAE-783E-4D91-931E-4E5C9CF0967C";
paths = (
{
closed = 1;
nodes = (
"441 -14 OFFCURVE",
"570 164 OFFCURVE",
"570 335 CURVE SMOOTH",
"570 459 OFFCURVE",
"501 534 OFFCURVE",
"392 534 CURVE SMOOTH",
"306 534 OFFCURVE",
"239 487 OFFCURVE",
"190 428 CURVE",
"190 426 LINE",
"186 426 LINE",
"186 430 LINE",
"251 735 LINE",
"190 735 LINE",
"35 0 LINE",
"86 0 LINE",
"118 104 LINE",
"118 108 LINE",
"122 108 LINE",
"122 106 LINE",
"136 46 OFFCURVE",
"188 -14 OFFCURVE",
"281 -14 CURVE SMOOTH"
);
},
{
closed = 1;
nodes = (
"180 53 OFFCURVE",
"122 138 OFFCURVE",
"149 253 CURVE SMOOTH",
"156 283 LINE SMOOTH",
"171 347 OFFCURVE",
"254 474 OFFCURVE",
"377 474 CURVE SMOOTH",
"458 474 OFFCURVE",
"505 420 OFFCURVE",
"505 325 CURVE SMOOTH",
"505 190 OFFCURVE",
"408 53 OFFCURVE",
"281 53 CURVE SMOOTH"
);
}
);
width = 613;
},
{
background = {
paths = (
{
closed = 1;
nodes = (
"503 -8 OFFCURVE",
"627 164 OFFCURVE",
"627 338 CURVE SMOOTH",
"627 458 OFFCURVE",
"572 537 OFFCURVE",
"454 537 CURVE SMOOTH",
"371 537 OFFCURVE",
"293 475 OFFCURVE",
"261 428 CURVE",
"261 426 LINE",
"257 426 LINE",
"324 743 LINE",
"191 743 LINE",
"34 0 LINE",
"147 0 LINE",
"186 84 LINE",
"186 88 LINE",
"190 88 LINE",
"190 86 LINE",
"220 19 OFFCURVE",
"271 -8 OFFCURVE",
"346 -8 CURVE SMOOTH"
);
},
{
closed = 1;
nodes = (
"239 107 OFFCURVE",
"202 172 OFFCURVE",
"220 252 CURVE SMOOTH",
"229 293 LINE SMOOTH",
"244 362 OFFCURVE",
"316 422 OFFCURVE",
"391 422 CURVE SMOOTH",
"453 422 OFFCURVE",
"487 386 OFFCURVE",
"487 310 CURVE SMOOTH",
"487 211 OFFCURVE",
"414 107 OFFCURVE",
"314 107 CURVE SMOOTH"
);
}
);
};
layerId = "C89E7CB9-06CC-4D85-8773-832B05BA201B";
paths = (
{
closed = 1;
nodes = (
"506 -8 OFFCURVE",
"627 164 OFFCURVE",
"627 338 CURVE SMOOTH",
"627 458 OFFCURVE",
"567 537 OFFCURVE",
"460 537 CURVE SMOOTH",
"366 537 OFFCURVE",
"293 475 OFFCURVE",
"261 428 CURVE",
"261 426 LINE",
"257 426 LINE",
"257 430 LINE",
"324 743 LINE",
"181 743 LINE",
"24 0 LINE",
"147 0 LINE",
"186 84 LINE",
"186 88 LINE",
"190 88 LINE",
"190 86 LINE",
"220 19 OFFCURVE",
"274 -8 OFFCURVE",
"339 -8 CURVE SMOOTH"
);
},
{
closed = 1;
nodes = (
"238 107 OFFCURVE",
"202 172 OFFCURVE",
"220 252 CURVE SMOOTH",
"229 293 LINE SMOOTH",
"244 362 OFFCURVE",
"313 422 OFFCURVE",
"390 422 CURVE SMOOTH",
"453 422 OFFCURVE",
"487 383 OFFCURVE",
"487 313 CURVE SMOOTH",
"487 210 OFFCURVE",
"413 107 OFFCURVE",
"316 107 CURVE SMOOTH"
);
}
);
width = 661;
}
);
leftMetricsKey = "=h";
rightMetricsKey = "=o";
unicode = 0062;
},
{
color = 6;
glyphname = c;
lastChange = "2020-05-11 14:45:27 +0000";
layers = (
{
background = {
paths = (
{
closed = 1;
nodes = (
"334 -8 OFFCURVE",
"416 30 OFFCURVE",
"472 114 CURVE",
"482 81 LINE",
"394 145 LINE",
"429 145 LINE",
"384 79 OFFCURVE",
"323 47 OFFCURVE",
"267 47 CURVE SMOOTH",
"179 47 OFFCURVE",
"122 117 OFFCURVE",
"122 225 CURVE SMOOTH",
"122 366 OFFCURVE",
"222 478 OFFCURVE",
"337 478 CURVE SMOOTH",
"401 478 OFFCURVE",
"455 442 OFFCURVE",
"483 382 CURVE",
"450 387 LINE",
"552 442 LINE",
"535 413 LINE",
"506 483 OFFCURVE",
"428 533 OFFCURVE",
"352 533 CURVE SMOOTH",
"176 533 OFFCURVE",
"52 383 OFFCURVE",
"52 211 CURVE SMOOTH",
"52 76 OFFCURVE",
"149 -8 OFFCURVE",
"257 -8 CURVE SMOOTH"
);
}
);
};
guideLines = (
{
angle = 270;
position = "{295, 20}";
}
);
layerId = "E773EBAE-783E-4D91-931E-4E5C9CF0967C";
paths = (
{
closed = 1;
nodes = (
"342 -8 OFFCURVE",
"430 67 OFFCURVE",
"463 110 CURVE",
"476 83 LINE",
"387 144 LINE",
"421 146 LINE",
"389 103 OFFCURVE",
"318 47 OFFCURVE",
"243 47 CURVE SMOOTH",
"167 47 OFFCURVE",
"109 104 OFFCURVE",
"109 206 CURVE SMOOTH",
"109 336 OFFCURVE",
"204 478 OFFCURVE",
"337 478 CURVE SMOOTH",
"415 478 OFFCURVE",
"452 429 OFFCURVE",
"462 383 CURVE",
"437 386 LINE",
"543 440 LINE",
"520 413 LINE",
"510 459 OFFCURVE",
"458 533 OFFCURVE",
"347 533 CURVE SMOOTH",
"180 533 OFFCURVE",
"43 367 OFFCURVE",
"43 198 CURVE SMOOTH",
"43 67 OFFCURVE",
"126 -8 OFFCURVE",
"234 -8 CURVE SMOOTH"
);
}
);
width = 538;
},
{
background = {
paths = (
{
closed = 1;
nodes = (
"385 -12 OFFCURVE",
"452 55 OFFCURVE",
"500 119 CURVE",
"527 59 LINE",
"354 195 LINE",
"427 183 LINE",
"392 142 OFFCURVE",
"354 103 OFFCURVE",
"285 103 CURVE SMOOTH",
"215 103 OFFCURVE",
"176 155 OFFCURVE",
"176 243 CURVE SMOOTH",
"176 343 OFFCURVE",
"239 422 OFFCURVE",
"319 422 CURVE SMOOTH",
"378 422 OFFCURVE",
"423 391 OFFCURVE",
"448 332 CURVE",
"385 340 LINE",
"589 449 LINE",
"547 391 LINE",
"522 462 OFFCURVE",
"454 537 OFFCURVE",
"334 537 CURVE SMOOTH",
"164 537 OFFCURVE",
"31 400 OFFCURVE",
"31 219 CURVE SMOOTH",
"31 83 OFFCURVE",
"136 -12 OFFCURVE",
"258 -12 CURVE SMOOTH"
);
}
);
};
layerId = "C89E7CB9-06CC-4D85-8773-832B05BA201B";
paths = (
{
closed = 1;
nodes = (
"373 -12 OFFCURVE",
"463 78 OFFCURVE",
"502 138 CURVE",
"520 82 LINE",
"361 184 LINE",
"409 193 LINE",
"363 130 OFFCURVE",
"315 103 OFFCURVE",
"269 103 CURVE SMOOTH",
"212 103 OFFCURVE",
"174 145 OFFCURVE",
"174 218 CURVE SMOOTH",
"174 316 OFFCURVE",
"241 422 OFFCURVE",
"336 422 CURVE SMOOTH",
"389 422 OFFCURVE",
"418 390 OFFCURVE",
"428 340 CURVE",
"395 348 LINE",
"593 443 LINE",
"550 387 LINE",
"537 447 OFFCURVE",
"494 537 OFFCURVE",
"359 537 CURVE SMOOTH",
"181 537 OFFCURVE",
"33 379 OFFCURVE",
"33 199 CURVE SMOOTH",
"33 56 OFFCURVE",
"129 -12 OFFCURVE",
"242 -12 CURVE SMOOTH"
);
}
);
width = 554;
}
);
leftMetricsKey = "=o";
rightMetricsKey = "=o";
unicode = 0063;
},
{
color = 6;
glyphname = d;
lastChange = "2020-05-15 09:20:40 +0000";
layers = (
{
background = {
paths = (
{
closed = 1;
nodes = (
"295 -7 OFFCURVE",
"377 28 OFFCURVE",
"427 105 CURVE",
"427 107 LINE",
"431 107 LINE",
"408 0 LINE",
"469 0 LINE",
"625 735 LINE",
"564 735 LINE",
"498 425 LINE",
"494 425 LINE",
"494 427 LINE",
"471 486 OFFCURVE",
"423 533 OFFCURVE",
"338 533 CURVE SMOOTH",
"175 533 OFFCURVE",
"47 380 OFFCURVE",
"47 210 CURVE SMOOTH",
"47 71 OFFCURVE",
"128 -7 OFFCURVE",
"228 -7 CURVE SMOOTH"
);
},
{
closed = 1;
nodes = (
"166 52 OFFCURVE",
"112 119 OFFCURVE",
"112 222 CURVE SMOOTH",
"112 352 OFFCURVE",
"206 473 OFFCURVE",
"338 473 CURVE SMOOTH",
"446 473 OFFCURVE",
"486 369 OFFCURVE",
"469 288 CURVE SMOOTH",
"460 246 LINE SMOOTH",
"436 135 OFFCURVE",
"351 52 OFFCURVE",
"249 52 CURVE SMOOTH"
);
}
);
};
layerId = "E773EBAE-783E-4D91-931E-4E5C9CF0967C";
paths = (
{
closed = 1;
nodes = (
"294 -7 OFFCURVE",
"377 28 OFFCURVE",
"427 105 CURVE",
"427 107 LINE",
"431 107 LINE",
"431 103 LINE",
"408 0 LINE",
"469 0 LINE",
"625 735 LINE",
"564 735 LINE",
"498 429 LINE",
"498 425 LINE",
"494 425 LINE",
"494 427 LINE",
"471 486 OFFCURVE",
"424 533 OFFCURVE",
"335 533 CURVE SMOOTH",
"176 533 OFFCURVE",
"47 382 OFFCURVE",
"47 210 CURVE SMOOTH",
"47 73 OFFCURVE",
"128 -7 OFFCURVE",
"228 -7 CURVE SMOOTH"
);
},
{
closed = 1;
nodes = (
"163 52 OFFCURVE",
"112 121 OFFCURVE",
"112 220 CURVE SMOOTH",
"112 354 OFFCURVE",
"209 473 OFFCURVE",
"333 473 CURVE SMOOTH",
"449 473 OFFCURVE",
"486 369 OFFCURVE",
"469 288 CURVE SMOOTH",
"460 246 LINE SMOOTH",
"436 135 OFFCURVE",
"348 52 OFFCURVE",
"251 52 CURVE SMOOTH"
);
}
);
width = 615;
},
{
background = {
paths = (
{
closed = 1;
nodes = (
"280 -11 OFFCURVE",
"346 19 OFFCURVE",
"391 87 CURVE",
"391 89 LINE",
"396 89 LINE",
"377 0 LINE",
"510 0 LINE",
"667 743 LINE",
"534 743 LINE",
"467 426 LINE",
"463 426 LINE",
"463 428 LINE",
"451 475 OFFCURVE",
"411 537 OFFCURVE",
"318 537 CURVE SMOOTH",
"149 537 OFFCURVE",
"35 375 OFFCURVE",
"35 198 CURVE SMOOTH",
"35 67 OFFCURVE",
"118 -11 OFFCURVE",
"217 -11 CURVE SMOOTH"
);
},
{
closed = 1;
nodes = (
"213 107 OFFCURVE",
"175 151 OFFCURVE",
"175 226 CURVE SMOOTH",
"175 327 OFFCURVE",
"239 422 OFFCURVE",
"343 422 CURVE SMOOTH",
"411 422 OFFCURVE",
"458 363 OFFCURVE",
"435 273 CURVE SMOOTH",
"432 261 LINE SMOOTH",
"412 182 OFFCURVE",
"353 107 OFFCURVE",
"276 107 CURVE SMOOTH"
);
}
);
};
layerId = "C89E7CB9-06CC-4D85-8773-832B05BA201B";
paths = (
{
closed = 1;
nodes = (
"279 -11 OFFCURVE",
"346 19 OFFCURVE",
"391 87 CURVE",
"391 89 LINE",
"395 89 LINE",
"395 85 LINE",
"377 0 LINE",
"520 0 LINE",
"677 743 LINE",
"534 743 LINE",
"468 430 LINE",
"468 426 LINE",
"464 426 LINE",
"464 428 LINE",
"452 475 OFFCURVE",
"413 537 OFFCURVE",
"313 537 CURVE SMOOTH",
"151 537 OFFCURVE",
"35 375 OFFCURVE",
"35 206 CURVE SMOOTH",
"35 67 OFFCURVE",
"117 -11 OFFCURVE",
"217 -11 CURVE SMOOTH"
);
},
{
closed = 1;
nodes = (
"213 107 OFFCURVE",
"175 152 OFFCURVE",
"175 227 CURVE SMOOTH",
"175 328 OFFCURVE",
"242 422 OFFCURVE",
"339 422 CURVE SMOOTH",
"416 422 OFFCURVE",
"458 363 OFFCURVE",
"435 273 CURVE SMOOTH",
"432 261 LINE SMOOTH",
"412 182 OFFCURVE",
"353 107 OFFCURVE",
"274 107 CURVE SMOOTH"
);
}
);
width = 657;
}
);
leftMetricsKey = "=o";
rightMetricsKey = "=I";
unicode = 0064;
},
{
color = 7;
glyphname = d.ss17;
lastChange = "2020-05-15 09:25:29 +0000";
layers = (
{
background = {
paths = (
{
closed = 1;
nodes = (
"570 82 LINE",
"581 56 LINE",
"566 51 OFFCURVE",
"538 48 OFFCURVE",
"519 48 CURVE SMOOTH",
"498 48 OFFCURVE",
"487 63 OFFCURVE",
"487 77 CURVE SMOOTH",
"487 83 OFFCURVE",
"487 91 OFFCURVE",
"490 104 CURVE SMOOTH",
"624 735 LINE",
"563 735 LINE",
"497 425 LINE",
"493 425 LINE",
"493 427 LINE",
"470 486 OFFCURVE",
"422 533 OFFCURVE",
"337 533 CURVE SMOOTH",
"174 533 OFFCURVE",
"46 380 OFFCURVE",
"46 210 CURVE SMOOTH",
"46 71 OFFCURVE",
"127 -7 OFFCURVE",
"227 -7 CURVE SMOOTH",
"294 -7 OFFCURVE",
"376 28 OFFCURVE",
"426 105 CURVE",
"426 107 LINE",
"430 107 LINE",
"427 93 OFFCURVE",
"424 78 OFFCURVE",
"424 64 CURVE SMOOTH",
"424 21 OFFCURVE",
"457 -6 OFFCURVE",
"497 -6 CURVE SMOOTH",
"526 -6 OFFCURVE",
"549 3 OFFCURVE",
"568 13 CURVE",
"547 -20 LINE"
);
},
{
closed = 1;
nodes = (
"159 52 OFFCURVE",
"111 119 OFFCURVE",
"111 222 CURVE SMOOTH",
"111 352 OFFCURVE",
"205 473 OFFCURVE",
"337 473 CURVE SMOOTH",
"435 473 OFFCURVE",
"472 397 OFFCURVE",
"472 324 CURVE SMOOTH",
"472 308 OFFCURVE",
"469 292 OFFCURVE",
"459 246 CURVE SMOOTH",
"435 135 OFFCURVE",
"350 52 OFFCURVE",
"248 52 CURVE SMOOTH"
);
}
);
};
layerId = "E773EBAE-783E-4D91-931E-4E5C9CF0967C";
paths = (
{
closed = 1;
nodes = (
"571 82 LINE",
"582 56 LINE",
"567 51 OFFCURVE",
"539 48 OFFCURVE",
"520 48 CURVE SMOOTH",
"493 48 OFFCURVE",
"480 68 OFFCURVE",
"488 104 CURVE SMOOTH",
"625 735 LINE",
"564 735 LINE",
"498 425 LINE",
"494 425 LINE",
"494 427 LINE",
"471 486 OFFCURVE",
"424 533 OFFCURVE",
"335 533 CURVE SMOOTH",
"176 533 OFFCURVE",
"47 382 OFFCURVE",
"47 210 CURVE SMOOTH",
"47 73 OFFCURVE",
"128 -7 OFFCURVE",
"228 -7 CURVE SMOOTH",
"294 -7 OFFCURVE",
"377 28 OFFCURVE",
"427 105 CURVE",
"427 107 LINE",
"431 107 LINE",
"431 103 LINE",
"428 90 OFFCURVE",
"425 77 OFFCURVE",
"425 64 CURVE SMOOTH",
"425 19 OFFCURVE",
"456 -7 OFFCURVE",
"499 -7 CURVE SMOOTH",
"520 -7 OFFCURVE",
"549 -1 OFFCURVE",
"574 12 CURVE",
"548 -20 LINE"
);
},
{
closed = 1;
nodes = (
"163 52 OFFCURVE",
"112 121 OFFCURVE",
"112 220 CURVE SMOOTH",
"112 354 OFFCURVE",
"209 473 OFFCURVE",
"333 473 CURVE SMOOTH",
"449 473 OFFCURVE",
"486 369 OFFCURVE",
"469 288 CURVE SMOOTH",
"460 246 LINE SMOOTH",
"436 135 OFFCURVE",
"348 52 OFFCURVE",
"251 52 CURVE SMOOTH"
);
}
);
width = 639;
},
{
background = {
paths = (
{
closed = 1;
nodes = (
"335 426 LINE",
"331 426 LINE",
"331 428 LINE",
"319 475 OFFCURVE",
"279 537 OFFCURVE",
"186 537 CURVE SMOOTH",
"17 537 OFFCURVE",
"-99 375 OFFCURVE",
"-99 198 CURVE SMOOTH",
"-99 67 OFFCURVE",
"-14 -11 OFFCURVE",
"85 -11 CURVE SMOOTH",
"148 -11 OFFCURVE",
"214 19 OFFCURVE",
"259 87 CURVE",
"259 89 LINE",
"264 89 LINE",
"245 0 LINE",
"377 0 LINE",
"534 743 LINE",
"402 743 LINE"
);
}
);
};
layerId = "C89E7CB9-06CC-4D85-8773-832B05BA201B";
paths = (
{
closed = 1;
nodes = (
"635 148 LINE",
"673 106 LINE",
"633 91 OFFCURVE",
"607 87 OFFCURVE",
"582 87 CURVE SMOOTH",
"544 87 OFFCURVE",
"541 124 OFFCURVE",
"553 178 CURVE SMOOTH",
"677 743 LINE",
"534 743 LINE",
"467 426 LINE",
"463 426 LINE",
"463 428 LINE",
"451 475 OFFCURVE",
"413 537 OFFCURVE",
"313 537 CURVE SMOOTH",
"151 537 OFFCURVE",
"35 375 OFFCURVE",
"35 206 CURVE SMOOTH",
"35 67 OFFCURVE",
"116 -11 OFFCURVE",
"223 -11 CURVE SMOOTH",
"300 -11 OFFCURVE",
"369 30 OFFCURVE",
"405 100 CURVE",
"405 102 LINE",
"409 102 LINE",
"409 99 LINE",
"409 97 OFFCURVE",
"409 96 OFFCURVE",
"409 94 CURVE SMOOTH",
"409 27 OFFCURVE",
"451 -7 OFFCURVE",
"513 -7 CURVE SMOOTH",
"556 -7 OFFCURVE",
"608 12 OFFCURVE",
"638 53 CURVE",
"597 -33 LINE"
);
},
{
closed = 1;
nodes = (
"213 107 OFFCURVE",
"175 152 OFFCURVE",
"175 227 CURVE SMOOTH",
"175 328 OFFCURVE",
"242 422 OFFCURVE",
"339 422 CURVE SMOOTH",
"416 422 OFFCURVE",
"458 363 OFFCURVE",
"435 273 CURVE SMOOTH",
"432 261 LINE SMOOTH",
"412 182 OFFCURVE",
"353 107 OFFCURVE",
"274 107 CURVE SMOOTH"
);
}
);
width = 681;
}
);
leftMetricsKey = "=o";
rightMetricsKey = "=o-20";
},
{
color = 6;
glyphname = e;
lastChange = "2020-05-27 16:47:11 +0000";
layers = (
{
background = {
paths = (
{
closed = 1;
nodes = (
"378 -8 OFFCURVE",
"452 79 OFFCURVE",
"483 115 CURVE",
"486 83 LINE",
"417 147 LINE",
"447 144 LINE",
"410 105 OFFCURVE",
"356 47 OFFCURVE",
"261 47 CURVE SMOOTH",
"161 47 OFFCURVE",
"107 110 OFFCURVE",
"107 196 CURVE SMOOTH",
"107 213 OFFCURVE",
"109 231 OFFCURVE",
"113 250 CURVE",
"114 254 LINE",
"118 254 LINE",
"117 252 LINE",
"533 252 LINE",
"496 233 LINE",
"512 265 OFFCURVE",
"526 311 OFFCURVE",
"526 355 CURVE SMOOTH",
"526 452 OFFCURVE",
"459 533 OFFCURVE",
"341 533 CURVE SMOOTH",
"168 533 OFFCURVE",
"46 370 OFFCURVE",
"46 207 CURVE SMOOTH",
"46 68 OFFCURVE",
"135 -8 OFFCURVE",
"253 -8 CURVE SMOOTH"
);
},
{
closed = 1;
nodes = (
"127 309 LINE",
"145 394 OFFCURVE",
"226 478 OFFCURVE",
"334 478 CURVE SMOOTH",
"425 478 OFFCURVE",
"467 417 OFFCURVE",
"467 347 CURVE SMOOTH",
"467 335 OFFCURVE",
"466 322 OFFCURVE",
"463 309 CURVE",
"462 304 LINE",
"458 304 LINE",
"459 307 LINE",
"131 307 LINE",
"130 304 LINE",
"126 304 LINE"
);
}
);
};
layerId = "E773EBAE-783E-4D91-931E-4E5C9CF0967C";
paths = (
{
closed = 1;
nodes = (
"428 134 LINE",
"392 94 OFFCURVE",
"342 47 OFFCURVE",
"255 47 CURVE SMOOTH",
"135 47 OFFCURVE",
"89 138 OFFCURVE",
"112 250 CURVE",
"112 254 LINE",
"116 254 LINE",
"116 252 LINE",
"533 252 LINE",
"493 216 LINE",
"513 253 OFFCURVE",
"526 306 OFFCURVE",
"526 348 CURVE SMOOTH",
"526 451 OFFCURVE",
"457 533 OFFCURVE",
"340 533 CURVE SMOOTH",
"168 533 OFFCURVE",
"45 376 OFFCURVE",
"45 200 CURVE SMOOTH",
"45 74 OFFCURVE",
"131 -8 OFFCURVE",
"254 -8 CURVE SMOOTH",
"360 -8 OFFCURVE",
"430 52 OFFCURVE",
"469 98 CURVE"
);
},
{
closed = 1;
nodes = (
"127 308 LINE",
"145 393 OFFCURVE",
"226 478 OFFCURVE",
"334 478 CURVE SMOOTH",
"442 478 OFFCURVE",
"479 392 OFFCURVE",
"461 309 CURVE",
"461 304 LINE",
"457 304 LINE",
"457 307 LINE",
"131 307 LINE",
"131 304 LINE",
"127 304 LINE"
);
}
);
width = 564;
},
{
background = {
paths = (
{
closed = 1;
nodes = (
"386 -12 OFFCURVE",
"473 72 OFFCURVE",
"516 128 CURVE",
"551 66 LINE",
"406 193 LINE",
"442 191 LINE",
"401 149 OFFCURVE",
"349 103 OFFCURVE",
"275 103 CURVE SMOOTH",
"199 103 OFFCURVE",
"162 152 OFFCURVE",
"162 204 CURVE SMOOTH",
"162 211 OFFCURVE",
"162 219 OFFCURVE",
"164 227 CURVE",
"165 231 LINE",
"169 231 LINE",
"168 229 LINE",
"588 229 LINE",
"514 196 LINE",
"534 230 OFFCURVE",
"552 295 OFFCURVE",
"552 341 CURVE SMOOTH",
"552 445 OFFCURVE",
"474 537 OFFCURVE",
"345 537 CURVE SMOOTH",
"171 537 OFFCURVE",
"35 379 OFFCURVE",
"35 203 CURVE SMOOTH",
"35 79 OFFCURVE",
"116 -12 OFFCURVE",
"253 -12 CURVE SMOOTH"
);
},
{
closed = 1;
nodes = (
"183 321 LINE",
"193 370 OFFCURVE",
"253 432 OFFCURVE",
"332 432 CURVE SMOOTH",
"402 432 OFFCURVE",
"433 384 OFFCURVE",
"433 339 CURVE SMOOTH",
"433 333 OFFCURVE",
"432 327 OFFCURVE",
"431 321 CURVE",
"430 317 LINE",
"426 317 LINE",
"426 319 LINE",
"186 319 LINE",
"186 317 LINE",
"182 317 LINE"
);
}
);
};
layerId = "C89E7CB9-06CC-4D85-8773-832B05BA201B";
paths = (
{
closed = 1;
nodes = (
"426 175 LINE",
"388 138 OFFCURVE",
"339 103 OFFCURVE",
"277 103 CURVE SMOOTH",
"198 103 OFFCURVE",
"151 157 OFFCURVE",
"164 227 CURVE",
"164 231 LINE",
"168 231 LINE",
"168 229 LINE",
"588 229 LINE",
"514 196 LINE",
"534 230 OFFCURVE",
"552 291 OFFCURVE",
"552 341 CURVE SMOOTH",
"552 445 OFFCURVE",
"475 537 OFFCURVE",
"343 537 CURVE SMOOTH",
"172 537 OFFCURVE",
"35 384 OFFCURVE",
"35 208 CURVE SMOOTH",
"35 84 OFFCURVE",
"116 -12 OFFCURVE",
"255 -12 CURVE SMOOTH",
"374 -12 OFFCURVE",
"461 51 OFFCURVE",
"508 104 CURVE"
);
},
{
closed = 1;
nodes = (
"182 321 LINE",
"192 370 OFFCURVE",
"253 432 OFFCURVE",
"332 432 CURVE SMOOTH",
"399 432 OFFCURVE",
"442 385 OFFCURVE",
"431 321 CURVE",
"431 317 LINE",
"427 317 LINE",
"427 319 LINE",
"186 319 LINE",
"186 317 LINE",
"182 317 LINE"
);
}
);
width = 583;
}
);
leftMetricsKey = "=o";
rightMetricsKey = "=o";
unicode = 0065;
},
{
color = 6;
glyphname = e.ss17;
lastChange = "2020-05-11 14:45:27 +0000";
layers = (
{
background = {
paths = (
{
closed = 1;
nodes = (
"333 -8 OFFCURVE",
"418 30 OFFCURVE",
"475 114 CURVE",
"481 77 LINE",
"416 150 LINE",
"448 147 LINE",
"393 76 OFFCURVE",
"321 47 OFFCURVE",
"258 47 CURVE SMOOTH",
"178 47 OFFCURVE",
"112 102 OFFCURVE",
"112 212 CURVE SMOOTH",
"112 215 OFFCURVE",
"112 218 OFFCURVE",
"112 222 CURVE",
"112 226 LINE",
"116 226 LINE",
"116 224 LINE",
"336 251 OFFCURVE",
"507 281 OFFCURVE",
"507 401 CURVE SMOOTH",
"507 470 OFFCURVE",
"450 533 OFFCURVE",
"348 533 CURVE SMOOTH",
"197 533 OFFCURVE",
"48 394 OFFCURVE",
"48 221 CURVE SMOOTH",
"48 70 OFFCURVE",
"141 -8 OFFCURVE",
"252 -8 CURVE SMOOTH"
);
},
{
closed = 1;
nodes = (
"118 276 LINE",
"118 349 OFFCURVE",
"214 483 OFFCURVE",
"341 483 CURVE SMOOTH",
"403 483 OFFCURVE",
"444 442 OFFCURVE",
"444 400 CURVE SMOOTH",
"444 333 OFFCURVE",
"294 294 OFFCURVE",
"122 275 CURVE",
"122 272 LINE",
"118 272 LINE"
);
}
);
};
layerId = "E773EBAE-783E-4D91-931E-4E5C9CF0967C";
paths = (
{
closed = 1;
nodes = (
"332 -8 OFFCURVE",
"423 28 OFFCURVE",
"480 112 CURVE",
"492 84 LINE",
"414 150 LINE",
"448 147 LINE",
"393 76 OFFCURVE",
"319 47 OFFCURVE",
"259 47 CURVE SMOOTH",
"176 47 OFFCURVE",
"112 102 OFFCURVE",
"112 212 CURVE SMOOTH",
"112 215 OFFCURVE",
"112 218 OFFCURVE",
"112 222 CURVE",
"112 226 LINE",
"116 226 LINE",
"116 224 LINE",
"336 251 OFFCURVE",
"507 281 OFFCURVE",
"507 401 CURVE SMOOTH",
"507 470 OFFCURVE",
"450 533 OFFCURVE",
"348 533 CURVE SMOOTH",
"197 533 OFFCURVE",
"48 397 OFFCURVE",
"48 220 CURVE SMOOTH",
"48 73 OFFCURVE",
"140 -8 OFFCURVE",
"254 -8 CURVE SMOOTH"
);
},
{
closed = 1;
nodes = (
"118 280 LINE",
"128 364 OFFCURVE",
"227 483 OFFCURVE",
"339 483 CURVE SMOOTH",
"406 483 OFFCURVE",
"444 440 OFFCURVE",
"444 403 CURVE SMOOTH",
"444 330 OFFCURVE",
"294 298 OFFCURVE",
"122 279 CURVE",
"122 276 LINE",
"118 276 LINE"
);
}
);
width = 556;
},
{
background = {
paths = (
{
closed = 1;
nodes = (
"396 -14 OFFCURVE",
"498 63 OFFCURVE",
"522 109 CURVE",
"534 53 LINE",
"405 199 LINE",
"471 182 LINE",
"426 129 OFFCURVE",
"359 96 OFFCURVE",
"283 96 CURVE SMOOTH",
"219 96 OFFCURVE",
"164 132 OFFCURVE",
"164 200 CURVE SMOOTH",
"164 202 OFFCURVE",
"164 205 OFFCURVE",
"164 207 CURVE",
"164 211 LINE",
"168 211 LINE",
"168 209 LINE",
"386 226 OFFCURVE",
"528 285 OFFCURVE",
"528 385 CURVE SMOOTH",
"528 481 OFFCURVE",
"453 541 OFFCURVE",
"341 541 CURVE SMOOTH",
"200 541 OFFCURVE",
"37 403 OFFCURVE",
"37 224 CURVE SMOOTH",
"37 72 OFFCURVE",
"143 -14 OFFCURVE",
"265 -14 CURVE SMOOTH"
);
},
{
closed = 1;
nodes = (
"170 298 LINE",
"170 354 OFFCURVE",
"249 436 OFFCURVE",
"331 436 CURVE SMOOTH",
"373 436 OFFCURVE",
"402 415 OFFCURVE",
"402 385 CURVE SMOOTH",
"402 340 OFFCURVE",
"314 308 OFFCURVE",
"174 296 CURVE",
"174 294 LINE",
"170 294 LINE"
);
}
);
};
layerId = "C89E7CB9-06CC-4D85-8773-832B05BA201B";
paths = (
{
closed = 1;
nodes = (
"399 -14 OFFCURVE",
"491 66 OFFCURVE",
"515 112 CURVE",
"538 68 LINE",
"389 194 LINE",
"464 185 LINE",
"419 132 OFFCURVE",
"360 96 OFFCURVE",
"289 96 CURVE SMOOTH",
"217 96 OFFCURVE",
"164 132 OFFCURVE",
"164 200 CURVE SMOOTH",
"164 202 OFFCURVE",
"164 205 OFFCURVE",
"164 207 CURVE",
"164 211 LINE",
"168 211 LINE",
"168 209 LINE",
"386 226 OFFCURVE",
"528 279 OFFCURVE",
"528 393 CURVE SMOOTH",
"528 477 OFFCURVE",
"452 541 OFFCURVE",
"348 541 CURVE SMOOTH",
"197 541 OFFCURVE",
"37 405 OFFCURVE",
"37 222 CURVE SMOOTH",
"37 74 OFFCURVE",
"140 -14 OFFCURVE",
"271 -14 CURVE SMOOTH"
);
},
{
closed = 1;
nodes = (
"170 298 LINE",
"170 354 OFFCURVE",
"249 436 OFFCURVE",
"333 436 CURVE SMOOTH",
"372 436 OFFCURVE",
"402 419 OFFCURVE",
"402 390 CURVE SMOOTH",
"402 338 OFFCURVE",
"304 305 OFFCURVE",
"174 296 CURVE",
"174 294 LINE",
"170 294 LINE"
);
}
);
width = 581;
}
);
leftMetricsKey = "=o";
rightMetricsKey = "=o";
},
{
color = 3;
glyphname = eacute;
lastChange = "2020-05-11 14:45:27 +0000";
layers = (
{
background = {
paths = (
{
closed = 1;
nodes = (
"504 242 LINE",
"513 269 OFFCURVE",
"522 314 OFFCURVE",
"522 346 CURVE SMOOTH",
"522 420 OFFCURVE",
"472 533 OFFCURVE",
"329 533 CURVE SMOOTH",
"148 533 OFFCURVE",
"44 361 OFFCURVE",
"44 211 CURVE SMOOTH",
"44 95 OFFCURVE",
"96 -8 OFFCURVE",
"241 -8 CURVE SMOOTH",
"365 -8 OFFCURVE",
"438 58 OFFCURVE",
"464 97 CURVE",
"423 126 LINE",
"395 94 OFFCURVE",
"343 47 OFFCURVE",
"251 47 CURVE SMOOTH",
"160 47 OFFCURVE",
"109 107 OFFCURVE",
"109 203 CURVE SMOOTH",
"109 215 OFFCURVE",
"110 227 OFFCURVE",
"112 240 CURVE",
"112 244 LINE",
"116 244 LINE",
"116 242 LINE"
);
},
{
closed = 1;
nodes = (
"122 298 LINE",
"148 408 OFFCURVE",
"216 478 OFFCURVE",
"319 478 CURVE SMOOTH",
"404 478 OFFCURVE",
"461 427 OFFCURVE",
"461 338 CURVE SMOOTH",
"461 326 OFFCURVE",
"460 313 OFFCURVE",
"458 299 CURVE",
"458 295 LINE",
"454 295 LINE",
"454 297 LINE",
"126 297 LINE",
"126 294 LINE",
"122 294 LINE"
);
}
);
};
components = (
{
name = acutecomb;
transform = "{1, 0, 0, 1, 160, 0}";
}
);
guideLines = (
{
angle = -102;
position = "{266, 202}";
}
);
layerId = "E773EBAE-783E-4D91-931E-4E5C9CF0967C";
paths = (
{
closed = 1;
nodes = (
"369 -8 OFFCURVE",
"448 70 OFFCURVE",
"468 101 CURVE",
"486 72 LINE",
"409 145 LINE",
"436 139 LINE",
"402 100 OFFCURVE",
"345 47 OFFCURVE",
"252 47 CURVE SMOOTH",
"155 47 OFFCURVE",
"105 120 OFFCURVE",
"105 209 CURVE SMOOTH",
"105 223 OFFCURVE",
"108 240 OFFCURVE",
"112 250 CURVE",
"112 254 LINE",
"116 254 LINE",
"116 252 LINE",
"530 252 LINE",
"502 242 LINE",
"510 262 OFFCURVE",
"525 301 OFFCURVE",
"525 353 CURVE SMOOTH",
"525 448 OFFCURVE",
"456 533 OFFCURVE",
"333 533 CURVE SMOOTH",
"167 533 OFFCURVE",
"46 377 OFFCURVE",
"46 202 CURVE SMOOTH",
"46 75 OFFCURVE",
"128 -8 OFFCURVE",
"241 -8 CURVE SMOOTH"
);
},
{
closed = 1;
nodes = (
"126 309 LINE",
"134 361 OFFCURVE",
"208 478 OFFCURVE",
"326 478 CURVE SMOOTH",
"430 478 OFFCURVE",
"467 413 OFFCURVE",
"467 341 CURVE SMOOTH",
"467 330 OFFCURVE",
"465 320 OFFCURVE",
"462 309 CURVE",
"462 305 LINE",
"458 305 LINE",
"458 307 LINE",
"130 307 LINE",
"130 305 LINE",
"126 305 LINE"
);
}
);
width = 562;
},
{
background = {
paths = (
{
closed = 1;
nodes = (
"532 229 LINE",
"542 254 OFFCURVE",
"551 294 OFFCURVE",
"551 333 CURVE SMOOTH",
"551 427 OFFCURVE",
"477 537 OFFCURVE",
"340 537 CURVE SMOOTH",
"162 537 OFFCURVE",
"38 384 OFFCURVE",
"38 208 CURVE SMOOTH",
"38 64 OFFCURVE",
"134 -13 OFFCURVE",
"253 -13 CURVE SMOOTH",
"341 -13 OFFCURVE",
"436 20 OFFCURVE",
"490 88 CURVE",
"422 149 LINE",
"385 117 OFFCURVE",
"335 101 OFFCURVE",
"280 101 CURVE SMOOTH",
"213 101 OFFCURVE",
"164 146 OFFCURVE",
"164 205 CURVE SMOOTH",
"164 212 OFFCURVE",
"165 220 OFFCURVE",
"166 227 CURVE",
"166 231 LINE",
"170 231 LINE",
"170 229 LINE"
);
},
{
closed = 1;
nodes = (
"181 321 LINE",
"190 369 OFFCURVE",
"240 432 OFFCURVE",
"328 432 CURVE SMOOTH",
"399 432 OFFCURVE",
"431 383 OFFCURVE",
"431 338 CURVE SMOOTH",
"431 332 OFFCURVE",
"430 326 OFFCURVE",
"429 321 CURVE",
"429 317 LINE",
"425 317 LINE",
"425 319 LINE",
"185 319 LINE",
"185 317 LINE",
"181 317 LINE"
);
}
);
};
components = (
{
name = acutecomb;
transform = "{1, 0, 0, 1, 160, 0}";
}
);
guideLines = (
{
angle = -102;
position = "{275, 202}";
}
);
layerId = "C89E7CB9-06CC-4D85-8773-832B05BA201B";
paths = (
{
closed = 1;
nodes = (
"416 -12 OFFCURVE",
"488 78 OFFCURVE",
"516 118 CURVE",
"532 58 LINE",
"391 191 LINE",
"449 176 LINE",
"428 152 OFFCURVE",
"367 103 OFFCURVE",
"280 103 CURVE SMOOTH",
"201 103 OFFCURVE",
"161 155 OFFCURVE",
"161 209 CURVE SMOOTH",
"161 215 OFFCURVE",
"162 221 OFFCURVE",
"163 227 CURVE",
"163 231 LINE",
"167 231 LINE",
"167 229 LINE",
"590 229 LINE",
"534 200 LINE",
"544 227 OFFCURVE",
"554 287 OFFCURVE",
"554 341 CURVE SMOOTH",
"554 446 OFFCURVE",
"474 537 OFFCURVE",
"348 537 CURVE SMOOTH",
"170 537 OFFCURVE",
"36 385 OFFCURVE",
"36 211 CURVE SMOOTH",
"36 92 OFFCURVE",
"127 -12 OFFCURVE",
"263 -12 CURVE SMOOTH"
);
},
{
closed = 1;
nodes = (
"183 321 LINE",
"194 370 OFFCURVE",
"250 432 OFFCURVE",
"332 432 CURVE SMOOTH",
"402 432 OFFCURVE",
"433 382 OFFCURVE",
"433 337 CURVE SMOOTH",
"433 332 OFFCURVE",
"433 327 OFFCURVE",
"433 321 CURVE",
"433 317 LINE",
"429 317 LINE",
"429 319 LINE",
"187 319 LINE",
"187 317 LINE",
"183 317 LINE"
);
}
);
width = 590;
}
);
leftMetricsKey = "=o";
rightMetricsKey = "=o";
unicode = 00E9;
},
{
color = 3;
glyphname = eacute.ss17;
lastChange = "2020-05-11 14:45:27 +0000";
layers = (
{
background = {
paths = (
{
closed = 1;
nodes = (
"392 226 OFFCURVE",
"528 275 OFFCURVE",
"528 385 CURVE SMOOTH",
"528 491 OFFCURVE",
"441 541 OFFCURVE",
"339 541 CURVE SMOOTH",
"198 541 OFFCURVE",
"43 403 OFFCURVE",
"43 224 CURVE SMOOTH",
"43 54 OFFCURVE",
"139 -13 OFFCURVE",
"258 -13 CURVE SMOOTH",
"368 -13 OFFCURVE",
"448 32 OFFCURVE",
"494 97 CURVE",
"443 155 LINE",
"404 121 OFFCURVE",
"341 102 OFFCURVE",
"286 102 CURVE SMOOTH",
"223 102 OFFCURVE",
"169 127 OFFCURVE",
"169 185 CURVE SMOOTH",
"169 192 OFFCURVE",
"170 200 OFFCURVE",
"171 207 CURVE",
"171 211 LINE",
"175 211 LINE",
"175 209 LINE"
);
},
{
closed = 1;
nodes = (
"184 301 LINE",
"187 350 OFFCURVE",
"245 432 OFFCURVE",
"333 432 CURVE SMOOTH",
"375 432 OFFCURVE",
"403 415 OFFCURVE",
"403 385 CURVE SMOOTH",
"403 340 OFFCURVE",
"327 311 OFFCURVE",
"188 299 CURVE",
"188 297 LINE",
"184 297 LINE"
);
}
);
};
components = (
{
name = acutecomb;
transform = "{1, 0, 0, 1, 146, 0}";
}
);
guideLines = (
{
angle = -102;
position = "{275, 202}";
}
);
layerId = "E773EBAE-783E-4D91-931E-4E5C9CF0967C";
paths = (
{
closed = 1;
nodes = (
"333 -8 OFFCURVE",
"418 30 OFFCURVE",
"475 114 CURVE",
"481 77 LINE",
"416 150 LINE",
"448 147 LINE",
"393 76 OFFCURVE",
"321 47 OFFCURVE",
"258 47 CURVE SMOOTH",
"178 47 OFFCURVE",
"112 102 OFFCURVE",
"112 212 CURVE SMOOTH",
"112 215 OFFCURVE",
"112 218 OFFCURVE",
"112 222 CURVE",
"112 226 LINE",
"116 226 LINE",
"116 224 LINE",
"336 251 OFFCURVE",
"507 281 OFFCURVE",
"507 401 CURVE SMOOTH",
"507 470 OFFCURVE",
"450 533 OFFCURVE",
"348 533 CURVE SMOOTH",
"197 533 OFFCURVE",
"48 394 OFFCURVE",
"48 221 CURVE SMOOTH",
"48 70 OFFCURVE",
"141 -8 OFFCURVE",
"252 -8 CURVE SMOOTH"
);
},
{
closed = 1;
nodes = (
"118 276 LINE",
"118 349 OFFCURVE",
"214 483 OFFCURVE",
"341 483 CURVE SMOOTH",
"403 483 OFFCURVE",
"444 442 OFFCURVE",
"444 400 CURVE SMOOTH",
"444 333 OFFCURVE",
"294 294 OFFCURVE",
"122 275 CURVE",
"122 272 LINE",
"118 272 LINE"
);
}
);
width = 548;
},
{
background = {
paths = (
{
closed = 1;
nodes = (
"562 229 LINE",
"572 254 OFFCURVE",
"581 294 OFFCURVE",
"581 333 CURVE SMOOTH",
"581 438 OFFCURVE",
"494 537 OFFCURVE",
"370 537 CURVE SMOOTH",
"192 537 OFFCURVE",
"68 384 OFFCURVE",
"68 208 CURVE SMOOTH",
"68 64 OFFCURVE",
"164 -13 OFFCURVE",
"283 -13 CURVE SMOOTH",
"371 -13 OFFCURVE",
"466 20 OFFCURVE",
"520 88 CURVE",
"452 149 LINE",
"415 117 OFFCURVE",
"365 101 OFFCURVE",
"310 101 CURVE SMOOTH",
"243 101 OFFCURVE",
"194 146 OFFCURVE",
"194 205 CURVE SMOOTH",
"194 212 OFFCURVE",
"195 220 OFFCURVE",
"196 227 CURVE",
"196 231 LINE",
"200 231 LINE",
"200 229 LINE"
);
},
{
closed = 1;
nodes = (
"211 321 LINE",
"220 369 OFFCURVE",
"270 432 OFFCURVE",
"358 432 CURVE SMOOTH",
"429 432 OFFCURVE",
"461 383 OFFCURVE",
"461 338 CURVE SMOOTH",
"461 332 OFFCURVE",
"460 326 OFFCURVE",
"459 321 CURVE",
"459 317 LINE",
"455 317 LINE",
"455 319 LINE",
"215 319 LINE",
"215 317 LINE",
"211 317 LINE"
);
},
{
closed = 1;
nodes = (
"534 242 LINE",
"543 269 OFFCURVE",
"552 314 OFFCURVE",
"552 346 CURVE SMOOTH",
"552 420 OFFCURVE",
"502 533 OFFCURVE",
"359 533 CURVE SMOOTH",
"178 533 OFFCURVE",
"74 361 OFFCURVE",
"74 211 CURVE SMOOTH",
"74 95 OFFCURVE",
"126 -8 OFFCURVE",
"271 -8 CURVE SMOOTH",
"395 -8 OFFCURVE",
"468 58 OFFCURVE",
"494 97 CURVE",
"453 126 LINE",
"425 94 OFFCURVE",
"373 47 OFFCURVE",
"281 47 CURVE SMOOTH",
"190 47 OFFCURVE",
"139 107 OFFCURVE",
"139 203 CURVE SMOOTH",
"139 215 OFFCURVE",
"140 227 OFFCURVE",
"142 240 CURVE",
"142 244 LINE",
"146 244 LINE",
"146 242 LINE"
);
},
{
closed = 1;
nodes = (
"152 298 LINE",
"178 408 OFFCURVE",
"246 478 OFFCURVE",
"349 478 CURVE SMOOTH",
"434 478 OFFCURVE",
"491 427 OFFCURVE",
"491 338 CURVE SMOOTH",
"491 326 OFFCURVE",
"490 313 OFFCURVE",
"488 299 CURVE",
"488 295 LINE",
"484 295 LINE",
"484 297 LINE",
"156 297 LINE",
"156 294 LINE",
"152 294 LINE"
);
}
);
};
components = (
{
name = acutecomb;
transform = "{1, 0, 0, 1, 113, 0}";
}
);
guideLines = (
{
angle = -102;
position = "{266, 202}";
}
);
layerId = "C89E7CB9-06CC-4D85-8773-832B05BA201B";
paths = (
{
closed = 1;
nodes = (
"396 -14 OFFCURVE",
"483 70 OFFCURVE",
"507 116 CURVE",
"534 53 LINE",
"405 199 LINE",
"471 182 LINE",
"426 129 OFFCURVE",
"359 96 OFFCURVE",
"283 96 CURVE SMOOTH",
"219 96 OFFCURVE",
"164 132 OFFCURVE",
"164 200 CURVE SMOOTH",
"164 202 OFFCURVE",
"164 205 OFFCURVE",
"164 207 CURVE",
"164 211 LINE",
"168 211 LINE",
"168 209 LINE",
"386 226 OFFCURVE",
"528 285 OFFCURVE",
"528 385 CURVE SMOOTH",
"528 481 OFFCURVE",
"453 541 OFFCURVE",
"341 541 CURVE SMOOTH",
"200 541 OFFCURVE",
"37 403 OFFCURVE",
"37 224 CURVE SMOOTH",
"37 72 OFFCURVE",
"143 -14 OFFCURVE",
"265 -14 CURVE SMOOTH"
);
},
{
closed = 1;
nodes = (
"170 298 LINE",
"170 354 OFFCURVE",
"249 436 OFFCURVE",
"331 436 CURVE SMOOTH",
"373 436 OFFCURVE",
"402 415 OFFCURVE",
"402 385 CURVE SMOOTH",
"402 340 OFFCURVE",
"314 308 OFFCURVE",
"174 296 CURVE",
"174 294 LINE",
"170 294 LINE"
);
}
);
width = 571;
}
);
leftMetricsKey = "=o";
rightMetricsKey = "=o";
},
{
color = 6;
glyphname = f;
lastChange = "2020-05-21 13:01:43 +0000";
layers = (
{
background = {
paths = (
{
closed = 1;
nodes = (
"124 0 LINE",
"223 468 LINE",
"224 472 LINE",
"228 472 LINE",
"228 470 LINE",
"334 470 LINE",
"346 525 LINE",
"240 525 LINE",
"239 523 LINE",
"235 523 LINE",
"236 527 LINE",
"248 584 LINE SMOOTH",
"263 654 OFFCURVE",
"296 683 OFFCURVE",
"356 683 CURVE SMOOTH",
"378 683 OFFCURVE",
"405 679 OFFCURVE",
"425 671 CURVE",
"388 653 LINE",
"410 756 LINE",
"435 731 LINE",
"418 740 OFFCURVE",
"392 743 OFFCURVE",
"372 743 CURVE SMOOTH",
"299 743 OFFCURVE",
"214 705 OFFCURVE",
"190 592 CURVE SMOOTH",
"176 527 LINE",
"175 523 LINE",
"171 523 LINE",
"172 525 LINE",
"86 525 LINE",
"74 470 LINE",
"160 470 LINE",
"160 472 LINE",
"164 472 LINE",
"163 468 LINE",
"64 0 LINE"
);
}
);
};
layerId = "E773EBAE-783E-4D91-931E-4E5C9CF0967C";
paths = (
{
closed = 1;
nodes = (
"123 0 LINE",
"223 468 LINE",
"223 472 LINE",
"227 472 LINE",
"227 470 LINE",
"335 470 LINE",
"347 525 LINE",
"239 525 LINE",
"239 523 LINE",
"235 523 LINE",
"235 527 LINE",
"247 583 LINE SMOOTH",
"263 656 OFFCURVE",
"296 685 OFFCURVE",
"356 685 CURVE SMOOTH",
"379 685 OFFCURVE",
"405 681 OFFCURVE",
"426 673 CURVE",
"390 663 LINE",
"411 756 LINE",
"440 727 LINE",
"420 740 OFFCURVE",
"392 743 OFFCURVE",
"371 743 CURVE SMOOTH",
"283 743 OFFCURVE",
"211 690 OFFCURVE",
"190 592 CURVE SMOOTH",
"176 527 LINE",
"176 523 LINE",
"172 523 LINE",
"172 525 LINE",
"86 525 LINE",
"74 470 LINE",
"160 470 LINE",
"160 472 LINE",
"164 472 LINE",
"164 468 LINE",
"64 0 LINE"
);
}
);
width = 336;
},
{
background = {
paths = (
{
closed = 1;
nodes = (
"203 0 LINE",
"289 403 LINE",
"290 407 LINE",
"294 407 LINE",
"293 405 LINE",
"399 405 LINE",
"425 525 LINE",
"319 525 LINE",
"318 523 LINE",
"314 523 LINE",
"315 527 LINE",
"317 546 LINE SMOOTH",
"323 597 OFFCURVE",
"362 618 OFFCURVE",
"409 618 CURVE SMOOTH",
"445 618 OFFCURVE",
"480 606 OFFCURVE",
"500 596 CURVE",
"455 578 LINE",
"494 760 LINE",
"524 729 LINE",
"510 733 OFFCURVE",
"471 743 OFFCURVE",
"426 743 CURVE SMOOTH",
"316 743 OFFCURVE",
"208 681 OFFCURVE",
"179 547 CURVE SMOOTH",
"175 527 LINE",
"174 523 LINE",
"170 523 LINE",
"171 525 LINE",
"75 525 LINE",
"49 405 LINE",
"145 405 LINE",
"146 407 LINE",
"150 407 LINE",
"149 403 LINE",
"63 0 LINE"
);
}
);
};
layerId = "C89E7CB9-06CC-4D85-8773-832B05BA201B";
paths = (
{
closed = 1;
nodes = (
"201 0 LINE",
"287 403 LINE",
"287 407 LINE",
"291 407 LINE",
"291 405 LINE",
"401 405 LINE",
"427 525 LINE",
"317 525 LINE",
"317 523 LINE",
"313 523 LINE",
"313 527 LINE",
"315 547 LINE SMOOTH",
"320 598 OFFCURVE",
"363 618 OFFCURVE",
"414 618 CURVE SMOOTH",
"446 618 OFFCURVE",
"485 610 OFFCURVE",
"510 594 CURVE",
"449 555 LINE",
"494 760 LINE",
"524 729 LINE",
"491 738 OFFCURVE",
"458 743 OFFCURVE",
"427 743 CURVE SMOOTH",
"309 743 OFFCURVE",
"198 679 OFFCURVE",
"178 547 CURVE SMOOTH",
"175 527 LINE",
"175 523 LINE",
"171 523 LINE",
"171 525 LINE",
"75 525 LINE",
"49 405 LINE",
"144 405 LINE",
"144 407 LINE",
"148 407 LINE",
"148 403 LINE",
"62 0 LINE"
);
}
);
width = 409;
}
);
leftMetricsKey = "=o-20";
rightMetricsKey = "=o-20";
unicode = 0066;
},
{
color = 6;
glyphname = f.ss17;
lastChange = "2020-05-21 13:03:28 +0000";
layers = (
{
background = {
paths = (
{
closed = 1;
nodes = (
"131 30 LINE",
"225 468 LINE",
"225 472 LINE",
"229 472 LINE",
"229 470 LINE",
"335 470 LINE",
"347 525 LINE",
"241 525 LINE",
"241 523 LINE",
"237 523 LINE",
"237 527 LINE",
"248 583 LINE SMOOTH",
"261 650 OFFCURVE",
"305 689 OFFCURVE",
"364 689 CURVE SMOOTH",
"380 689 OFFCURVE",
"399 688 OFFCURVE",
"408 683 CURVE",
"388 660 LINE",
"412 765 LINE",
"416 733 LINE",
"410 736 OFFCURVE",
"394 743 OFFCURVE",
"369 743 CURVE SMOOTH",
"309 743 OFFCURVE",
"213 712 OFFCURVE",
"189 592 CURVE SMOOTH",
"176 527 LINE",
"176 523 LINE",
"172 523 LINE",
"172 525 LINE",
"86 525 LINE",
"74 470 LINE",
"160 470 LINE",
"160 472 LINE",
"164 472 LINE",
"164 468 LINE",
"70 30 LINE"
);
}
);
};
components = (
{
name = f;
}
);
layerId = "E773EBAE-783E-4D91-931E-4E5C9CF0967C";
paths = (
{
closed = 1;
nodes = (
"-70 -158 LINE",
"6 -164 OFFCURVE",
"89 -151 OFFCURVE",
"117 -27 CURVE SMOOTH",
"123 0 LINE",
"64 0 LINE",
"60 -15 LINE SMOOTH",
"39 -94 OFFCURVE",
"15 -108 OFFCURVE",
"-65 -102 CURVE",
"-38 -77 LINE",
"-59 -184 LINE"
);
}
);
width = 336;
},
{
background = {
paths = (
{
closed = 1;
nodes = (
"208 34 LINE",
"291 403 LINE",
"291 407 LINE",
"295 407 LINE",
"295 405 LINE",
"401 405 LINE",
"427 525 LINE",
"321 525 LINE",
"321 523 LINE",
"317 523 LINE",
"317 527 LINE",
"322 547 LINE SMOOTH",
"335 597 OFFCURVE",
"369 633 OFFCURVE",
"421 633 CURVE SMOOTH",
"443 633 OFFCURVE",
"482 633 OFFCURVE",
"507 608 CURVE",
"455 572 LINE",
"499 779 LINE",
"509 731 LINE",
"501 735 OFFCURVE",
"474 743 OFFCURVE",
"439 743 CURVE SMOOTH",
"320 743 OFFCURVE",
"212 680 OFFCURVE",
"179 547 CURVE SMOOTH",
"174 527 LINE",
"174 523 LINE",
"170 523 LINE",
"170 525 LINE",
"75 525 LINE",
"49 405 LINE",
"144 405 LINE",
"144 407 LINE",
"148 407 LINE",
"148 403 LINE",
"69 34 LINE"
);
}
);
};
components = (
{
name = f;
}
);
layerId = "C89E7CB9-06CC-4D85-8773-832B05BA201B";
paths = (
{
closed = 1;
nodes = (
"-109 -200 LINE",
"50 -212 OFFCURVE",
"153 -202 OFFCURVE",
"191 -42 CURVE SMOOTH",
"201 0 LINE",
"62 0 LINE",
"59 -13 LINE SMOOTH",
"44 -80 OFFCURVE",
"30 -92 OFFCURVE",
"-123 -78 CURVE",
"-26 -26 LINE",
"-74 -261 LINE"
);
}
);
width = 409;
}
);
leftMetricsKey = "=f";
rightMetricsKey = "=f";
},
{
color = 6;
glyphname = g;
lastChange = "2020-04-27 19:43:03 +0000";
layers = (
{
background = {
paths = (
{
closed = 1;
nodes = (
"305 -218 OFFCURVE",
"428 -136 OFFCURVE",
"428 -19 CURVE SMOOTH",
"428 70 OFFCURVE",
"345 96 OFFCURVE",
"272 96 CURVE SMOOTH",
"125 96 LINE SMOOTH",
"104 96 OFFCURVE",
"83 108 OFFCURVE",
"83 131 CURVE SMOOTH",
"83 159 OFFCURVE",
"115 176 OFFCURVE",
"141 183 CURVE",
"141 187 LINE",
"145 187 LINE",
"145 185 LINE",
"161 177 OFFCURVE",
"187 165 OFFCURVE",
"236 165 CURVE SMOOTH",
"370 165 OFFCURVE",
"492 257 OFFCURVE",
"492 384 CURVE SMOOTH",
"492 433 OFFCURVE",
"471 461 OFFCURVE",
"461 471 CURVE",
"457 471 LINE",
"457 475 LINE",
"461 475 LINE",
"473 478 OFFCURVE",
"500 479 OFFCURVE",
"513 479 CURVE SMOOTH",
"535 479 OFFCURVE",
"562 474 OFFCURVE",
"575 471 CURVE",
"548 451 LINE",
"572 557 LINE",
"592 528 LINE",
"579 532 OFFCURVE",
"550 533 OFFCURVE",
"524 533 CURVE SMOOTH",
"483 533 OFFCURVE",
"448 524 OFFCURVE",
"420 510 CURVE",
"397 524 OFFCURVE",
"365 533 OFFCURVE",
"319 533 CURVE SMOOTH",
"187 533 OFFCURVE",
"62 436 OFFCURVE",
"62 311 CURVE SMOOTH",
"62 271 OFFCURVE",
"76 236 OFFCURVE",
"103 212 CURVE",
"63 197 OFFCURVE",
"20 170 OFFCURVE",
"20 119 CURVE SMOOTH",
"20 80 OFFCURVE",
"50 57 OFFCURVE",
"75 50 CURVE",
"79 50 LINE",
"79 46 LINE",
"75 46 LINE",
"0 23 OFFCURVE",
"-64 -23 OFFCURVE",
"-64 -90 CURVE SMOOTH",
"-64 -162 OFFCURVE",
"-6 -218 OFFCURVE",
"150 -218 CURVE SMOOTH"
);
},
{
closed = 1;
nodes = (
"46 -163 OFFCURVE",
"-3 -133 OFFCURVE",
"-3 -82 CURVE SMOOTH",
"-3 -32 OFFCURVE",
"81 9 OFFCURVE",
"152 36 CURVE",
"260 36 LINE SMOOTH",
"328 36 OFFCURVE",
"367 17 OFFCURVE",
"367 -33 CURVE SMOOTH",
"367 -112 OFFCURVE",
"261 -163 OFFCURVE",
"153 -163 CURVE SMOOTH"
);
},
{
closed = 1;
nodes = (
"171 220 OFFCURVE",
"122 261 OFFCURVE",
"122 321 CURVE SMOOTH",
"122 409 OFFCURVE",
"206 478 OFFCURVE",
"308 478 CURVE SMOOTH",
"391 478 OFFCURVE",
"432 438 OFFCURVE",
"432 380 CURVE SMOOTH",
"432 282 OFFCURVE",
"345 220 OFFCURVE",
"248 220 CURVE SMOOTH"
);
}
);
};
layerId = "E773EBAE-783E-4D91-931E-4E5C9CF0967C";
paths = (
{
closed = 1;
nodes = (
"310 -218 OFFCURVE",
"428 -138 OFFCURVE",
"428 -25 CURVE SMOOTH",
"428 68 OFFCURVE",
"345 96 OFFCURVE",
"272 96 CURVE SMOOTH",
"125 96 LINE SMOOTH",
"104 96 OFFCURVE",
"83 108 OFFCURVE",
"83 131 CURVE SMOOTH",
"83 159 OFFCURVE",
"115 176 OFFCURVE",
"141 183 CURVE",
"141 187 LINE",
"145 187 LINE",
"145 185 LINE",
"161 177 OFFCURVE",
"187 165 OFFCURVE",
"236 165 CURVE SMOOTH",
"370 165 OFFCURVE",
"492 257 OFFCURVE",
"492 381 CURVE SMOOTH",
"492 432 OFFCURVE",
"471 461 OFFCURVE",
"461 471 CURVE",
"457 471 LINE",
"457 475 LINE",
"461 475 LINE",
"473 478 OFFCURVE",
"500 479 OFFCURVE",
"513 479 CURVE SMOOTH",
"535 479 OFFCURVE",
"562 474 OFFCURVE",
"575 471 CURVE",
"548 451 LINE",
"572 557 LINE",
"592 528 LINE",
"579 532 OFFCURVE",
"550 533 OFFCURVE",
"524 533 CURVE SMOOTH",
"483 533 OFFCURVE",
"448 524 OFFCURVE",
"420 510 CURVE",
"397 524 OFFCURVE",
"364 533 OFFCURVE",
"322 533 CURVE SMOOTH",
"186 533 OFFCURVE",
"62 436 OFFCURVE",
"62 313 CURVE SMOOTH",
"62 271 OFFCURVE",
"76 236 OFFCURVE",
"103 212 CURVE",
"63 197 OFFCURVE",
"20 170 OFFCURVE",
"20 120 CURVE SMOOTH",
"20 78 OFFCURVE",
"51 56 OFFCURVE",
"75 50 CURVE",
"79 50 LINE",
"79 46 LINE",
"75 46 LINE",
"0 23 OFFCURVE",
"-63 -22 OFFCURVE",
"-63 -92 CURVE SMOOTH",
"-63 -161 OFFCURVE",
"-1 -218 OFFCURVE",
"142 -218 CURVE SMOOTH"
);
},
{
closed = 1;
nodes = (
"47 -163 OFFCURVE",
"-3 -131 OFFCURVE",
"-3 -87 CURVE SMOOTH",
"-3 -30 OFFCURVE",
"81 9 OFFCURVE",
"152 36 CURVE",
"260 36 LINE SMOOTH",
"328 36 OFFCURVE",
"367 13 OFFCURVE",
"367 -36 CURVE SMOOTH",
"367 -116 OFFCURVE",
"265 -163 OFFCURVE",
"146 -163 CURVE SMOOTH"
);
},
{
closed = 1;
nodes = (
"171 220 OFFCURVE",
"122 261 OFFCURVE",
"122 325 CURVE SMOOTH",
"122 409 OFFCURVE",
"205 478 OFFCURVE",
"310 478 CURVE SMOOTH",
"390 478 OFFCURVE",
"432 437 OFFCURVE",
"432 374 CURVE SMOOTH",
"432 283 OFFCURVE",
"345 220 OFFCURVE",
"249 220 CURVE SMOOTH"
);
}
);
width = 539;
},
{
background = {
paths = (
{
closed = 1;
nodes = (
"344 -218 OFFCURVE",
"462 -150 OFFCURVE",
"486 -38 CURVE SMOOTH",
"506 56 OFFCURVE",
"445 118 OFFCURVE",
"307 118 CURVE SMOOTH",
"165 118 LINE SMOOTH",
"121 118 OFFCURVE",
"100 135 OFFCURVE",
"105 159 CURVE SMOOTH",
"110 182 OFFCURVE",
"136 194 OFFCURVE",
"156 195 CURVE",
"157 199 LINE",
"161 199 LINE",
"171 194 OFFCURVE",
"214 183 OFFCURVE",
"262 183 CURVE SMOOTH",
"386 183 OFFCURVE",
"495 255 OFFCURVE",
"516 354 CURVE SMOOTH",
"522 385 OFFCURVE",
"519 414 OFFCURVE",
"509 445 CURVE",
"505 445 LINE",
"506 448 LINE",
"510 448 LINE",
"523 450 OFFCURVE",
"538 451 OFFCURVE",
"547 451 CURVE SMOOTH",
"565 451 OFFCURVE",
"595 447 OFFCURVE",
"611 430 CURVE",
"569 393 LINE",
"610 588 LINE",
"628 526 LINE",
"604 534 OFFCURVE",
"568 536 OFFCURVE",
"548 536 CURVE SMOOTH",
"508 536 OFFCURVE",
"473 528 OFFCURVE",
"445 512 CURVE",
"429 521 OFFCURVE",
"402 539 OFFCURVE",
"339 539 CURVE SMOOTH",
"214 539 OFFCURVE",
"98 465 OFFCURVE",
"75 356 CURVE SMOOTH",
"62 293 OFFCURVE",
"87 253 OFFCURVE",
"114 228 CURVE",
"63 216 OFFCURVE",
"15 176 OFFCURVE",
"5 130 CURVE SMOOTH",
"-3 94 OFFCURVE",
"14 53 OFFCURVE",
"64 42 CURVE",
"68 42 LINE",
"67 38 LINE",
"63 38 LINE",
"19 27 OFFCURVE",
"-46 -2 OFFCURVE",
"-61 -71 CURVE SMOOTH",
"-80 -162 OFFCURVE",
"11 -218 OFFCURVE",
"163 -218 CURVE SMOOTH"
);
},
{
closed = 1;
nodes = (
"96 -123 OFFCURVE",
"37 -106 OFFCURVE",
"47 -58 CURVE SMOOTH",
"54 -25 OFFCURVE",
"88 -8 OFFCURVE",
"122 -2 CURVE",
"289 -2 LINE SMOOTH",
"338 -2 OFFCURVE",
"357 -25 OFFCURVE",
"351 -54 CURVE SMOOTH",
"340 -106 OFFCURVE",
"259 -123 OFFCURVE",
"177 -123 CURVE SMOOTH"
);
},
{
closed = 1;
nodes = (
"226 278 OFFCURVE",
"190 309 OFFCURVE",
"201 361 CURVE SMOOTH",
"212 412 OFFCURVE",
"260 439 OFFCURVE",
"316 439 CURVE SMOOTH",
"380 439 OFFCURVE",
"401 404 OFFCURVE",
"392 360 CURVE SMOOTH",
"381 307 OFFCURVE",
"333 278 OFFCURVE",
"280 278 CURVE SMOOTH"
);
}
);
};
layerId = "C89E7CB9-06CC-4D85-8773-832B05BA201B";
paths = (
{
closed = 1;
nodes = (
"346 -218 OFFCURVE",
"486 -141 OFFCURVE",
"486 -14 CURVE SMOOTH",
"486 60 OFFCURVE",
"440 118 OFFCURVE",
"304 118 CURVE SMOOTH",
"165 118 LINE SMOOTH",
"121 118 OFFCURVE",
"104 135 OFFCURVE",
"104 157 CURVE SMOOTH",
"104 181 OFFCURVE",
"135 194 OFFCURVE",
"160 196 CURVE",
"160 200 LINE",
"164 200 LINE",
"164 198 LINE",
"176 194 OFFCURVE",
"214 183 OFFCURVE",
"262 183 CURVE SMOOTH",
"395 183 OFFCURVE",
"519 267 OFFCURVE",
"519 390 CURVE SMOOTH",
"519 415 OFFCURVE",
"514 431 OFFCURVE",
"508 444 CURVE",
"504 444 LINE",
"504 448 LINE",
"508 448 LINE",
"519 450 OFFCURVE",
"533 451 OFFCURVE",
"545 451 CURVE SMOOTH",
"565 451 OFFCURVE",
"589 448 OFFCURVE",
"611 434 CURVE",
"572 403 LINE",
"604 559 LINE",
"640 525 LINE",
"622 530 OFFCURVE",
"593 536 OFFCURVE",
"543 536 CURVE SMOOTH",
"505 536 OFFCURVE",
"471 528 OFFCURVE",
"445 512 CURVE",
"415 529 OFFCURVE",
"378 539 OFFCURVE",
"333 539 CURVE SMOOTH",
"192 539 OFFCURVE",
"73 441 OFFCURVE",
"73 330 CURVE SMOOTH",
"73 281 OFFCURVE",
"96 247 OFFCURVE",
"117 227 CURVE",
"51 215 OFFCURVE",
"2 170 OFFCURVE",
"2 116 CURVE SMOOTH",
"2 85 OFFCURVE",
"18 52 OFFCURVE",
"63 42 CURVE",
"67 42 LINE",
"67 38 LINE",
"63 38 LINE",
"3 23 OFFCURVE",
"-63 -20 OFFCURVE",
"-63 -89 CURVE SMOOTH",
"-63 -158 OFFCURVE",
"3 -218 OFFCURVE",
"167 -218 CURVE SMOOTH"
);
},
{
closed = 1;
nodes = (
"67 -123 OFFCURVE",
"45 -95 OFFCURVE",
"45 -68 CURVE SMOOTH",
"45 -33 OFFCURVE",
"82 -8 OFFCURVE",
"121 -2 CURVE",
"287 -2 LINE SMOOTH",
"336 -2 OFFCURVE",
"351 -20 OFFCURVE",
"351 -46 CURVE SMOOTH",
"351 -105 OFFCURVE",
"274 -123 OFFCURVE",
"176 -123 CURVE SMOOTH"
);
},
{
closed = 1;
nodes = (
"224 278 OFFCURVE",
"199 306 OFFCURVE",
"199 344 CURVE SMOOTH",
"199 397 OFFCURVE",
"247 439 OFFCURVE",
"316 439 CURVE SMOOTH",
"364 439 OFFCURVE",
"394 418 OFFCURVE",
"394 376 CURVE SMOOTH",
"394 321 OFFCURVE",
"345 278 OFFCURVE",
"278 278 CURVE SMOOTH"
);
}
);
width = 580;
}
);
leftMetricsKey = "=10";
rightMetricsKey = "=30";
unicode = 0067;
},
{
color = 7;
glyphname = g.ss02;
lastChange = "2020-05-11 14:45:27 +0000";
layers = (
{
background = {
paths = (
{
closed = 1;
nodes = (
"310 -207 OFFCURVE",
"427 -128 OFFCURVE",
"458 20 CURVE SMOOTH",
"565 525 LINE",
"515 525 LINE",
"484 433 LINE",
"484 429 LINE",
"480 429 LINE",
"480 431 LINE",
"464 478 OFFCURVE",
"429 533 OFFCURVE",
"328 533 CURVE SMOOTH",
"173 533 OFFCURVE",
"45 371 OFFCURVE",
"45 200 CURVE SMOOTH",
"45 81 OFFCURVE",
"111 0 OFFCURVE",
"215 0 CURVE SMOOTH",
"323 0 OFFCURVE",
"380 58 OFFCURVE",
"411 108 CURVE",
"411 110 LINE",
"415 110 LINE",
"415 106 LINE",
"396 15 LINE SMOOTH",
"376 -83 OFFCURVE",
"275 -147 OFFCURVE",
"185 -147 CURVE SMOOTH",
"129 -147 OFFCURVE",
"72 -131 OFFCURVE",
"39 -85 CURVE",
"74 -81 LINE",
"-10 -161 LINE",
"-2 -128 LINE",
"39 -185 OFFCURVE",
"104 -207 OFFCURVE",
"172 -207 CURVE SMOOTH"
);
},
{
closed = 1;
nodes = (
"163 60 OFFCURVE",
"112 121 OFFCURVE",
"112 214 CURVE SMOOTH",
"112 344 OFFCURVE",
"207 473 OFFCURVE",
"329 473 CURVE SMOOTH",
"434 473 OFFCURVE",
"475 392 OFFCURVE",
"451 277 CURVE SMOOTH",
"443 239 LINE SMOOTH",
"428 167 OFFCURVE",
"356 60 OFFCURVE",
"241 60 CURVE SMOOTH"
);
}
);
};
layerId = "E773EBAE-783E-4D91-931E-4E5C9CF0967C";
paths = (
{
closed = 1;
nodes = (
"310 -207 OFFCURVE",
"427 -128 OFFCURVE",
"458 20 CURVE SMOOTH",
"565 525 LINE",
"515 525 LINE",
"484 433 LINE",
"484 429 LINE",
"480 429 LINE",
"480 431 LINE",
"464 478 OFFCURVE",
"425 533 OFFCURVE",
"331 533 CURVE SMOOTH",
"169 533 OFFCURVE",
"45 371 OFFCURVE",
"45 201 CURVE SMOOTH",
"45 81 OFFCURVE",
"106 0 OFFCURVE",
"221 0 CURVE SMOOTH",
"318 0 OFFCURVE",
"380 58 OFFCURVE",
"411 108 CURVE",
"411 110 LINE",
"415 110 LINE",
"415 106 LINE",
"396 15 LINE SMOOTH",
"376 -83 OFFCURVE",
"279 -147 OFFCURVE",
"182 -147 CURVE SMOOTH",
"131 -147 OFFCURVE",
"72 -129 OFFCURVE",
"39 -83 CURVE",
"74 -81 LINE",
"-10 -161 LINE",
"-2 -128 LINE",
"39 -185 OFFCURVE",
"104 -207 OFFCURVE",
"175 -207 CURVE SMOOTH"
);
},
{
closed = 1;
nodes = (
"161 60 OFFCURVE",
"112 120 OFFCURVE",
"112 215 CURVE SMOOTH",
"112 344 OFFCURVE",
"205 473 OFFCURVE",
"331 473 CURVE SMOOTH",
"432 473 OFFCURVE",
"475 392 OFFCURVE",
"451 277 CURVE SMOOTH",
"443 239 LINE SMOOTH",
"428 167 OFFCURVE",
"355 60 OFFCURVE",
"244 60 CURVE SMOOTH"
);
}
);
width = 600;
},
{
background = {
paths = (
{
closed = 1;
nodes = (
"297 -211 OFFCURVE",
"471 -161 OFFCURVE",
"511 32 CURVE SMOOTH",
"614 525 LINE",
"485 525 LINE",
"458 435 LINE",
"458 431 LINE",
"454 431 LINE",
"454 433 LINE",
"443 477 OFFCURVE",
"405 537 OFFCURVE",
"313 537 CURVE SMOOTH",
"148 537 OFFCURVE",
"31 351 OFFCURVE",
"31 180 CURVE SMOOTH",
"31 68 OFFCURVE",
"90 0 OFFCURVE",
"197 0 CURVE SMOOTH",
"289 0 OFFCURVE",
"345 50 OFFCURVE",
"385 111 CURVE",
"385 113 LINE",
"389 113 LINE",
"389 109 LINE",
"373 32 LINE SMOOTH",
"354 -61 OFFCURVE",
"256 -93 OFFCURVE",
"193 -93 CURVE SMOOTH",
"120 -93 OFFCURVE",
"83 -75 OFFCURVE",
"36 -43 CURVE",
"99 -15 LINE",
"-36 -202 LINE",
"-20 -139 LINE",
"24 -179 OFFCURVE",
"88 -211 OFFCURVE",
"190 -211 CURVE SMOOTH"
);
},
{
closed = 1;
nodes = (
"219 115 OFFCURVE",
"175 143 OFFCURVE",
"175 215 CURVE SMOOTH",
"175 311 OFFCURVE",
"245 422 OFFCURVE",
"329 422 CURVE SMOOTH",
"407 422 OFFCURVE",
"445 366 OFFCURVE",
"429 294 CURVE SMOOTH",
"423 267 LINE SMOOTH",
"398 154 OFFCURVE",
"328 115 OFFCURVE",
"271 115 CURVE SMOOTH"
);
}
);
};
layerId = "C89E7CB9-06CC-4D85-8773-832B05BA201B";
paths = (
{
closed = 1;
nodes = (
"300 -211 OFFCURVE",
"471 -161 OFFCURVE",
"511 32 CURVE SMOOTH",
"614 525 LINE",
"485 525 LINE",
"458 435 LINE",
"458 431 LINE",
"454 431 LINE",
"454 433 LINE",
"443 477 OFFCURVE",
"406 537 OFFCURVE",
"313 537 CURVE SMOOTH",
"148 537 OFFCURVE",
"31 351 OFFCURVE",
"31 186 CURVE SMOOTH",
"31 68 OFFCURVE",
"90 0 OFFCURVE",
"197 0 CURVE SMOOTH",
"289 0 OFFCURVE",
"345 50 OFFCURVE",
"385 111 CURVE",
"385 113 LINE",
"389 113 LINE",
"389 109 LINE",
"373 32 LINE SMOOTH",
"354 -61 OFFCURVE",
"258 -93 OFFCURVE",
"184 -93 CURVE SMOOTH",
"124 -93 OFFCURVE",
"80 -72 OFFCURVE",
"33 -40 CURVE",
"101 -15 LINE",
"-35 -203 LINE",
"-20 -139 LINE",
"24 -179 OFFCURVE",
"91 -211 OFFCURVE",
"185 -211 CURVE SMOOTH"
);
},
{
closed = 1;
nodes = (
"220 115 OFFCURVE",
"175 141 OFFCURVE",
"175 217 CURVE SMOOTH",
"175 309 OFFCURVE",
"241 422 OFFCURVE",
"336 422 CURVE SMOOTH",
"403 422 OFFCURVE",
"445 366 OFFCURVE",
"429 294 CURVE SMOOTH",
"423 267 LINE SMOOTH",
"398 154 OFFCURVE",
"329 115 OFFCURVE",
"269 115 CURVE SMOOTH"
);
}
);
width = 641;
}
);
leftMetricsKey = "=o";
rightMetricsKey = "=I";
},
{
color = 6;
glyphname = h;
lastChange = "2020-05-15 09:26:41 +0000";
layers = (
{
background = {
paths = (
{
closed = 1;
nodes = (
"95 0 LINE",
"160 305 LINE SMOOTH",
"186 427 OFFCURVE",
"301 478 OFFCURVE",
"360 478 CURVE SMOOTH",
"449 478 OFFCURVE",
"478 411 OFFCURVE",
"459 321 CURVE SMOOTH",
"392 0 LINE",
"453 0 LINE",
"524 337 LINE SMOOTH",
"549 455 OFFCURVE",
"497 533 OFFCURVE",
"384 533 CURVE SMOOTH",
"290 533 OFFCURVE",
"215 461 OFFCURVE",
"190 424 CURVE",
"190 422 LINE",
"186 422 LINE",
"186 426 LINE",
"251 735 LINE",
"189 735 LINE",
"33 0 LINE"
);
}
);
};
layerId = "E773EBAE-783E-4D91-931E-4E5C9CF0967C";
paths = (
{
closed = 1;
nodes = (
"95 0 LINE",
"160 305 LINE SMOOTH",
"186 427 OFFCURVE",
"297 478 OFFCURVE",
"366 478 CURVE SMOOTH",
"428 478 OFFCURVE",
"466 438 OFFCURVE",
"466 372 CURVE SMOOTH",
"466 357 OFFCURVE",
"464 341 OFFCURVE",
"460 324 CURVE SMOOTH",
"392 0 LINE",
"453 0 LINE",
"523 333 LINE SMOOTH",
"527 352 OFFCURVE",
"529 370 OFFCURVE",
"529 387 CURVE SMOOTH",
"529 475 OFFCURVE",
"478 533 OFFCURVE",
"388 533 CURVE SMOOTH",
"287 533 OFFCURVE",
"215 461 OFFCURVE",
"190 424 CURVE",
"190 422 LINE",
"186 422 LINE",
"186 426 LINE",
"251 735 LINE",
"190 735 LINE",
"34 0 LINE"
);
}
);
width = 599;
},
{
background = {
paths = (
{
closed = 1;
nodes = (
"166 0 LINE",
"226 280 LINE SMOOTH",
"245 371 OFFCURVE",
"311 419 OFFCURVE",
"365 419 CURVE SMOOTH",
"432 419 OFFCURVE",
"449 378 OFFCURVE",
"433 299 CURVE SMOOTH",
"371 0 LINE",
"513 0 LINE",
"580 317 LINE SMOOTH",
"606 438 OFFCURVE",
"564 537 OFFCURVE",
"453 537 CURVE SMOOTH",
"356 537 OFFCURVE",
"273 449 OFFCURVE",
"262 431 CURVE",
"262 429 LINE",
"258 429 LINE",
"258 433 LINE",
"324 743 LINE",
"181 743 LINE",
"23 0 LINE"
);
}
);
};
layerId = "C89E7CB9-06CC-4D85-8773-832B05BA201B";
paths = (
{
closed = 1;
nodes = (
"166 0 LINE",
"226 280 LINE SMOOTH",
"245 371 OFFCURVE",
"308 419 OFFCURVE",
"370 419 CURVE SMOOTH",
"415 419 OFFCURVE",
"444 394 OFFCURVE",
"444 346 CURVE SMOOTH",
"444 329 OFFCURVE",
"441 313 OFFCURVE",
"438 299 CURVE SMOOTH",
"375 0 LINE",
"518 0 LINE",
"585 317 LINE SMOOTH",
"589 338 OFFCURVE",
"593 364 OFFCURVE",
"593 390 CURVE SMOOTH",
"593 480 OFFCURVE",
"538 537 OFFCURVE",
"457 537 CURVE SMOOTH",
"356 537 OFFCURVE",
"273 449 OFFCURVE",
"262 431 CURVE",
"262 429 LINE",
"258 429 LINE",
"258 433 LINE",
"324 743 LINE",
"181 743 LINE",
"23 0 LINE"
);
}
);
width = 655;
}
);
rightMetricsKey = "=|";
unicode = 0068;
},
{
color = 7;
glyphname = h.ss17;
lastChange = "2020-05-15 09:26:56 +0000";
layers = (
{
background = {
paths = (
{
closed = 1;
nodes = (
"531 77 LINE",
"554 57 LINE",
"536 52 OFFCURVE",
"510 45 OFFCURVE",
"490 45 CURVE SMOOTH",
"454 45 OFFCURVE",
"437 57 OFFCURVE",
"451 103 CURVE",
"502 267 LINE",
"514 307 OFFCURVE",
"530 354 OFFCURVE",
"530 392 CURVE SMOOTH",
"530 472 OFFCURVE",
"475 533 OFFCURVE",
"391 533 CURVE SMOOTH",
"300 533 OFFCURVE",
"215 461 OFFCURVE",
"190 424 CURVE",
"190 422 LINE",
"186 422 LINE",
"186 426 LINE",
"251 735 LINE",
"190 735 LINE",
"34 0 LINE",
"95 0 LINE",
"160 305 LINE SMOOTH",
"186 427 OFFCURVE",
"299 479 OFFCURVE",
"373 479 CURVE SMOOTH",
"437 479 OFFCURVE",
"471 440 OFFCURVE",
"471 385 CURVE SMOOTH",
"471 355 OFFCURVE",
"460 313 OFFCURVE",
"449 275 CURVE",
"392 96 LINE",
"376 45 OFFCURVE",
"397 -5 OFFCURVE",
"464 -5 CURVE SMOOTH",
"490 -5 OFFCURVE",
"519 2 OFFCURVE",
"545 13 CURVE",
"509 -20 LINE"
);
}
);
};
layerId = "E773EBAE-783E-4D91-931E-4E5C9CF0967C";
paths = (
{
closed = 1;
nodes = (
"529 67 LINE",
"556 58 LINE",
"543 54 OFFCURVE",
"510 45 OFFCURVE",
"485 45 CURVE SMOOTH",
"452 45 OFFCURVE",
"436 61 OFFCURVE",
"449 102 CURVE SMOOTH",
"502 267 LINE SMOOTH",
"517 314 OFFCURVE",
"529 360 OFFCURVE",
"529 396 CURVE SMOOTH",
"529 476 OFFCURVE",
"471 533 OFFCURVE",
"391 533 CURVE SMOOTH",
"300 533 OFFCURVE",
"215 460 OFFCURVE",
"190 424 CURVE",
"190 422 LINE",
"186 422 LINE",
"186 426 LINE",
"251 735 LINE",
"190 735 LINE",
"34 0 LINE",
"95 0 LINE",
"160 305 LINE SMOOTH",
"186 427 OFFCURVE",
"300 479 OFFCURVE",
"373 479 CURVE SMOOTH",
"437 479 OFFCURVE",
"470 440 OFFCURVE",
"470 381 CURVE SMOOTH",
"470 349 OFFCURVE",
"460 312 OFFCURVE",
"448 275 CURVE SMOOTH",
"391 96 LINE SMOOTH",
"375 45 OFFCURVE",
"396 -5 OFFCURVE",
"463 -5 CURVE SMOOTH",
"488 -5 OFFCURVE",
"518 2 OFFCURVE",
"544 13 CURVE",
"509 -20 LINE"
);
}
);
width = 600;
},
{
background = {
paths = (
{
closed = 0;
nodes = (
"375 419 LINE SMOOTH",
"416 419 OFFCURVE",
"442 395 OFFCURVE",
"442 351 CURVE SMOOTH",
"442 336 OFFCURVE",
"439 319 OFFCURVE",
"433 299 CURVE SMOOTH",
"382 129 LINE SMOOTH",
"357 44 OFFCURVE",
"401 -13 OFFCURVE",
"487 -13 CURVE SMOOTH",
"539 -13 OFFCURVE",
"590 8 OFFCURVE",
"619 46 CURVE",
"578 -39 LINE",
"617 135 LINE",
"654 99 LINE",
"619 86 OFFCURVE",
"588 80 OFFCURVE",
"567 80 CURVE SMOOTH",
"523 80 OFFCURVE",
"508 106 OFFCURVE",
"529 171 CURVE SMOOTH",
"575 311 LINE SMOOTH",
"584 338 OFFCURVE",
"591 369 OFFCURVE",
"591 399 CURVE SMOOTH",
"591 478 OFFCURVE",
"543 537 OFFCURVE",
"452 537 CURVE SMOOTH"
);
}
);
};
layerId = "C89E7CB9-06CC-4D85-8773-832B05BA201B";
paths = (
{
closed = 1;
nodes = (
"617 135 LINE",
"654 99 LINE",
"619 86 OFFCURVE",
"588 80 OFFCURVE",
"567 80 CURVE SMOOTH",
"523 80 OFFCURVE",
"508 106 OFFCURVE",
"529 171 CURVE",
"575 311 LINE",
"584 338 OFFCURVE",
"591 369 OFFCURVE",
"591 399 CURVE SMOOTH",
"591 478 OFFCURVE",
"543 537 OFFCURVE",
"452 537 CURVE SMOOTH",
"342 537 OFFCURVE",
"273 449 OFFCURVE",
"262 431 CURVE",
"262 429 LINE",
"258 429 LINE",
"258 433 LINE",
"324 743 LINE",
"181 743 LINE",
"23 0 LINE",
"166 0 LINE",
"226 280 LINE SMOOTH",
"245 371 OFFCURVE",
"315 419 OFFCURVE",
"374 419 CURVE SMOOTH",
"416 419 OFFCURVE",
"442 395 OFFCURVE",
"442 351 CURVE SMOOTH",
"442 336 OFFCURVE",
"439 319 OFFCURVE",
"433 299 CURVE",
"382 129 LINE",
"357 44 OFFCURVE",
"401 -13 OFFCURVE",
"487 -13 CURVE SMOOTH",
"539 -13 OFFCURVE",
"590 8 OFFCURVE",
"619 46 CURVE",
"578 -39 LINE"
);
}
);
width = 665;
}
);
leftMetricsKey = "=n";
rightMetricsKey = "=o-20";
},
{
color = 6;
glyphname = i;
lastChange = "2020-05-28 09:43:16 +0000";
layers = (
{
background = {
paths = (
{
closed = 1;
nodes = (
"83 0 LINE",
"195 525 LINE",
"134 525 LINE",
"22 0 LINE"
);
},
{
closed = 1;
nodes = (
"216 630 OFFCURVE",
"245 657 OFFCURVE",
"245 687 CURVE SMOOTH",
"245 710 OFFCURVE",
"230 726 OFFCURVE",
"206 726 CURVE SMOOTH",
"175 726 OFFCURVE",
"147 698 OFFCURVE",
"147 667 CURVE SMOOTH",
"147 645 OFFCURVE",
"162 630 OFFCURVE",
"185 630 CURVE SMOOTH"
);
}
);
};
components = (
{
name = idotless;
}
);
layerId = "E773EBAE-783E-4D91-931E-4E5C9CF0967C";
paths = (
{
closed = 1;
nodes = (
"216 630 OFFCURVE",
"245 657 OFFCURVE",
"245 687 CURVE SMOOTH",
"245 710 OFFCURVE",
"230 726 OFFCURVE",
"206 726 CURVE SMOOTH",
"175 726 OFFCURVE",
"147 698 OFFCURVE",
"147 667 CURVE SMOOTH",
"147 645 OFFCURVE",
"162 630 OFFCURVE",
"185 630 CURVE SMOOTH"
);
}
);
width = 216;
},
{
background = {
paths = (
{
closed = 1;
nodes = (
"182 615 LINE",
"182 643 LINE",
"210 643 LINE",
"210 743 LINE",
"182 743 LINE",
"182 771 LINE",
"82 771 LINE",
"82 743 LINE",
"54 743 LINE",
"54 643 LINE",
"82 643 LINE",
"82 615 LINE"
);
}
);
};
components = (
{
name = idotless;
}
);
layerId = "C89E7CB9-06CC-4D85-8773-832B05BA201B";
paths = (
{
closed = 1;
nodes = (
"258 610 OFFCURVE",
"307 658 OFFCURVE",
"307 711 CURVE SMOOTH",
"307 748 OFFCURVE",
"280 776 OFFCURVE",
"240 776 CURVE SMOOTH",
"188 776 OFFCURVE",
"138 726 OFFCURVE",
"138 674 CURVE SMOOTH",
"138 637 OFFCURVE",
"166 610 OFFCURVE",
"205 610 CURVE SMOOTH"
);
}
);
width = 265;
}
);
unicode = 0069;
},
{
color = 7;
glyphname = i.ss20;
lastChange = "2020-05-11 18:43:40 +0000";
layers = (
{
background = {
paths = (
{
closed = 1;
nodes = (
"89 0 LINE",
"201 525 LINE",
"140 525 LINE",
"28 0 LINE"
);
},
{
closed = 1;
nodes = (
"222 630 OFFCURVE",
"251 657 OFFCURVE",
"251 687 CURVE SMOOTH",
"251 710 OFFCURVE",
"236 726 OFFCURVE",
"212 726 CURVE SMOOTH",
"181 726 OFFCURVE",
"153 698 OFFCURVE",
"153 667 CURVE SMOOTH",
"153 645 OFFCURVE",
"168 630 OFFCURVE",
"191 630 CURVE SMOOTH"
);
}
);
};
layerId = "E773EBAE-783E-4D91-931E-4E5C9CF0967C";
paths = (
{
closed = 1;
nodes = (
"89 0 LINE",
"201 525 LINE",
"140 525 LINE",
"28 0 LINE"
);
},
{
closed = 1;
nodes = (
"236 635 LINE",
"254 721 LINE",
"167 721 LINE",
"149 635 LINE"
);
}
);
width = 227;
},
{
background = {
paths = (
{
closed = 1;
nodes = (
"186 615 LINE",
"186 643 LINE",
"214 643 LINE",
"214 743 LINE",
"186 743 LINE",
"186 771 LINE",
"86 771 LINE",
"86 743 LINE",
"58 743 LINE",
"58 643 LINE",
"86 643 LINE",
"86 615 LINE"
);
}
);
};
layerId = "C89E7CB9-06CC-4D85-8773-832B05BA201B";
paths = (
{
closed = 1;
nodes = (
"151 0 LINE",
"264 538 LINE",
"121 538 LINE",
"8 0 LINE"
);
},
{
closed = 1;
nodes = (
"282 615 LINE",
"314 763 LINE",
"166 763 LINE",
"134 615 LINE"
);
}
);
width = 269;
}
);
leftMetricsKey = "=i+10";
rightMetricsKey = "=i+10";
},
{
color = 3;
glyphname = idotless;
lastChange = "2020-05-28 09:43:45 +0000";
layers = (
{
layerId = "E773EBAE-783E-4D91-931E-4E5C9CF0967C";
paths = (
{
closed = 1;
nodes = (
"65 0 LINE",
"177 525 LINE",
"116 525 LINE",
"4 0 LINE"
);
}
);
width = 181;
},
{
layerId = "C89E7CB9-06CC-4D85-8773-832B05BA201B";
paths = (
{
closed = 1;
nodes = (
"137 0 LINE",
"250 538 LINE",
"107 538 LINE",
"-6 0 LINE"
);
}
);
width = 244;
}
);
leftMetricsKey = "=i";
rightMetricsKey = "=i";
unicode = 0131;
},
{
color = 6;
glyphname = j;
lastChange = "2020-05-11 18:44:26 +0000";
layers = (
{
background = {
paths = (
{
closed = 1;
nodes = (
"105 0 LINE",
"215 525 LINE",
"155 525 LINE",
"45 0 LINE"
);
},
{
closed = 1;
nodes = (
"-11 -158 OFFCURVE",
"70 -153 OFFCURVE",
"98 -31 CURVE SMOOTH",
"105 0 LINE",
"45 0 LINE",
"42 -15 LINE SMOOTH",
"25 -99 OFFCURVE",
"-6 -103 OFFCURVE",
"-77 -103 CURVE",
"-88 -158 LINE"
);
},
{
closed = 1;
nodes = (
"237 630 OFFCURVE",
"266 656 OFFCURVE",
"267 685 CURVE SMOOTH",
"268 709 OFFCURVE",
"252 726 OFFCURVE",
"227 726 CURVE SMOOTH",
"196 726 OFFCURVE",
"169 699 OFFCURVE",
"168 669 CURVE SMOOTH",
"168 646 OFFCURVE",
"183 630 OFFCURVE",
"207 630 CURVE SMOOTH"
);
}
);
};
layerId = "E773EBAE-783E-4D91-931E-4E5C9CF0967C";
paths = (
{
closed = 1;
nodes = (
"-97 -156 LINE",
"-5 -156 OFFCURVE",
"82 -152 OFFCURVE",
"111 -15 CURVE SMOOTH",
"226 525 LINE",
"165 525 LINE",
"50 -15 LINE SMOOTH",
"32 -98 OFFCURVE",
"-4 -101 OFFCURVE",
"-92 -101 CURVE",
"-62 -75 LINE",
"-85 -188 LINE"
);
},
{
closed = 1;
nodes = (
"249 630 OFFCURVE",
"278 658 OFFCURVE",
"278 687 CURVE SMOOTH",
"278 709 OFFCURVE",
"262 726 OFFCURVE",
"239 726 CURVE SMOOTH",
"207 726 OFFCURVE",
"180 698 OFFCURVE",
"180 666 CURVE SMOOTH",
"180 645 OFFCURVE",
"195 630 OFFCURVE",
"218 630 CURVE SMOOTH"
);
}
);
width = 249;
},
{
background = {
paths = (
{
closed = 1;
nodes = (
"191 40 LINE",
"296 538 LINE",
"156 538 LINE",
"51 40 LINE"
);
},
{
closed = 1;
nodes = (
"53 -179 OFFCURVE",
"148 -165 OFFCURVE",
"180 -12 CURVE SMOOTH",
"191 40 LINE",
"51 40 LINE",
"46 17 LINE SMOOTH",
"35 -38 OFFCURVE",
"20 -54 OFFCURVE",
"-68 -54 CURVE",
"-95 -179 LINE"
);
},
{
closed = 1;
nodes = (
"293 610 OFFCURVE",
"342 656 OFFCURVE",
"344 707 CURVE SMOOTH",
"346 746 OFFCURVE",
"318 776 OFFCURVE",
"277 776 CURVE SMOOTH",
"225 776 OFFCURVE",
"177 728 OFFCURVE",
"175 677 CURVE SMOOTH",
"174 638 OFFCURVE",
"202 610 OFFCURVE",
"242 610 CURVE SMOOTH"
);
}
);
};
layerId = "C89E7CB9-06CC-4D85-8773-832B05BA201B";
paths = (
{
closed = 1;
nodes = (
"-145 -173 LINE",
"27 -173 OFFCURVE",
"149 -157 OFFCURVE",
"184 8 CURVE SMOOTH",
"297 538 LINE",
"154 538 LINE",
"43 18 LINE SMOOTH",
"30 -43 OFFCURVE",
"-40 -45 OFFCURVE",
"-115 -45 CURVE",
"-55 6 LINE",
"-107 -239 LINE"
);
},
{
closed = 1;
nodes = (
"295 610 OFFCURVE",
"345 658 OFFCURVE",
"345 710 CURVE SMOOTH",
"345 748 OFFCURVE",
"318 776 OFFCURVE",
"278 776 CURVE SMOOTH",
"225 776 OFFCURVE",
"176 728 OFFCURVE",
"176 676 CURVE SMOOTH",
"176 638 OFFCURVE",
"202 610 OFFCURVE",
"242 610 CURVE SMOOTH"
);
}
);
width = 303;
}
);
rightMetricsKey = "=i";
unicode = 006A;
},
{
color = 7;
glyphname = j.ss20;
lastChange = "2020-05-11 18:44:13 +0000";
layers = (
{
background = {
paths = (
{
closed = 1;
nodes = (
"105 0 LINE",
"215 525 LINE",
"155 525 LINE",
"45 0 LINE"
);
},
{
closed = 1;
nodes = (
"-11 -158 OFFCURVE",
"70 -153 OFFCURVE",
"98 -31 CURVE SMOOTH",
"105 0 LINE",
"45 0 LINE",
"42 -15 LINE SMOOTH",
"25 -99 OFFCURVE",
"-6 -103 OFFCURVE",
"-77 -103 CURVE",
"-88 -158 LINE"
);
},
{
closed = 1;
nodes = (
"237 630 OFFCURVE",
"266 656 OFFCURVE",
"267 685 CURVE SMOOTH",
"268 709 OFFCURVE",
"252 726 OFFCURVE",
"227 726 CURVE SMOOTH",
"196 726 OFFCURVE",
"169 699 OFFCURVE",
"168 669 CURVE SMOOTH",
"168 646 OFFCURVE",
"183 630 OFFCURVE",
"207 630 CURVE SMOOTH"
);
}
);
};
layerId = "E773EBAE-783E-4D91-931E-4E5C9CF0967C";
paths = (
{
closed = 1;
nodes = (
"-97 -156 LINE",
"-5 -156 OFFCURVE",
"82 -152 OFFCURVE",
"111 -15 CURVE SMOOTH",
"226 525 LINE",
"165 525 LINE",
"50 -15 LINE SMOOTH",
"32 -98 OFFCURVE",
"-4 -101 OFFCURVE",
"-92 -101 CURVE",
"-62 -75 LINE",
"-85 -188 LINE"
);
},
{
closed = 1;
nodes = (
"263 635 LINE",
"281 721 LINE",
"194 721 LINE",
"176 635 LINE"
);
}
);
width = 254;
},
{
background = {
paths = (
{
closed = 1;
nodes = (
"191 40 LINE",
"296 538 LINE",
"156 538 LINE",
"51 40 LINE"
);
},
{
closed = 1;
nodes = (
"53 -179 OFFCURVE",
"148 -165 OFFCURVE",
"180 -12 CURVE SMOOTH",
"191 40 LINE",
"51 40 LINE",
"46 17 LINE SMOOTH",
"35 -38 OFFCURVE",
"20 -54 OFFCURVE",
"-68 -54 CURVE",
"-95 -179 LINE"
);
},
{
closed = 1;
nodes = (
"293 610 OFFCURVE",
"342 656 OFFCURVE",
"344 707 CURVE SMOOTH",
"346 746 OFFCURVE",
"318 776 OFFCURVE",
"277 776 CURVE SMOOTH",
"225 776 OFFCURVE",
"177 728 OFFCURVE",
"175 677 CURVE SMOOTH",
"174 638 OFFCURVE",
"202 610 OFFCURVE",
"242 610 CURVE SMOOTH"
);
}
);
};
layerId = "C89E7CB9-06CC-4D85-8773-832B05BA201B";
paths = (
{
closed = 1;
nodes = (
"-145 -173 LINE",
"27 -173 OFFCURVE",
"149 -157 OFFCURVE",
"184 8 CURVE SMOOTH",
"297 538 LINE",
"154 538 LINE",
"43 18 LINE SMOOTH",
"30 -43 OFFCURVE",
"-40 -45 OFFCURVE",
"-115 -45 CURVE",
"-55 6 LINE",
"-107 -239 LINE"
);
},
{
closed = 1;
nodes = (
"317 615 LINE",
"349 763 LINE",
"201 763 LINE",
"169 615 LINE"
);
}
);
width = 304;
}
);
rightMetricsKey = "=i+10";
},
{
color = 6;
glyphname = k;
lastChange = "2020-05-11 14:45:27 +0000";
layers = (
{
background = {
paths = (
{
closed = 1;
nodes = (
"95 6 LINE",
"141 224 LINE",
"141 228 LINE",
"145 228 LINE",
"262 315 LINE",
"262 317 LINE",
"266 317 LINE",
"266 315 LINE",
"399 6 LINE",
"464 6 LINE",
"315 352 LINE",
"315 356 LINE",
"318 356 LINE",
"566 539 LINE",
"473 539 LINE",
"164 311 LINE",
"164 309 LINE",
"160 309 LINE",
"251 741 LINE",
"190 741 LINE",
"34 6 LINE"
);
}
);
};
guideLines = (
{
angle = 216.2891;
position = "{398, 409}";
}
);
layerId = "E773EBAE-783E-4D91-931E-4E5C9CF0967C";
paths = (
{
closed = 1;
nodes = (
"95 0 LINE",
"142 220 LINE",
"142 224 LINE",
"146 224 LINE",
"263 310 LINE",
"263 314 LINE",
"267 314 LINE",
"267 310 LINE",
"401 0 LINE",
"467 0 LINE",
"312 344 LINE",
"312 348 LINE",
"315 348 LINE",
"567 533 LINE",
"474 533 LINE",
"164 300 LINE",
"164 298 LINE",
"160 298 LINE",
"160 302 LINE",
"251 735 LINE",
"190 735 LINE",
"34 0 LINE"
);
}
);
width = 573;
},
{
background = {
paths = (
{
closed = 1;
nodes = (
"167 0 LINE",
"206 182 LINE",
"206 186 LINE",
"210 186 LINE",
"296 254 LINE",
"296 257 LINE",
"300 257 LINE",
"300 255 LINE",
"410 0 LINE",
"559 0 LINE",
"401 335 LINE",
"401 339 LINE",
"405 339 LINE",
"654 533 LINE",
"458 533 LINE",
"247 358 LINE",
"247 356 LINE",
"243 356 LINE",
"243 360 LINE",
"323 739 LINE",
"180 739 LINE",
"24 0 LINE"
);
}
);
};
guideLines = (
{
angle = 217.6502;
position = "{390, 327}";
}
);
layerId = "C89E7CB9-06CC-4D85-8773-832B05BA201B";
paths = (
{
closed = 1;
nodes = (
"167 0 LINE",
"206 184 LINE",
"206 188 LINE",
"210 188 LINE",
"290 250 LINE",
"290 254 LINE",
"294 254 LINE",
"294 251 LINE",
"410 0 LINE",
"560 0 LINE",
"399 333 LINE",
"399 337 LINE",
"403 337 LINE",
"657 533 LINE",
"461 533 LINE",
"247 358 LINE",
"247 356 LINE",
"243 356 LINE",
"243 360 LINE",
"323 739 LINE",
"180 739 LINE",
"24 0 LINE"
);
}
);
width = 657;
}
);
leftMetricsKey = "=h";
rightMetricsKey = "=o";
unicode = 006B;
},
{
color = 7;
glyphname = k.ss17;
lastChange = "2020-05-11 14:45:27 +0000";
layers = (
{
background = {
paths = (
{
closed = 1;
nodes = (
"95 0 LINE",
"142 220 LINE",
"142 224 LINE",
"146 224 LINE",
"263 310 LINE",
"263 314 LINE",
"267 314 LINE",
"267 310 LINE",
"401 0 LINE",
"467 0 LINE",
"312 344 LINE",
"312 348 LINE",
"315 348 LINE",
"567 533 LINE",
"474 533 LINE",
"164 300 LINE",
"164 298 LINE",
"160 298 LINE",
"160 302 LINE",
"251 735 LINE",
"190 735 LINE",
"34 0 LINE"
);
}
);
};
guideLines = (
{
angle = 216.2891;
position = "{398, 409}";
}
);
layerId = "E773EBAE-783E-4D91-931E-4E5C9CF0967C";
paths = (
{
closed = 1;
nodes = (
"312 344 LINE",
"312 348 LINE",
"315 348 LINE",
"567 533 LINE",
"474 533 LINE",
"164 300 LINE",
"164 298 LINE",
"160 298 LINE",
"160 302 LINE",
"251 735 LINE",
"190 735 LINE",
"34 0 LINE",
"95 0 LINE",
"142 220 LINE",
"142 224 LINE",
"146 224 LINE",
"263 310 LINE",
"263 314 LINE",
"267 314 LINE",
"267 310 LINE",
"360 55 LINE SMOOTH",
"376 12 OFFCURVE",
"405 -5 OFFCURVE",
"436 -5 CURVE SMOOTH",
"472 -5 OFFCURVE",
"508 18 OFFCURVE",
"521 59 CURVE",
"524 16 LINE",
"499 88 LINE",
"517 91 LINE",
"500 65 OFFCURVE",
"477 47 OFFCURVE",
"455 47 CURVE SMOOTH",
"437 47 OFFCURVE",
"421 59 OFFCURVE",
"410 88 CURVE SMOOTH"
);
}
);
width = 592;
},
{
background = {
paths = (
{
closed = 1;
nodes = (
"167 0 LINE",
"206 184 LINE",
"206 188 LINE",
"210 188 LINE",
"290 250 LINE",
"290 254 LINE",
"294 254 LINE",
"294 251 LINE",
"410 0 LINE",
"560 0 LINE",
"399 333 LINE",
"399 337 LINE",
"403 337 LINE",
"657 533 LINE",
"461 533 LINE",
"247 358 LINE",
"247 356 LINE",
"243 356 LINE",
"243 360 LINE",
"323 739 LINE",
"180 739 LINE",
"24 0 LINE"
);
}
);
};
guideLines = (
{
angle = 217.6502;
position = "{390, 327}";
}
);
layerId = "C89E7CB9-06CC-4D85-8773-832B05BA201B";
paths = (
{
closed = 1;
nodes = (
"399 333 LINE",
"399 337 LINE",
"403 337 LINE",
"657 533 LINE",
"461 533 LINE",
"247 358 LINE",
"247 356 LINE",
"243 356 LINE",
"243 360 LINE",
"323 739 LINE",
"180 739 LINE",
"24 0 LINE",
"167 0 LINE",
"206 184 LINE",
"206 188 LINE",
"210 188 LINE",
"290 250 LINE",
"290 254 LINE",
"294 254 LINE",
"294 251 LINE",
"360 70 LINE SMOOTH",
"380 16 OFFCURVE",
"423 -8 OFFCURVE",
"467 -8 CURVE SMOOTH",
"527 -8 OFFCURVE",
"587 37 OFFCURVE",
"598 114 CURVE",
"614 25 LINE",
"549 160 LINE",
"609 160 LINE",
"577 122 OFFCURVE",
"545 102 OFFCURVE",
"520 102 CURVE SMOOTH",
"497 102 OFFCURVE",
"480 119 OFFCURVE",
"466 156 CURVE SMOOTH"
);
}
);
width = 649;
}
);
leftMetricsKey = "=h";
rightMetricsKey = "=o-20";
},
{
color = 6;
glyphname = l;
lastChange = "2020-05-15 09:31:20 +0000";
layers = (
{
layerId = "E773EBAE-783E-4D91-931E-4E5C9CF0967C";
paths = (
{
closed = 1;
nodes = (
"208 67 LINE",
"225 49 LINE",
"216 49 OFFCURVE",
"205 49 OFFCURVE",
"196 49 CURVE SMOOTH",
"119 49 OFFCURVE",
"109 73 OFFCURVE",
"125 146 CURVE SMOOTH",
"251 735 LINE",
"190 735 LINE",
"68 157 LINE SMOOTH",
"48 62 OFFCURVE",
"66 -1 OFFCURVE",
"171 -1 CURVE SMOOTH",
"188 -1 OFFCURVE",
"205 1 OFFCURVE",
"221 4 CURVE",
"187 -25 LINE"
);
}
);
width = 279;
},
{
background = {
paths = (
{
closed = 1;
nodes = (
"243 -7 OFFCURVE",
"284 -2 OFFCURVE",
"300 1 CURVE",
"258 -39 LINE",
"297 147 LINE",
"339 118 LINE",
"323 115 OFFCURVE",
"281 114 OFFCURVE",
"267 114 CURVE SMOOTH",
"182 114 OFFCURVE",
"197 150 OFFCURVE",
"217 240 CURVE SMOOTH",
"327 743 LINE",
"184 743 LINE",
"73 214 LINE SMOOTH",
"66 182 OFFCURVE",
"57 138 OFFCURVE",
"57 108 CURVE SMOOTH",
"57 26 OFFCURVE",
"126 -7 OFFCURVE",
"211 -7 CURVE SMOOTH"
);
}
);
};
layerId = "C89E7CB9-06CC-4D85-8773-832B05BA201B";
paths = (
{
closed = 1;
nodes = (
"297 154 LINE",
"376 122 LINE",
"340 120 OFFCURVE",
"312 119 OFFCURVE",
"278 119 CURVE SMOOTH",
"209 119 OFFCURVE",
"194 140 OFFCURVE",
"206 196 CURVE SMOOTH",
"324 743 LINE",
"181 743 LINE",
"62 182 LINE SMOOTH",
"32 41 OFFCURVE",
"96 -6 OFFCURVE",
"216 -6 CURVE SMOOTH",
"251 -6 OFFCURVE",
"324 -4 OFFCURVE",
"353 2 CURVE",
"253 -54 LINE"
);
}
);
width = 342;
}
);
leftMetricsKey = "=h";
rightMetricsKey = "=o-20";
unicode = 006C;
},
{
color = 6;
glyphname = l.ss03;
lastChange = "2020-04-29 13:48:03 +0000";
layers = (
{
background = {
paths = (
{
closed = 1;
nodes = (
"114 735 LINE",
"114 123 LINE SMOOTH",
"114 36 OFFCURVE",
"152 -3 OFFCURVE",
"238 -3 CURVE SMOOTH",
"252 -3 OFFCURVE",
"271 -1 OFFCURVE",
"281 2 CURVE",
"281 56 LINE",
"275 55 OFFCURVE",
"258 54 OFFCURVE",
"250 54 CURVE SMOOTH",
"197 54 OFFCURVE",
"178 76 OFFCURVE",
"178 138 CURVE SMOOTH",
"178 735 LINE"
);
}
);
};
layerId = "E773EBAE-783E-4D91-931E-4E5C9CF0967C";
paths = (
{
closed = 1;
nodes = (
"95 0 LINE",
"251 735 LINE",
"190 735 LINE",
"34 0 LINE"
);
}
);
width = 241;
},
{
layerId = "C89E7CB9-06CC-4D85-8773-832B05BA201B";
paths = (
{
closed = 1;
nodes = (
"166 0 LINE",
"324 743 LINE",
"181 743 LINE",
"23 0 LINE"
);
}
);
width = 303;
}
);
leftMetricsKey = "=h";
rightMetricsKey = "=h";
},
{
color = 6;
glyphname = m;
lastChange = "2020-04-29 13:48:03 +0000";
layers = (
{
background = {
paths = (
{
closed = 1;
nodes = (
"96 0 LINE",
"162 312 LINE SMOOTH",
"187 430 OFFCURVE",
"270 478 OFFCURVE",
"342 478 CURVE SMOOTH",
"423 478 OFFCURVE",
"453 421 OFFCURVE",
"434 331 CURVE SMOOTH",
"364 0 LINE",
"425 0 LINE",
"491 312 LINE SMOOTH",
"517 435 OFFCURVE",
"598 478 OFFCURVE",
"669 478 CURVE SMOOTH",
"753 478 OFFCURVE",
"782 424 OFFCURVE",
"763 332 CURVE SMOOTH",
"693 0 LINE",
"754 0 LINE",
"828 351 LINE SMOOTH",
"850 455 OFFCURVE",
"799 533 OFFCURVE",
"694 533 CURVE SMOOTH",
"597 533 OFFCURVE",
"528 465 OFFCURVE",
"501 434 CURVE",
"501 432 LINE",
"497 432 LINE",
"497 435 LINE SMOOTH",
"497 455 OFFCURVE",
"471 533 OFFCURVE",
"364 533 CURVE SMOOTH",
"255 533 OFFCURVE",
"199 448 OFFCURVE",
"192 436 CURVE",
"192 434 LINE",
"188 434 LINE",
"207 525 LINE",
"146 525 LINE",
"35 0 LINE"
);
}
);
};
layerId = "E773EBAE-783E-4D91-931E-4E5C9CF0967C";
paths = (
{
closed = 1;
nodes = (
"96 0 LINE",
"162 312 LINE SMOOTH",
"187 430 OFFCURVE",
"270 478 OFFCURVE",
"343 478 CURVE SMOOTH",
"408 478 OFFCURVE",
"440 441 OFFCURVE",
"440 379 CURVE SMOOTH",
"440 360 OFFCURVE",
"437 343 OFFCURVE",
"434 331 CURVE SMOOTH",
"364 0 LINE",
"425 0 LINE",
"491 312 LINE SMOOTH",
"517 435 OFFCURVE",
"597 478 OFFCURVE",
"670 478 CURVE SMOOTH",
"736 478 OFFCURVE",
"769 443 OFFCURVE",
"769 381 CURVE SMOOTH",
"769 362 OFFCURVE",
"766 345 OFFCURVE",
"763 332 CURVE SMOOTH",
"693 0 LINE",
"754 0 LINE",
"827 344 LINE SMOOTH",
"830 360 OFFCURVE",
"832 381 OFFCURVE",
"832 397 CURVE SMOOTH",
"832 477 OFFCURVE",
"782 533 OFFCURVE",
"694 533 CURVE SMOOTH",
"597 533 OFFCURVE",
"528 465 OFFCURVE",
"501 434 CURVE",
"501 431 LINE",
"497 431 LINE",
"497 435 LINE",
"497 455 OFFCURVE",
"471 533 OFFCURVE",
"365 533 CURVE SMOOTH",
"255 533 OFFCURVE",
"199 448 OFFCURVE",
"192 436 CURVE",
"192 434 LINE",
"188 434 LINE",
"188 438 LINE",
"206 525 LINE",
"146 525 LINE",
"35 0 LINE"
);
}
);
width = 900;
},
{
background = {
paths = (
{
closed = 1;
nodes = (
"168 0 LINE",
"231 300 LINE SMOOTH",
"254 411 OFFCURVE",
"321 419 OFFCURVE",
"356 419 CURVE SMOOTH",
"414 419 OFFCURVE",
"429 370 OFFCURVE",
"416 308 CURVE SMOOTH",
"353 0 LINE",
"495 0 LINE",
"559 303 LINE SMOOTH",
"582 411 OFFCURVE",
"652 419 OFFCURVE",
"685 419 CURVE SMOOTH",
"743 419 OFFCURVE",
"758 376 OFFCURVE",
"744 309 CURVE SMOOTH",
"680 0 LINE",
"823 0 LINE",
"893 339 LINE SMOOTH",
"917 456 OFFCURVE",
"872 537 OFFCURVE",
"767 537 CURVE SMOOTH",
"668 537 OFFCURVE",
"595 464 OFFCURVE",
"574 441 CURVE",
"574 437 LINE",
"570 437 LINE",
"570 441 LINE SMOOTH",
"570 457 OFFCURVE",
"536 537 OFFCURVE",
"445 537 CURVE SMOOTH",
"348 537 OFFCURVE",
"289 478 OFFCURVE",
"263 441 CURVE",
"263 439 LINE",
"259 439 LINE",
"259 443 LINE",
"276 525 LINE",
"135 525 LINE",
"25 0 LINE"
);
}
);
};
layerId = "C89E7CB9-06CC-4D85-8773-832B05BA201B";
paths = (
{
closed = 1;
nodes = (
"168 0 LINE",
"231 300 LINE SMOOTH",
"254 411 OFFCURVE",
"323 419 OFFCURVE",
"351 419 CURVE SMOOTH",
"404 419 OFFCURVE",
"421 388 OFFCURVE",
"421 348 CURVE SMOOTH",
"421 331 OFFCURVE",
"418 315 OFFCURVE",
"415 302 CURVE SMOOTH",
"353 0 LINE",
"495 0 LINE",
"559 303 LINE SMOOTH",
"582 411 OFFCURVE",
"654 419 OFFCURVE",
"682 419 CURVE SMOOTH",
"730 419 OFFCURVE",
"749 396 OFFCURVE",
"749 353 CURVE SMOOTH",
"749 339 OFFCURVE",
"747 325 OFFCURVE",
"744 309 CURVE SMOOTH",
"680 0 LINE",
"823 0 LINE",
"893 339 LINE SMOOTH",
"897 360 OFFCURVE",
"899 380 OFFCURVE",
"899 398 CURVE SMOOTH",
"899 484 OFFCURVE",
"852 537 OFFCURVE",
"767 537 CURVE SMOOTH",
"672 537 OFFCURVE",
"595 473 OFFCURVE",
"574 441 CURVE",
"574 437 LINE",
"570 437 LINE",
"570 441 LINE SMOOTH",
"570 457 OFFCURVE",
"540 537 OFFCURVE",
"439 537 CURVE SMOOTH",
"352 537 OFFCURVE",
"289 478 OFFCURVE",
"263 441 CURVE",
"263 439 LINE",
"259 439 LINE",
"259 443 LINE",
"276 525 LINE",
"135 525 LINE",
"25 0 LINE"
);
}
);
width = 960;
}
);
leftMetricsKey = "=n";
rightMetricsKey = "=n";
unicode = 006D;
},
{
color = 7;
glyphname = m.ss17;
lastChange = "2020-05-11 14:45:27 +0000";
layers = (
{
background = {
paths = (
{
closed = 1;
nodes = (
"780 -7 OFFCURVE",
"799 -3 OFFCURVE",
"819 6 CURVE",
"829 53 LINE",
"815 49 OFFCURVE",
"798 46 OFFCURVE",
"785 46 CURVE SMOOTH",
"755 46 OFFCURVE",
"744 64 OFFCURVE",
"756 104 CURVE SMOOTH",
"823 335 LINE SMOOTH",
"858 455 OFFCURVE",
"796 533 OFFCURVE",
"694 533 CURVE SMOOTH",
"597 533 OFFCURVE",
"528 465 OFFCURVE",
"501 434 CURVE",
"501 432 LINE",
"497 432 LINE",
"497 435 LINE SMOOTH",
"497 455 OFFCURVE",
"472 533 OFFCURVE",
"364 533 CURVE SMOOTH",
"255 533 OFFCURVE",
"199 448 OFFCURVE",
"192 436 CURVE",
"192 434 LINE",
"188 434 LINE",
"207 525 LINE",
"146 525 LINE",
"35 0 LINE",
"96 0 LINE",
"162 312 LINE SMOOTH",
"187 430 OFFCURVE",
"270 478 OFFCURVE",
"342 478 CURVE SMOOTH",
"423 478 OFFCURVE",
"453 421 OFFCURVE",
"434 331 CURVE SMOOTH",
"364 0 LINE",
"425 0 LINE",
"491 312 LINE SMOOTH",
"517 435 OFFCURVE",
"598 478 OFFCURVE",
"669 478 CURVE SMOOTH",
"759 478 OFFCURVE",
"787 424 OFFCURVE",
"759 326 CURVE SMOOTH",
"693 95 LINE SMOOTH",
"675 32 OFFCURVE",
"713 -7 OFFCURVE",
"762 -7 CURVE SMOOTH"
);
}
);
};
layerId = "E773EBAE-783E-4D91-931E-4E5C9CF0967C";
paths = (
{
closed = 1;
nodes = (
"831 77 LINE",
"854 57 LINE",
"836 52 OFFCURVE",
"808 45 OFFCURVE",
"785 45 CURVE SMOOTH",
"751 45 OFFCURVE",
"736 60 OFFCURVE",
"750 102 CURVE SMOOTH",
"803 267 LINE SMOOTH",
"818 314 OFFCURVE",
"831 357 OFFCURVE",
"831 397 CURVE SMOOTH",
"831 473 OFFCURVE",
"785 533 OFFCURVE",
"694 533 CURVE SMOOTH",
"597 533 OFFCURVE",
"528 465 OFFCURVE",
"501 434 CURVE",
"501 431 LINE",
"497 431 LINE",
"497 435 LINE",
"497 455 OFFCURVE",
"471 533 OFFCURVE",
"365 533 CURVE SMOOTH",
"255 533 OFFCURVE",
"199 448 OFFCURVE",
"192 436 CURVE",
"192 434 LINE",
"188 434 LINE",
"188 438 LINE",
"206 525 LINE",
"146 525 LINE",
"35 0 LINE",
"96 0 LINE",
"162 312 LINE SMOOTH",
"187 430 OFFCURVE",
"270 478 OFFCURVE",
"343 478 CURVE SMOOTH",
"408 478 OFFCURVE",
"440 441 OFFCURVE",
"440 379 CURVE SMOOTH",
"440 360 OFFCURVE",
"437 343 OFFCURVE",
"434 331 CURVE SMOOTH",
"364 0 LINE",
"425 0 LINE",
"491 312 LINE SMOOTH",
"517 435 OFFCURVE",
"597 478 OFFCURVE",
"670 478 CURVE SMOOTH",
"738 478 OFFCURVE",
"771 444 OFFCURVE",
"771 383 CURVE SMOOTH",
"771 350 OFFCURVE",
"761 312 OFFCURVE",
"749 275 CURVE SMOOTH",
"692 96 LINE SMOOTH",
"676 45 OFFCURVE",
"697 -5 OFFCURVE",
"764 -5 CURVE SMOOTH",
"789 -5 OFFCURVE",
"819 2 OFFCURVE",
"845 13 CURVE",
"809 -20 LINE"
);
}
);
width = 900;
},
{
background = {
paths = (
{
closed = 1;
nodes = (
"831 -13 OFFCURVE",
"869 -3 OFFCURVE",
"899 18 CURVE",
"913 84 LINE",
"898 81 OFFCURVE",
"885 80 OFFCURVE",
"872 80 CURVE SMOOTH",
"828 80 OFFCURVE",
"821 120 OFFCURVE",
"838 171 CURVE SMOOTH",
"892 330 LINE SMOOTH",
"930 441 OFFCURVE",
"877 537 OFFCURVE",
"767 537 CURVE SMOOTH",
"668 537 OFFCURVE",
"595 464 OFFCURVE",
"574 441 CURVE",
"574 439 LINE",
"570 439 LINE",
"570 441 LINE SMOOTH",
"570 457 OFFCURVE",
"536 537 OFFCURVE",
"445 537 CURVE SMOOTH",
"348 537 OFFCURVE",
"289 478 OFFCURVE",
"263 441 CURVE",
"263 439 LINE",
"259 439 LINE",
"277 525 LINE",
"135 525 LINE",
"25 0 LINE",
"168 0 LINE",
"231 300 LINE SMOOTH",
"254 411 OFFCURVE",
"321 419 OFFCURVE",
"356 419 CURVE SMOOTH",
"415 419 OFFCURVE",
"429 372 OFFCURVE",
"416 308 CURVE SMOOTH",
"353 0 LINE",
"495 0 LINE",
"558 303 LINE SMOOTH",
"580 411 OFFCURVE",
"652 419 OFFCURVE",
"685 419 CURVE SMOOTH",
"745 419 OFFCURVE",
"761 368 OFFCURVE",
"742 309 CURVE SMOOTH",
"685 129 LINE SMOOTH",
"660 51 OFFCURVE",
"709 -13 OFFCURVE",
"799 -13 CURVE SMOOTH"
);
}
);
};
layerId = "C89E7CB9-06CC-4D85-8773-832B05BA201B";
paths = (
{
closed = 1;
nodes = (
"924 135 LINE",
"961 99 LINE",
"926 86 OFFCURVE",
"895 80 OFFCURVE",
"874 80 CURVE SMOOTH",
"830 80 OFFCURVE",
"815 106 OFFCURVE",
"836 171 CURVE SMOOTH",
"882 311 LINE SMOOTH",
"891 339 OFFCURVE",
"898 368 OFFCURVE",
"898 400 CURVE SMOOTH",
"898 484 OFFCURVE",
"851 537 OFFCURVE",
"767 537 CURVE SMOOTH",
"677 537 OFFCURVE",
"601 476 OFFCURVE",
"574 441 CURVE",
"574 437 LINE",
"570 437 LINE",
"570 441 LINE SMOOTH",
"570 457 OFFCURVE",
"540 537 OFFCURVE",
"439 537 CURVE SMOOTH",
"352 537 OFFCURVE",
"289 478 OFFCURVE",
"263 441 CURVE",
"263 439 LINE",
"259 439 LINE",
"259 443 LINE",
"276 525 LINE",
"135 525 LINE",
"25 0 LINE",
"168 0 LINE",
"231 300 LINE SMOOTH",
"254 411 OFFCURVE",
"323 419 OFFCURVE",
"351 419 CURVE SMOOTH",
"404 419 OFFCURVE",
"421 388 OFFCURVE",
"421 348 CURVE SMOOTH",
"421 331 OFFCURVE",
"418 315 OFFCURVE",
"415 302 CURVE SMOOTH",
"353 0 LINE",
"495 0 LINE",
"559 303 LINE SMOOTH",
"582 411 OFFCURVE",
"653 419 OFFCURVE",
"679 419 CURVE SMOOTH",
"723 419 OFFCURVE",
"750 396 OFFCURVE",
"750 352 CURVE SMOOTH",
"750 335 OFFCURVE",
"746 318 OFFCURVE",
"740 299 CURVE SMOOTH",
"689 129 LINE SMOOTH",
"664 44 OFFCURVE",
"708 -13 OFFCURVE",
"794 -13 CURVE SMOOTH",
"846 -13 OFFCURVE",
"897 8 OFFCURVE",
"926 46 CURVE",
"885 -39 LINE"
);
}
);
width = 972;
}
);
leftMetricsKey = "=n";
rightMetricsKey = "=o-20";
},
{
color = 6;
glyphname = n;
lastChange = "2020-05-15 09:13:41 +0000";
layers = (
{
background = {
paths = (
{
closed = 1;
nodes = (
"289 533 OFFCURVE",
"208 464 OFFCURVE",
"188 424 CURVE",
"188 422 LINE",
"184 422 LINE",
"206 525 LINE",
"145 525 LINE",
"34 0 LINE",
"95 0 LINE",
"163 319 LINE",
"195 431 OFFCURVE",
"291 478 OFFCURVE",
"370 478 CURVE SMOOTH",
"444 478 OFFCURVE",
"481 421 OFFCURVE",
"461 325 CURVE SMOOTH",
"393 0 LINE",
"454 0 LINE",
"525 341 LINE SMOOTH",
"550 459 OFFCURVE",
"485 533 OFFCURVE",
"389 533 CURVE SMOOTH"
);
}
);
};
layerId = "E773EBAE-783E-4D91-931E-4E5C9CF0967C";
paths = (
{
closed = 1;
nodes = (
"96 0 LINE",
"160 302 LINE SMOOTH",
"184 415 OFFCURVE",
"279 479 OFFCURVE",
"362 479 CURVE SMOOTH",
"429 479 OFFCURVE",
"465 439 OFFCURVE",
"465 372 CURVE SMOOTH",
"465 356 OFFCURVE",
"463 337 OFFCURVE",
"459 319 CURVE SMOOTH",
"393 0 LINE",
"454 0 LINE",
"522 328 LINE SMOOTH",
"525 341 OFFCURVE",
"528 364 OFFCURVE",
"528 384 CURVE SMOOTH",
"528 470 OFFCURVE",
"471 533 OFFCURVE",
"381 533 CURVE SMOOTH",
"280 533 OFFCURVE",
"208 454 OFFCURVE",
"188 414 CURVE",
"188 412 LINE",
"184 412 LINE",
"184 416 LINE",
"206 525 LINE",
"146 525 LINE",
"35 0 LINE"
);
}
);
width = 600;
},
{
background = {
paths = (
{
closed = 0;
nodes = (
"439 346 LINE SMOOTH",
"439 329 OFFCURVE",
"436 313 OFFCURVE",
"433 299 CURVE SMOOTH"
);
},
{
closed = 0;
nodes = (
"580 317 LINE SMOOTH",
"584 338 OFFCURVE",
"588 364 OFFCURVE",
"588 390 CURVE SMOOTH"
);
}
);
};
layerId = "C89E7CB9-06CC-4D85-8773-832B05BA201B";
paths = (
{
closed = 1;
nodes = (
"168 0 LINE",
"228 282 LINE SMOOTH",
"245 364 OFFCURVE",
"313 419 OFFCURVE",
"372 419 CURVE SMOOTH",
"410 419 OFFCURVE",
"439 396 OFFCURVE",
"439 346 CURVE SMOOTH",
"439 330 OFFCURVE",
"436 313 OFFCURVE",
"433 299 CURVE SMOOTH",
"370 0 LINE",
"513 0 LINE",
"579 317 LINE SMOOTH",
"583 338 OFFCURVE",
"586 367 OFFCURVE",
"586 390 CURVE SMOOTH",
"586 488 OFFCURVE",
"531 537 OFFCURVE",
"447 537 CURVE SMOOTH",
"329 537 OFFCURVE",
"270 436 OFFCURVE",
"260 418 CURVE",
"260 416 LINE",
"256 416 LINE",
"256 420 LINE",
"277 525 LINE",
"135 525 LINE",
"25 0 LINE"
);
}
);
width = 650;
}
);
rightMetricsKey = "=|";
unicode = 006E;
},
{
color = 7;
glyphname = n.ss17;
lastChange = "2020-05-11 14:45:27 +0000";
layers = (
{
background = {
paths = (
{
closed = 1;
nodes = (
"531 77 LINE",
"554 57 LINE",
"536 52 OFFCURVE",
"510 45 OFFCURVE",
"490 45 CURVE SMOOTH",
"454 45 OFFCURVE",
"438 57 OFFCURVE",
"452 103 CURVE SMOOTH",
"497 250 LINE",
"511 295 OFFCURVE",
"530 360 OFFCURVE",
"530 392 CURVE SMOOTH",
"530 472 OFFCURVE",
"477 533 OFFCURVE",
"393 533 CURVE SMOOTH",
"280 533 OFFCURVE",
"208 454 OFFCURVE",
"188 414 CURVE",
"188 412 LINE",
"184 412 LINE",
"184 416 LINE",
"207 525 LINE",
"146 525 LINE",
"34 0 LINE",
"95 0 LINE",
"160 305 LINE SMOOTH",
"186 427 OFFCURVE",
"300 479 OFFCURVE",
"373 479 CURVE SMOOTH",
"437 479 OFFCURVE",
"471 440 OFFCURVE",
"471 385 CURVE SMOOTH",
"471 357 OFFCURVE",
"435 236 OFFCURVE",
"424 201 CURVE",
"392 96 LINE SMOOTH",
"377 45 OFFCURVE",
"397 -5 OFFCURVE",
"464 -5 CURVE SMOOTH",
"490 -5 OFFCURVE",
"519 2 OFFCURVE",
"545 13 CURVE",
"509 -20 LINE"
);
}
);
};
layerId = "E773EBAE-783E-4D91-931E-4E5C9CF0967C";
paths = (
{
closed = 1;
nodes = (
"531 77 LINE",
"554 57 LINE",
"536 52 OFFCURVE",
"508 45 OFFCURVE",
"485 45 CURVE SMOOTH",
"451 45 OFFCURVE",
"436 60 OFFCURVE",
"450 102 CURVE SMOOTH",
"503 267 LINE SMOOTH",
"518 314 OFFCURVE",
"530 359 OFFCURVE",
"530 396 CURVE SMOOTH",
"530 476 OFFCURVE",
"474 533 OFFCURVE",
"387 533 CURVE SMOOTH",
"282 533 OFFCURVE",
"208 454 OFFCURVE",
"188 414 CURVE",
"188 412 LINE",
"184 412 LINE",
"184 416 LINE",
"207 525 LINE",
"146 525 LINE",
"34 0 LINE",
"95 0 LINE",
"162 312 LINE SMOOTH",
"182 406 OFFCURVE",
"290 479 OFFCURVE",
"374 479 CURVE SMOOTH",
"436 479 OFFCURVE",
"471 440 OFFCURVE",
"471 381 CURVE SMOOTH",
"471 350 OFFCURVE",
"461 312 OFFCURVE",
"449 275 CURVE SMOOTH",
"392 96 LINE SMOOTH",
"376 45 OFFCURVE",
"397 -5 OFFCURVE",
"464 -5 CURVE SMOOTH",
"489 -5 OFFCURVE",
"519 2 OFFCURVE",
"545 13 CURVE",
"509 -20 LINE"
);
}
);
width = 600;
},
{
background = {
paths = (
{
closed = 1;
nodes = (
"617 135 LINE",
"654 99 LINE",
"619 86 OFFCURVE",
"588 80 OFFCURVE",
"567 80 CURVE SMOOTH",
"524 80 OFFCURVE",
"508 106 OFFCURVE",
"529 171 CURVE SMOOTH",
"575 311 LINE",
"581 329 OFFCURVE",
"591 367 OFFCURVE",
"591 398 CURVE SMOOTH",
"591 478 OFFCURVE",
"542 537 OFFCURVE",
"456 537 CURVE SMOOTH",
"329 537 OFFCURVE",
"270 436 OFFCURVE",
"260 418 CURVE",
"260 416 LINE",
"256 416 LINE",
"256 420 LINE",
"278 525 LINE",
"135 525 LINE",
"23 0 LINE",
"166 0 LINE",
"226 280 LINE SMOOTH",
"245 371 OFFCURVE",
"314 419 OFFCURVE",
"374 419 CURVE SMOOTH",
"416 419 OFFCURVE",
"442 395 OFFCURVE",
"442 351 CURVE SMOOTH",
"442 336 OFFCURVE",
"439 319 OFFCURVE",
"433 299 CURVE",
"382 129 LINE SMOOTH",
"357 44 OFFCURVE",
"401 -13 OFFCURVE",
"487 -13 CURVE SMOOTH",
"539 -13 OFFCURVE",
"590 8 OFFCURVE",
"619 46 CURVE",
"578 -39 LINE"
);
}
);
};
layerId = "C89E7CB9-06CC-4D85-8773-832B05BA201B";
paths = (
{
closed = 1;
nodes = (
"617 135 LINE",
"654 99 LINE",
"619 86 OFFCURVE",
"588 80 OFFCURVE",
"567 80 CURVE SMOOTH",
"523 80 OFFCURVE",
"508 106 OFFCURVE",
"529 171 CURVE SMOOTH",
"575 311 LINE SMOOTH",
"584 338 OFFCURVE",
"591 369 OFFCURVE",
"591 399 CURVE SMOOTH",
"591 478 OFFCURVE",
"543 537 OFFCURVE",
"452 537 CURVE SMOOTH",
"331 537 OFFCURVE",
"270 436 OFFCURVE",
"260 418 CURVE",
"260 416 LINE",
"256 416 LINE",
"256 420 LINE",
"278 525 LINE",
"135 525 LINE",
"23 0 LINE",
"166 0 LINE",
"226 280 LINE SMOOTH",
"245 371 OFFCURVE",
"316 419 OFFCURVE",
"375 419 CURVE SMOOTH",
"416 419 OFFCURVE",
"442 395 OFFCURVE",
"442 351 CURVE SMOOTH",
"442 336 OFFCURVE",
"439 319 OFFCURVE",
"433 299 CURVE SMOOTH",
"382 129 LINE SMOOTH",
"357 44 OFFCURVE",
"401 -13 OFFCURVE",
"487 -13 CURVE SMOOTH",
"539 -13 OFFCURVE",
"590 8 OFFCURVE",
"619 46 CURVE",
"578 -39 LINE"
);
}
);
width = 665;
}
);
leftMetricsKey = "=n";
rightMetricsKey = "=o-20";
},
{
color = 6;
glyphname = o;
lastChange = "2020-05-11 14:45:13 +0000";
layers = (
{
background = {
paths = (
{
closed = 1;
nodes = (
"410 -8 OFFCURVE",
"535 150 OFFCURVE",
"535 321 CURVE SMOOTH",
"535 446 OFFCURVE",
"449 533 OFFCURVE",
"337 533 CURVE SMOOTH",
"171 533 OFFCURVE",
"46 377 OFFCURVE",
"46 206 CURVE SMOOTH",
"46 80 OFFCURVE",
"133 -8 OFFCURVE",
"244 -8 CURVE SMOOTH"
);
},
{
closed = 1;
nodes = (
"173 52 OFFCURVE",
"108 117 OFFCURVE",
"108 210 CURVE SMOOTH",
"108 347 OFFCURVE",
"190 473 OFFCURVE",
"324 473 CURVE SMOOTH",
"409 473 OFFCURVE",
"473 409 OFFCURVE",
"473 314 CURVE SMOOTH",
"473 179 OFFCURVE",
"389 52 OFFCURVE",
"257 52 CURVE SMOOTH"
);
}
);
};
layerId = "E773EBAE-783E-4D91-931E-4E5C9CF0967C";
paths = (
{
closed = 1;
nodes = (
"407 -8 OFFCURVE",
"534 155 OFFCURVE",
"534 315 CURVE SMOOTH",
"534 451 OFFCURVE",
"448 533 OFFCURVE",
"334 533 CURVE SMOOTH",
"176 533 OFFCURVE",
"46 376 OFFCURVE",
"46 211 CURVE SMOOTH",
"46 79 OFFCURVE",
"130 -8 OFFCURVE",
"248 -8 CURVE SMOOTH"
);
},
{
closed = 1;
nodes = (
"173 47 OFFCURVE",
"111 113 OFFCURVE",
"111 221 CURVE SMOOTH",
"111 343 OFFCURVE",
"192 478 OFFCURVE",
"321 478 CURVE SMOOTH",
"411 478 OFFCURVE",
"469 412 OFFCURVE",
"469 306 CURVE SMOOTH",
"469 182 OFFCURVE",
"387 47 OFFCURVE",
"260 47 CURVE SMOOTH"
);
}
);
width = 580;
},
{
background = {
paths = (
{
closed = 1;
nodes = (
"429 -12 OFFCURVE",
"565 149 OFFCURVE",
"565 330 CURVE SMOOTH",
"565 458 OFFCURVE",
"465 537 OFFCURVE",
"346 537 CURVE SMOOTH",
"170 537 OFFCURVE",
"33 378 OFFCURVE",
"33 198 CURVE SMOOTH",
"33 70 OFFCURVE",
"132 -12 OFFCURVE",
"251 -12 CURVE SMOOTH"
);
},
{
closed = 1;
nodes = (
"210 104 OFFCURVE",
"173 147 OFFCURVE",
"173 211 CURVE SMOOTH",
"173 315 OFFCURVE",
"225 421 OFFCURVE",
"322 421 CURVE SMOOTH",
"387 421 OFFCURVE",
"425 379 OFFCURVE",
"425 316 CURVE SMOOTH",
"425 210 OFFCURVE",
"376 104 OFFCURVE",
"275 104 CURVE SMOOTH"
);
}
);
};
layerId = "C89E7CB9-06CC-4D85-8773-832B05BA201B";
paths = (
{
closed = 1;
nodes = (
"430 -12 OFFCURVE",
"565 156 OFFCURVE",
"565 324 CURVE SMOOTH",
"565 465 OFFCURVE",
"465 537 OFFCURVE",
"346 537 CURVE SMOOTH",
"170 537 OFFCURVE",
"34 374 OFFCURVE",
"34 208 CURVE SMOOTH",
"34 66 OFFCURVE",
"133 -12 OFFCURVE",
"255 -12 CURVE SMOOTH"
);
},
{
closed = 1;
nodes = (
"214 104 OFFCURVE",
"174 141 OFFCURVE",
"174 221 CURVE SMOOTH",
"174 309 OFFCURVE",
"221 421 OFFCURVE",
"324 421 CURVE SMOOTH",
"383 421 OFFCURVE",
"425 384 OFFCURVE",
"425 302 CURVE SMOOTH",
"425 215 OFFCURVE",
"380 104 OFFCURVE",
"275 104 CURVE SMOOTH"
);
}
);
width = 600;
}
);
rightMetricsKey = "=|";
unicode = 006F;
},
{
color = 3;
glyphname = oe;
lastChange = "2020-05-27 17:02:37 +0000";
layers = (
{
background = {
paths = (
{
closed = 1;
nodes = (
"325 -8 OFFCURVE",
"406 45 OFFCURVE",
"464 122 CURVE",
"465 126 LINE",
"469 126 LINE",
"468 122 LINE",
"492 42 OFFCURVE",
"551 -8 OFFCURVE",
"651 -8 CURVE SMOOTH",
"761 -8 OFFCURVE",
"839 52 OFFCURVE",
"880 98 CURVE",
"841 131 LINE",
"804 91 OFFCURVE",
"747 47 OFFCURVE",
"662 47 CURVE SMOOTH",
"542 47 OFFCURVE",
"500 138 OFFCURVE",
"523 250 CURVE",
"524 254 LINE",
"528 254 LINE",
"528 252 LINE",
"948 252 LINE",
"914 234 LINE",
"922 254 OFFCURVE",
"928 274 OFFCURVE",
"932 293 CURVE SMOOTH",
"959 420 OFFCURVE",
"894 533 OFFCURVE",
"757 533 CURVE SMOOTH",
"665 533 OFFCURVE",
"583 482 OFFCURVE",
"528 407 CURVE",
"527 403 LINE",
"523 403 LINE",
"524 407 LINE",
"497 484 OFFCURVE",
"435 533 OFFCURVE",
"347 533 CURVE SMOOTH",
"217 533 OFFCURVE",
"85 427 OFFCURVE",
"50 264 CURVE SMOOTH",
"15 100 OFFCURVE",
"105 -8 OFFCURVE",
"234 -8 CURVE SMOOTH"
);
},
{
closed = 1;
nodes = (
"143 48 OFFCURVE",
"87 133 OFFCURVE",
"115 264 CURVE SMOOTH",
"143 395 OFFCURVE",
"235 477 OFFCURVE",
"336 477 CURVE SMOOTH",
"437 477 OFFCURVE",
"494 395 OFFCURVE",
"466 264 CURVE SMOOTH",
"438 133 OFFCURVE",
"347 48 OFFCURVE",
"245 48 CURVE SMOOTH"
);
},
{
closed = 1;
nodes = (
"538 309 LINE",
"556 394 OFFCURVE",
"638 478 OFFCURVE",
"746 478 CURVE SMOOTH",
"854 478 OFFCURVE",
"891 392 OFFCURVE",
"873 309 CURVE",
"872 304 LINE",
"868 304 LINE",
"868 307 LINE",
"541 307 LINE",
"541 304 LINE",
"537 304 LINE"
);
}
);
};
layerId = "E773EBAE-783E-4D91-931E-4E5C9CF0967C";
paths = (
{
closed = 1;
nodes = (
"346 -8 OFFCURVE",
"416 49 OFFCURVE",
"469 122 CURVE",
"469 126 LINE",
"473 126 LINE",
"473 122 LINE",
"502 44 OFFCURVE",
"572 -8 OFFCURVE",
"667 -8 CURVE SMOOTH",
"771 -8 OFFCURVE",
"842 52 OFFCURVE",
"881 98 CURVE",
"840 134 LINE",
"804 94 OFFCURVE",
"754 47 OFFCURVE",
"667 47 CURVE SMOOTH",
"547 47 OFFCURVE",
"501 138 OFFCURVE",
"524 250 CURVE",
"524 254 LINE",
"528 254 LINE",
"528 252 LINE",
"948 252 LINE",
"914 235 LINE",
"930 270 OFFCURVE",
"938 312 OFFCURVE",
"938 348 CURVE SMOOTH",
"938 451 OFFCURVE",
"869 533 OFFCURVE",
"751 533 CURVE SMOOTH",
"655 533 OFFCURVE",
"572 478 OFFCURVE",
"519 404 CURVE",
"519 400 LINE",
"515 400 LINE",
"515 404 LINE",
"485 483 OFFCURVE",
"419 533 OFFCURVE",
"332 533 CURVE SMOOTH",
"176 533 OFFCURVE",
"46 376 OFFCURVE",
"46 211 CURVE SMOOTH",
"46 79 OFFCURVE",
"138 -8 OFFCURVE",
"253 -8 CURVE SMOOTH"
);
},
{
closed = 1;
nodes = (
"173 47 OFFCURVE",
"111 112 OFFCURVE",
"111 220 CURVE SMOOTH",
"111 342 OFFCURVE",
"192 478 OFFCURVE",
"321 478 CURVE SMOOTH",
"411 478 OFFCURVE",
"469 412 OFFCURVE",
"469 306 CURVE SMOOTH",
"469 182 OFFCURVE",
"387 47 OFFCURVE",
"260 47 CURVE SMOOTH"
);
},
{
closed = 1;
nodes = (
"539 308 LINE",
"557 393 OFFCURVE",
"638 478 OFFCURVE",
"746 478 CURVE SMOOTH",
"854 478 OFFCURVE",
"891 392 OFFCURVE",
"873 309 CURVE",
"873 304 LINE",
"869 304 LINE",
"869 307 LINE",
"543 307 LINE",
"543 304 LINE",
"539 304 LINE"
);
}
);
width = 976;
},
{
background = {
paths = (
{
closed = 1;
nodes = (
"324 -12 OFFCURVE",
"391 26 OFFCURVE",
"449 80 CURVE",
"450 84 LINE",
"454 84 LINE",
"453 80 LINE",
"484 26 OFFCURVE",
"538 -12 OFFCURVE",
"628 -12 CURVE SMOOTH",
"751 -12 OFFCURVE",
"832 56 OFFCURVE",
"880 110 CURVE",
"804 175 LINE",
"767 138 OFFCURVE",
"721 103 OFFCURVE",
"656 103 CURVE SMOOTH",
"569 103 OFFCURVE",
"531 167 OFFCURVE",
"543 227 CURVE",
"544 231 LINE",
"548 231 LINE",
"548 229 LINE",
"966 229 LINE",
"888 192 LINE",
"907 216 OFFCURVE",
"921 266 OFFCURVE",
"926 289 CURVE SMOOTH",
"952 413 OFFCURVE",
"883 537 OFFCURVE",
"733 537 CURVE SMOOTH",
"645 537 OFFCURVE",
"583 493 OFFCURVE",
"528 444 CURVE",
"527 440 LINE",
"523 440 LINE",
"524 444 LINE",
"489 497 OFFCURVE",
"440 537 OFFCURVE",
"357 537 CURVE SMOOTH",
"220 537 OFFCURVE",
"76 430 OFFCURVE",
"40 264 CURVE SMOOTH",
"5 98 OFFCURVE",
"104 -12 OFFCURVE",
"242 -12 CURVE SMOOTH"
);
},
{
closed = 1;
nodes = (
"188 103 OFFCURVE",
"162 176 OFFCURVE",
"180 264 CURVE SMOOTH",
"199 353 OFFCURVE",
"255 422 OFFCURVE",
"333 422 CURVE SMOOTH",
"411 422 OFFCURVE",
"439 353 OFFCURVE",
"420 264 CURVE SMOOTH",
"402 176 OFFCURVE",
"345 103 OFFCURVE",
"266 103 CURVE SMOOTH"
);
},
{
closed = 1;
nodes = (
"562 321 LINE",
"573 370 OFFCURVE",
"632 432 OFFCURVE",
"711 432 CURVE SMOOTH",
"790 432 OFFCURVE",
"819 370 OFFCURVE",
"808 321 CURVE",
"808 317 LINE",
"804 317 LINE",
"804 319 LINE",
"566 319 LINE",
"566 317 LINE",
"562 317 LINE"
);
}
);
};
layerId = "C89E7CB9-06CC-4D85-8773-832B05BA201B";
paths = (
{
closed = 1;
nodes = (
"326 -12 OFFCURVE",
"413 26 OFFCURVE",
"451 80 CURVE",
"451 84 LINE",
"455 84 LINE",
"455 80 LINE",
"492 30 OFFCURVE",
"548 -12 OFFCURVE",
"639 -12 CURVE SMOOTH",
"751 -12 OFFCURVE",
"840 51 OFFCURVE",
"887 104 CURVE",
"805 175 LINE",
"767 138 OFFCURVE",
"718 103 OFFCURVE",
"656 103 CURVE SMOOTH",
"577 103 OFFCURVE",
"530 157 OFFCURVE",
"543 227 CURVE",
"543 231 LINE",
"547 231 LINE",
"547 229 LINE",
"967 229 LINE",
"896 199 LINE",
"913 232 OFFCURVE",
"931 293 OFFCURVE",
"931 341 CURVE SMOOTH",
"931 445 OFFCURVE",
"850 537 OFFCURVE",
"718 537 CURVE SMOOTH",
"622 537 OFFCURVE",
"566 491 OFFCURVE",
"513 444 CURVE",
"513 440 LINE",
"509 440 LINE",
"509 444 LINE",
"485 494 OFFCURVE",
"428 537 OFFCURVE",
"337 537 CURVE SMOOTH",
"161 537 OFFCURVE",
"35 373 OFFCURVE",
"35 209 CURVE SMOOTH",
"35 75 OFFCURVE",
"128 -12 OFFCURVE",
"247 -12 CURVE SMOOTH"
);
},
{
closed = 1;
nodes = (
"213 104 OFFCURVE",
"173 141 OFFCURVE",
"173 221 CURVE SMOOTH",
"173 309 OFFCURVE",
"220 421 OFFCURVE",
"323 421 CURVE SMOOTH",
"382 421 OFFCURVE",
"424 384 OFFCURVE",
"424 302 CURVE SMOOTH",
"424 215 OFFCURVE",
"379 104 OFFCURVE",
"274 104 CURVE SMOOTH"
);
},
{
closed = 1;
nodes = (
"561 321 LINE",
"571 370 OFFCURVE",
"632 432 OFFCURVE",
"711 432 CURVE SMOOTH",
"778 432 OFFCURVE",
"821 385 OFFCURVE",
"810 321 CURVE",
"810 317 LINE",
"806 317 LINE",
"806 319 LINE",
"565 319 LINE",
"565 317 LINE",
"561 317 LINE"
);
}
);
width = 962;
}
);
leftMetricsKey = "=o";
rightMetricsKey = "=e";
unicode = 0153;
},
{
color = 6;
glyphname = p;
lastChange = "2020-05-11 14:45:27 +0000";
layers = (
{
background = {
paths = (
{
closed = 1;
nodes = (
"60 -170 LINE",
"118 102 LINE",
"121 102 LINE",
"121 100 LINE",
"139 50 OFFCURVE",
"188 -8 OFFCURVE",
"277 -8 CURVE SMOOTH",
"443 -8 OFFCURVE",
"568 163 OFFCURVE",
"568 338 CURVE SMOOTH",
"568 457 OFFCURVE",
"500 533 OFFCURVE",
"391 533 CURVE SMOOTH",
"294 533 OFFCURVE",
"227 478 OFFCURVE",
"191 431 CURVE",
"191 429 LINE",
"187 429 LINE",
"207 525 LINE",
"146 525 LINE",
"-1 -170 LINE"
);
},
{
closed = 1;
nodes = (
"186 52 OFFCURVE",
"146 108 OFFCURVE",
"146 196 CURVE SMOOTH",
"146 225 OFFCURVE",
"150 257 OFFCURVE",
"158 292 CURVE SMOOTH",
"183 398 OFFCURVE",
"265 473 OFFCURVE",
"365 473 CURVE SMOOTH",
"450 473 OFFCURVE",
"503 416 OFFCURVE",
"503 321 CURVE SMOOTH",
"503 186 OFFCURVE",
"409 52 OFFCURVE",
"276 52 CURVE SMOOTH"
);
}
);
};
layerId = "E773EBAE-783E-4D91-931E-4E5C9CF0967C";
paths = (
{
closed = 1;
nodes = (
"60 -170 LINE",
"117 98 LINE",
"117 102 LINE",
"121 102 LINE",
"121 100 LINE",
"139 50 OFFCURVE",
"187 -8 OFFCURVE",
"281 -8 CURVE SMOOTH",
"442 -8 OFFCURVE",
"568 165 OFFCURVE",
"568 335 CURVE SMOOTH",
"568 459 OFFCURVE",
"501 533 OFFCURVE",
"390 533 CURVE SMOOTH",
"295 533 OFFCURVE",
"227 478 OFFCURVE",
"191 431 CURVE",
"191 429 LINE",
"187 429 LINE",
"187 433 LINE",
"206 525 LINE",
"146 525 LINE",
"-1 -170 LINE"
);
},
{
closed = 1;
nodes = (
"187 52 OFFCURVE",
"146 108 OFFCURVE",
"146 196 CURVE SMOOTH",
"146 225 OFFCURVE",
"150 257 OFFCURVE",
"158 292 CURVE SMOOTH",
"183 398 OFFCURVE",
"266 473 OFFCURVE",
"365 473 CURVE SMOOTH",
"451 473 OFFCURVE",
"503 417 OFFCURVE",
"503 319 CURVE SMOOTH",
"503 187 OFFCURVE",
"410 52 OFFCURVE",
"275 52 CURVE SMOOTH"
);
}
);
width = 611;
},
{
background = {
paths = (
{
closed = 1;
nodes = (
"127 -170 LINE",
"184 101 LINE",
"184 105 LINE",
"188 105 LINE",
"188 103 LINE",
"202 42 OFFCURVE",
"250 -8 OFFCURVE",
"331 -8 CURVE SMOOTH",
"499 -8 OFFCURVE",
"619 173 OFFCURVE",
"619 352 CURVE SMOOTH",
"619 474 OFFCURVE",
"551 537 OFFCURVE",
"444 537 CURVE SMOOTH",
"352 537 OFFCURVE",
"287 477 OFFCURVE",
"258 433 CURVE",
"258 431 LINE",
"254 431 LINE",
"254 436 LINE",
"272 525 LINE",
"135 525 LINE",
"-11 -170 LINE"
);
},
{
closed = 1;
nodes = (
"259 107 OFFCURVE",
"213 137 OFFCURVE",
"213 212 CURVE SMOOTH",
"213 226 OFFCURVE",
"214 244 OFFCURVE",
"222 282 CURVE SMOOTH",
"239 360 OFFCURVE",
"300 422 OFFCURVE",
"378 422 CURVE SMOOTH",
"434 422 OFFCURVE",
"475 388 OFFCURVE",
"475 320 CURVE SMOOTH",
"475 217 OFFCURVE",
"408 107 OFFCURVE",
"311 107 CURVE SMOOTH"
);
}
);
};
layerId = "C89E7CB9-06CC-4D85-8773-832B05BA201B";
paths = (
{
closed = 1;
nodes = (
"127 -170 LINE",
"184 101 LINE",
"184 105 LINE",
"188 105 LINE",
"188 103 LINE",
"202 42 OFFCURVE",
"250 -8 OFFCURVE",
"331 -8 CURVE SMOOTH",
"499 -8 OFFCURVE",
"619 178 OFFCURVE",
"619 349 CURVE SMOOTH",
"619 480 OFFCURVE",
"548 537 OFFCURVE",
"450 537 CURVE SMOOTH",
"349 537 OFFCURVE",
"287 477 OFFCURVE",
"258 433 CURVE",
"258 431 LINE",
"254 431 LINE",
"254 436 LINE",
"272 525 LINE",
"135 525 LINE",
"-11 -170 LINE"
);
},
{
closed = 1;
nodes = (
"256 107 OFFCURVE",
"214 141 OFFCURVE",
"214 217 CURVE SMOOTH",
"214 240 OFFCURVE",
"218 264 OFFCURVE",
"222 282 CURVE SMOOTH",
"240 362 OFFCURVE",
"300 422 OFFCURVE",
"378 422 CURVE SMOOTH",
"434 422 OFFCURVE",
"475 391 OFFCURVE",
"475 316 CURVE SMOOTH",
"475 215 OFFCURVE",
"407 107 OFFCURVE",
"310 107 CURVE SMOOTH"
);
}
);
width = 650;
}
);
leftMetricsKey = "=h";
rightMetricsKey = "=o";
unicode = 0070;
},
{
color = 6;
glyphname = q;
lastChange = "2020-05-11 14:45:27 +0000";
layers = (
{
background = {
paths = (
{
closed = 1;
nodes = (
"428 -170 LINE",
"575 525 LINE",
"524 525 LINE",
"494 433 LINE",
"494 429 LINE",
"490 429 LINE",
"490 431 LINE",
"472 478 OFFCURVE",
"434 533 OFFCURVE",
"333 533 CURVE SMOOTH",
"167 533 OFFCURVE",
"44 370 OFFCURVE",
"44 193 CURVE SMOOTH",
"44 76 OFFCURVE",
"110 -8 OFFCURVE",
"219 -8 CURVE SMOOTH",
"312 -8 OFFCURVE",
"380 50 OFFCURVE",
"420 100 CURVE",
"420 102 LINE",
"424 102 LINE",
"367 -170 LINE"
);
},
{
closed = 1;
nodes = (
"154 52 OFFCURVE",
"109 115 OFFCURVE",
"109 208 CURVE SMOOTH",
"109 339 OFFCURVE",
"201 473 OFFCURVE",
"333 473 CURVE SMOOTH",
"420 473 OFFCURVE",
"468 417 OFFCURVE",
"468 332 CURVE SMOOTH",
"468 300 OFFCURVE",
"461 267 OFFCURVE",
"453 235 CURVE SMOOTH",
"436 163 OFFCURVE",
"364 52 OFFCURVE",
"244 52 CURVE SMOOTH"
);
}
);
};
layerId = "E773EBAE-783E-4D91-931E-4E5C9CF0967C";
paths = (
{
closed = 1;
nodes = (
"428 -170 LINE",
"575 525 LINE",
"524 525 LINE",
"494 433 LINE",
"494 429 LINE",
"490 429 LINE",
"490 431 LINE",
"472 478 OFFCURVE",
"433 533 OFFCURVE",
"334 533 CURVE SMOOTH",
"166 533 OFFCURVE",
"44 367 OFFCURVE",
"44 197 CURVE SMOOTH",
"44 73 OFFCURVE",
"110 -8 OFFCURVE",
"219 -8 CURVE SMOOTH",
"312 -8 OFFCURVE",
"379 50 OFFCURVE",
"419 100 CURVE",
"419 102 LINE",
"423 102 LINE",
"423 98 LINE",
"367 -170 LINE"
);
},
{
closed = 1;
nodes = (
"154 52 OFFCURVE",
"109 115 OFFCURVE",
"109 208 CURVE SMOOTH",
"109 339 OFFCURVE",
"200 473 OFFCURVE",
"333 473 CURVE SMOOTH",
"419 473 OFFCURVE",
"468 417 OFFCURVE",
"468 332 CURVE SMOOTH",
"468 300 OFFCURVE",
"461 267 OFFCURVE",
"453 235 CURVE SMOOTH",
"436 163 OFFCURVE",
"364 52 OFFCURVE",
"244 52 CURVE SMOOTH"
);
}
);
width = 610;
},
{
background = {
paths = (
{
closed = 1;
nodes = (
"210 107 OFFCURVE",
"175 147 OFFCURVE",
"175 222 CURVE SMOOTH",
"175 329 OFFCURVE",
"252 423 OFFCURVE",
"342 423 CURVE SMOOTH",
"402 423 OFFCURVE",
"440 381 OFFCURVE",
"440 322 CURVE SMOOTH",
"440 290 OFFCURVE",
"429 246 OFFCURVE",
"421 216 CURVE SMOOTH",
"404 154 OFFCURVE",
"351 107 OFFCURVE",
"278 107 CURVE SMOOTH"
);
}
);
};
layerId = "C89E7CB9-06CC-4D85-8773-832B05BA201B";
paths = (
{
closed = 1;
nodes = (
"478 -170 LINE",
"624 525 LINE",
"496 525 LINE",
"467 435 LINE",
"467 431 LINE",
"463 431 LINE",
"463 433 LINE",
"452 477 OFFCURVE",
"414 537 OFFCURVE",
"317 537 CURVE SMOOTH",
"156 537 OFFCURVE",
"33 369 OFFCURVE",
"33 192 CURVE SMOOTH",
"33 74 OFFCURVE",
"89 -8 OFFCURVE",
"204 -8 CURVE SMOOTH",
"295 -8 OFFCURVE",
"352 42 OFFCURVE",
"392 103 CURVE",
"392 105 LINE",
"397 105 LINE",
"397 101 LINE",
"340 -170 LINE"
);
},
{
closed = 1;
nodes = (
"215 108 OFFCURVE",
"174 139 OFFCURVE",
"174 216 CURVE SMOOTH",
"174 315 OFFCURVE",
"242 423 OFFCURVE",
"339 423 CURVE SMOOTH",
"393 423 OFFCURVE",
"435 389 OFFCURVE",
"435 313 CURVE SMOOTH",
"435 290 OFFCURVE",
"431 266 OFFCURVE",
"427 248 CURVE SMOOTH",
"409 168 OFFCURVE",
"349 108 OFFCURVE",
"271 108 CURVE SMOOTH"
);
}
);
width = 651;
}
);
leftMetricsKey = "=o";
rightMetricsKey = "=I";
unicode = 0071;
},
{
color = 7;
glyphname = q.ss17;
lastChange = "2020-05-21 16:16:57 +0000";
layers = (
{
background = {
paths = (
{
closed = 0;
nodes = (
"386 -78 LINE SMOOTH",
"370 -129 OFFCURVE",
"391 -179 OFFCURVE",
"458 -179 CURVE SMOOTH",
"483 -179 OFFCURVE",
"513 -172 OFFCURVE",
"539 -161 CURVE",
"504 -194 LINE",
"524 -107 LINE",
"551 -116 LINE",
"538 -120 OFFCURVE",
"505 -129 OFFCURVE",
"480 -129 CURVE SMOOTH",
"447 -129 OFFCURVE",
"431 -113 OFFCURVE",
"444 -72 CURVE SMOOTH"
);
}
);
};
layerId = "E773EBAE-783E-4D91-931E-4E5C9CF0967C";
paths = (
{
closed = 1;
nodes = (
"524 -107 LINE",
"551 -116 LINE",
"538 -120 OFFCURVE",
"505 -129 OFFCURVE",
"480 -129 CURVE SMOOTH",
"448 -129 OFFCURVE",
"435 -114 OFFCURVE",
"444 -72 CURVE SMOOTH",
"575 525 LINE",
"524 525 LINE",
"494 433 LINE",
"494 429 LINE",
"490 429 LINE",
"490 431 LINE",
"472 478 OFFCURVE",
"433 533 OFFCURVE",
"334 533 CURVE SMOOTH",
"166 533 OFFCURVE",
"44 367 OFFCURVE",
"44 197 CURVE SMOOTH",
"44 73 OFFCURVE",
"110 -8 OFFCURVE",
"219 -8 CURVE SMOOTH",
"312 -8 OFFCURVE",
"379 50 OFFCURVE",
"419 100 CURVE",
"419 102 LINE",
"423 102 LINE",
"423 98 LINE",
"386 -78 LINE SMOOTH",
"375 -132 OFFCURVE",
"391 -179 OFFCURVE",
"458 -179 CURVE SMOOTH",
"483 -179 OFFCURVE",
"513 -172 OFFCURVE",
"539 -161 CURVE",
"504 -194 LINE"
);
},
{
closed = 1;
nodes = (
"154 52 OFFCURVE",
"109 115 OFFCURVE",
"109 208 CURVE SMOOTH",
"109 339 OFFCURVE",
"200 473 OFFCURVE",
"333 473 CURVE SMOOTH",
"419 473 OFFCURVE",
"468 417 OFFCURVE",
"468 332 CURVE SMOOTH",
"468 300 OFFCURVE",
"461 267 OFFCURVE",
"453 235 CURVE SMOOTH",
"436 163 OFFCURVE",
"364 52 OFFCURVE",
"244 52 CURVE SMOOTH"
);
}
);
width = 632;
},
{
background = {
paths = (
{
closed = 1;
nodes = (
"602 -23 LINE",
"640 -65 LINE",
"600 -80 OFFCURVE",
"574 -85 OFFCURVE",
"549 -85 CURVE SMOOTH",
"501 -85 OFFCURVE",
"504 -47 OFFCURVE",
"515 7 CURVE SMOOTH",
"624 525 LINE",
"495 525 LINE",
"466 435 LINE",
"466 431 LINE",
"462 431 LINE",
"462 433 LINE",
"451 477 OFFCURVE",
"411 537 OFFCURVE",
"319 537 CURVE SMOOTH",
"153 537 OFFCURVE",
"32 370 OFFCURVE",
"32 188 CURVE SMOOTH",
"32 75 OFFCURVE",
"88 -8 OFFCURVE",
"202 -8 CURVE SMOOTH",
"294 -8 OFFCURVE",
"352 42 OFFCURVE",
"392 103 CURVE",
"392 105 LINE",
"397 105 LINE",
"368 -41 LINE SMOOTH",
"353 -117 OFFCURVE",
"393 -177 OFFCURVE",
"470 -177 CURVE SMOOTH",
"514 -177 OFFCURVE",
"569 -158 OFFCURVE",
"599 -118 CURVE",
"563 -203 LINE"
);
},
{
closed = 1;
nodes = (
"211 107 OFFCURVE",
"174 146 OFFCURVE",
"174 215 CURVE SMOOTH",
"174 331 OFFCURVE",
"251 423 OFFCURVE",
"342 423 CURVE SMOOTH",
"405 423 OFFCURVE",
"437 374 OFFCURVE",
"437 317 CURVE SMOOTH",
"437 295 OFFCURVE",
"431 265 OFFCURVE",
"426 240 CURVE SMOOTH",
"404 132 OFFCURVE",
"331 107 OFFCURVE",
"276 107 CURVE SMOOTH"
);
}
);
};
layerId = "C89E7CB9-06CC-4D85-8773-832B05BA201B";
paths = (
{
closed = 1;
nodes = (
"602 -23 LINE",
"640 -65 LINE",
"598 -78 OFFCURVE",
"568 -85 OFFCURVE",
"547 -85 CURVE SMOOTH",
"508 -85 OFFCURVE",
"501 -59 OFFCURVE",
"515 7 CURVE SMOOTH",
"624 525 LINE",
"496 525 LINE",
"467 435 LINE",
"467 431 LINE",
"463 431 LINE",
"463 433 LINE",
"452 477 OFFCURVE",
"414 537 OFFCURVE",
"317 537 CURVE SMOOTH",
"156 537 OFFCURVE",
"33 369 OFFCURVE",
"33 192 CURVE SMOOTH",
"33 74 OFFCURVE",
"89 -8 OFFCURVE",
"204 -8 CURVE SMOOTH",
"295 -8 OFFCURVE",
"352 42 OFFCURVE",
"392 103 CURVE",
"392 105 LINE",
"397 105 LINE",
"397 101 LINE",
"368 -41 LINE SMOOTH",
"353 -116 OFFCURVE",
"395 -177 OFFCURVE",
"472 -177 CURVE SMOOTH",
"515 -177 OFFCURVE",
"569 -158 OFFCURVE",
"599 -118 CURVE",
"563 -203 LINE"
);
},
{
closed = 1;
nodes = (
"215 108 OFFCURVE",
"174 139 OFFCURVE",
"174 216 CURVE SMOOTH",
"174 315 OFFCURVE",
"242 423 OFFCURVE",
"339 423 CURVE SMOOTH",
"393 423 OFFCURVE",
"435 389 OFFCURVE",
"435 313 CURVE SMOOTH",
"435 290 OFFCURVE",
"431 266 OFFCURVE",
"427 248 CURVE SMOOTH",
"409 168 OFFCURVE",
"349 108 OFFCURVE",
"271 108 CURVE SMOOTH"
);
}
);
width = 684;
}
);
leftMetricsKey = "=o";
rightMetricsKey = "=o-20";
},
{
color = 6;
glyphname = r;
lastChange = "2020-05-11 14:45:27 +0000";
layers = (
{
background = {
paths = (
{
closed = 1;
nodes = (
"151 0 LINE",
"151 468 LINE",
"151 480 LINE",
"151 498 LINE",
"151 513 LINE",
"151 525 LINE",
"91 525 LINE",
"91 0 LINE"
);
},
{
closed = 1;
nodes = (
"133 310 LINE",
"151 310 LINE",
"151 416 OFFCURVE",
"219 478 OFFCURVE",
"311 478 CURVE SMOOTH",
"338 478 OFFCURVE",
"351 475 OFFCURVE",
"361 472 CURVE",
"361 531 LINE",
"352 532 OFFCURVE",
"343 533 OFFCURVE",
"322 533 CURVE SMOOTH",
"227 533 OFFCURVE",
"175 485 OFFCURVE",
"151 437 CURVE",
"133 437 LINE",
"133 407 LINE"
);
}
);
};
layerId = "E773EBAE-783E-4D91-931E-4E5C9CF0967C";
paths = (
{
closed = 1;
nodes = (
"96 0 LINE",
"163 315 LINE SMOOTH",
"183 411 OFFCURVE",
"260 478 OFFCURVE",
"364 478 CURVE SMOOTH",
"390 478 OFFCURVE",
"419 474 OFFCURVE",
"437 465 CURVE",
"398 446 LINE",
"422 554 LINE",
"449 523 LINE",
"431 530 OFFCURVE",
"407 533 OFFCURVE",
"382 533 CURVE SMOOTH",
"303 533 OFFCURVE",
"239 504 OFFCURVE",
"193 439 CURVE",
"193 437 LINE",
"189 437 LINE",
"189 441 LINE",
"196 525 LINE",
"146 525 LINE",
"35 0 LINE"
);
}
);
width = 400;
},
{
background = {
paths = (
{
closed = 1;
nodes = (
"243 0 LINE",
"243 461 LINE",
"243 476 LINE",
"243 494 LINE",
"243 503 LINE",
"243 538 LINE",
"103 538 LINE",
"103 0 LINE"
);
},
{
closed = 1;
nodes = (
"222 295 LINE",
"243 295 LINE",
"243 423 OFFCURVE",
"340 421 OFFCURVE",
"378 421 CURVE SMOOTH",
"405 421 OFFCURVE",
"436 416 OFFCURVE",
"444 413 CURVE",
"444 547 LINE",
"434 549 OFFCURVE",
"414 549 OFFCURVE",
"407 549 CURVE SMOOTH",
"317 549 OFFCURVE",
"269 518 OFFCURVE",
"243 461 CURVE",
"231 461 LINE",
"222 461 LINE"
);
}
);
};
layerId = "C89E7CB9-06CC-4D85-8773-832B05BA201B";
paths = (
{
closed = 1;
nodes = (
"168 0 LINE",
"228 286 LINE SMOOTH",
"245 368 OFFCURVE",
"303 409 OFFCURVE",
"388 409 CURVE SMOOTH",
"427 409 OFFCURVE",
"471 401 OFFCURVE",
"495 386 CURVE",
"435 344 LINE",
"487 578 LINE",
"538 509 LINE",
"532 515 OFFCURVE",
"508 537 OFFCURVE",
"440 537 CURVE SMOOTH",
"345 537 OFFCURVE",
"294 497 OFFCURVE",
"266 451 CURVE",
"266 449 LINE",
"262 449 LINE",
"262 453 LINE",
"254 525 LINE",
"135 525 LINE",
"25 0 LINE"
);
}
);
width = 450;
}
);
leftMetricsKey = "=h";
rightMetricsKey = "=o-10";
unicode = 0072;
},
